<svg width="160" height="40" viewBox="0 0 160 40" fill="none" xmlns="http://www.w3.org/2000/svg">
<g clip-path="url(#clip0)">
<path d="M62.3236 9.87381H53.5764V11.5158H62.2828L62.3236 9.87381ZM62.6298 20.0726L60.5068 20.4296L61.3029 18.0737H59.5882L58.6696 20.7458L57.0467 21.011C56.9579 20.0056 56.7312 19.0173 56.373 18.0737H54.597C55.0057 19.0946 55.2802 20.1642 55.4136 21.2557L52.9844 21.6025V23.6422C55.3728 23.2139 59.9761 22.1022 62.6809 21.5311L62.6298 20.0726ZM54.8624 8.85393H62.3236V3.86669H60.4762V7.22211H58.8941V3.14258H57.0467V7.22211H55.4646V3.86669H53.5764V7.60967C53.5764 7.77307 53.6086 7.93488 53.6711 8.08584C53.7337 8.2368 53.8254 8.37395 53.9411 8.48949C54.0567 8.60503 54.194 8.69669 54.345 8.75922C54.4961 8.82175 54.6581 8.85393 54.8216 8.85393H54.8624ZM54.8216 17.3801H62.2828V13.6066C62.2828 13.2766 62.1516 12.9601 61.9181 12.7268C61.6845 12.4934 61.3678 12.3623 61.0376 12.3623H53.5764V16.1359C53.5764 16.4659 53.7076 16.7824 53.9411 17.0157C54.1746 17.249 54.4913 17.3801 54.8216 17.3801ZM55.5055 13.8616H60.3435V15.9013H55.5055V13.8616ZM71.9487 22.1124C71.4996 22.1124 71.3465 21.8676 71.3465 21.4291V5.16196C71.3465 4.83196 71.2153 4.51548 70.9817 4.28213C70.7482 4.04879 70.4315 3.9177 70.1012 3.9177H64.906V14.0553C64.906 17.6861 64.6202 21.2761 62.2828 23.8258H64.3752C66.7636 21.0925 66.8452 18.0329 66.8452 14.0553V5.58011H69.1928V21.7453C69.1928 22.9487 69.5398 23.6321 70.632 23.785C71.7254 23.8803 72.8251 23.8803 73.9186 23.785L74.2554 22.0002C73.4805 22.0504 72.7032 22.0504 71.9283 22.0002" fill="#00377B"/>
<path d="M102.714 13.9533H97.3248V6.9569H100.826V5.26389H97.3248V3.22412H95.2834V5.26389H88.5265V3.22412H86.4851V5.26389H82.9842V6.9569H86.4851V13.9533H81.1367V15.6565H86.1279C84.9069 17.3627 83.15 18.6119 81.1367 19.2057V21.1231C83.0507 20.6024 84.832 19.6812 86.3626 18.4204V19.838H90.8638V22.1123H83.1781V23.8156H100.632V22.1123H92.9767V19.8686H97.4677V18.451C99.0023 19.7115 100.787 20.6326 102.704 21.1537V19.2363C100.686 18.6453 98.9255 17.3957 97.7024 15.6871H102.704L102.714 13.9533ZM88.5571 6.9569H95.2732V8.15014H88.5571V6.9569ZM88.5571 9.86354H95.2732V11.0568H88.5571V9.86354ZM88.5571 12.76H95.2732V13.9533H88.5571V12.76ZM92.9971 18.1348V16.3806H90.8434V18.1348H86.6586C87.4262 17.4427 88.0414 16.5988 88.4652 15.6565H95.4263C95.8462 16.601 96.462 17.4458 97.2329 18.1348H92.9971Z" fill="#00377B"/>
<path d="M158.728 3.97852H146.715V5.8347H158.728V3.97852Z" fill="#00377B"/>
<path d="M145.816 9.67969V11.5257H153.339V21.4186C153.339 21.8571 153.196 22.0611 152.747 22.1019C151.968 22.1467 151.188 22.1467 150.409 22.1019L150.757 23.8765C151.877 23.976 153.004 23.976 154.125 23.8765C155.217 23.6929 155.564 23.0096 155.564 21.8367V11.6379H159.647V9.79189L145.816 9.67969Z" fill="#00377B"/>
<path d="M138.102 13.6163V15.6561C138.953 15.2128 139.757 14.6831 140.5 14.0752V23.9069H142.695V11.9131C143.776 10.4981 144.668 8.94842 145.348 7.30322H143.307C142.116 9.79901 140.346 11.9741 138.142 13.6469" fill="#00377B"/>
<path d="M143.939 2.8667H141.897C141.2 4.70426 139.943 6.27717 138.305 7.36439V9.49594C140.944 8.05144 142.966 5.69433 143.99 2.8667" fill="#00377B"/>
<path d="M126.811 18.2365L129.954 16.6658V14.8504L126.045 16.8392C125.578 15.8364 125.311 14.752 125.259 13.647H129.995V4.63119C129.995 4.46779 129.963 4.30601 129.9 4.15505C129.838 4.00409 129.746 3.86693 129.63 3.75139C129.515 3.63585 129.377 3.5442 129.226 3.48167C129.075 3.41914 128.913 3.38696 128.75 3.38696H120.493V21.7449C120.493 21.7449 119.247 22.061 119.217 22.061V24.1008C119.217 24.1008 124.769 22.3874 124.81 22.3976V20.7862C124.81 20.7862 122.207 21.2961 122.228 21.3267V13.647H123.463C123.662 15.9854 124.549 18.2125 126.013 20.0475C127.477 21.8825 129.452 23.2432 131.689 23.958V22.316C129.743 21.4048 128.071 19.9978 126.841 18.2365H126.811ZM122.228 5.04934H128.229V7.73164H122.228V5.04934ZM122.228 9.30227H128.229V11.9846H122.228V9.30227ZM115.593 9.85301H117.635V8.27218H112.276C113.298 7.19102 114.23 6.02785 115.062 4.79437C116.192 6.17502 117.453 7.4423 118.829 8.57816V6.3956C117.671 5.30143 116.625 4.09549 115.705 2.79541H114.205C113.22 4.74721 111.852 6.48133 110.184 7.89483V10.0672C110.737 9.70213 111.262 9.29646 111.755 8.85352V9.8734H113.878V12.0458H110.49V13.6674H113.878V20.4802C112.552 20.7555 111.235 21.0003 110.357 21.1635V23.2033L118.9 21.0921V19.4093C118.022 19.6337 116.665 19.8683 115.532 20.113V13.647H118.9V12.0253H115.532L115.593 9.85301ZM117.481 19.1747C118.031 17.8773 118.514 16.5532 118.931 15.2074H117.206C116.931 16.4237 116.562 17.6171 116.104 18.777L117.481 19.1747ZM112.133 15.2074H110.541C111.106 16.5947 111.51 18.0422 111.745 19.5215L113.358 19.0421C113.159 17.7064 112.745 16.4116 112.133 15.2074Z" fill="#00377B"/>
<path d="M62.7009 36.8591C62.3316 37.0002 61.9326 37.0463 61.5408 36.993C61.149 36.9397 60.7769 36.7888 60.4587 36.5542C60.1406 36.3195 59.8866 36.0087 59.7201 35.6503C59.5537 35.2919 59.4801 34.8974 59.5062 34.5032C59.4829 34.1778 59.5286 33.8513 59.6405 33.5448C59.7523 33.2384 59.9277 32.959 60.1551 32.725C60.3826 32.491 60.6569 32.3077 60.9602 32.187C61.2634 32.0664 61.5889 32.0111 61.915 32.0249C62.4157 32.0328 62.9079 32.1549 63.3541 32.3818L63.8135 31.5251C63.2279 31.1741 62.557 30.9906 61.8742 30.9948C61.3848 30.9491 60.8913 31.006 60.4252 31.1618C59.9592 31.3176 59.5308 31.5689 59.1675 31.8996C58.8041 32.2303 58.5139 32.6331 58.3153 33.0823C58.1167 33.5315 58.0141 34.0172 58.0141 34.5083C58.0141 34.9994 58.1167 35.4851 58.3153 35.9343C58.5139 36.3835 58.8041 36.7863 59.1675 37.117C59.5308 37.4477 59.9592 37.699 60.4252 37.8548C60.8913 38.0106 61.3848 38.0675 61.8742 38.0218C62.6461 38.0048 63.4107 37.8671 64.1401 37.6139V34.7786H62.7213L62.7009 36.8591ZM65.2424 37.879H66.6612V31.0866H65.2424V37.879ZM58.0976 31.0866H56.6381L54.3211 33.9627V31.0866H52.9023V37.879H54.3211V34.5032L56.7911 37.879H58.5365L55.5765 34.1258L58.0976 31.0866Z" fill="#00377B"/>
<path d="M92.2734 34.1666L94.7944 31.1172H93.3451L91.0281 34.0035V31.1172H89.6094V37.9096H91.0281V34.544L93.4982 37.9096H95.2435L92.2734 34.1666Z" fill="#00377B"/>
<path d="M87.2614 36.0027C86.006 34.2995 84.7301 32.7798 83.4543 31.25H82.4336V38.0424H83.5768V33.249C84.8424 34.9726 86.1183 36.5024 87.3941 38.0322H88.4148V31.2908H87.2614V36.0027Z" fill="#00377B"/>
<path d="M73.9923 34.3509C74.3546 34.2509 74.6743 34.0354 74.9027 33.7371C75.1312 33.4389 75.2559 33.0742 75.2579 32.6987C75.2579 31.7706 74.4414 31.2402 73.2982 31.2402H70.8281V38.0326H73.094C74.6863 38.0326 75.6764 37.1963 75.6764 35.9929C75.6512 35.5586 75.4644 35.1494 75.1529 34.8457C74.8413 34.5419 74.4273 34.3654 73.9923 34.3509ZM72.2469 32.1275H72.9205C73.5023 32.1275 73.9412 32.3723 73.9412 32.9536C73.9337 33.111 73.8942 33.2652 73.8252 33.4069C73.7561 33.5486 73.659 33.6748 73.5397 33.7778C73.4204 33.8808 73.2813 33.9585 73.131 34.0062C72.9807 34.0538 72.8223 34.0705 72.6654 34.0551H72.2673L72.2469 32.1275ZM72.9103 37.1453H72.2469V34.9322H72.9001C73.635 34.9322 74.1964 35.2586 74.1964 36.0337C74.1964 36.8088 73.6554 37.1453 72.9103 37.1453Z" fill="#00377B"/>
<path d="M78.3192 31.291L75.543 38.0834H76.7882L77.4823 36.2476H79.8299L80.4525 38.0834H82.0345L79.4828 31.291H78.3192ZM77.8599 35.3705C78.1661 34.524 78.4723 33.7285 78.7377 32.7291C79.0439 33.7489 79.3297 34.5138 79.6053 35.3705H77.8599Z" fill="#00377B"/>
</g>
<path d="M0 19.9954L19.9954 0H0V19.9954Z" fill="#00367B"/>
<path d="M19.9954 40.0002L0 19.9956V40.0002H19.9954Z" fill="#00367B"/>
<path d="M19.9961 40.0002L40.0007 19.9956V40.0002H19.9961Z" fill="#00367B"/>
<path d="M40.0007 19.9954L19.9961 0H40.0007V19.9954Z" fill="#50B848"/>
<path d="M19.9954 0L0 19.9954H19.9954V0Z" fill="url(#paint0_linear)"/>
<path d="M0 19.9956L19.9954 40.0002V19.9956H0Z" fill="url(#paint1_linear)"/>
<path d="M40.0007 19.9956L19.9961 40.0002V19.9956H40.0007Z" fill="white"/>
<path d="M40.0007 19.9954L19.9961 0V19.9954H40.0007Z" fill="url(#paint2_linear)"/>
<defs>
<linearGradient id="paint0_linear" x1="10.0355" y1="10.0352" x2="20.2517" y2="20.2515" gradientUnits="userSpaceOnUse">
<stop stop-color="#EF4622"/>
<stop offset="0.2" stop-color="#F15A21"/>
<stop offset="0.52" stop-color="#F6851E"/>
<stop offset="1" stop-color="#FFE300"/>
</linearGradient>
<linearGradient id="paint1_linear" x1="10.0353" y1="29.9616" x2="20.2519" y2="19.7452" gradientUnits="userSpaceOnUse">
<stop stop-color="#EF4622"/>
<stop offset="0.2" stop-color="#F15A21"/>
<stop offset="0.52" stop-color="#F6851E"/>
<stop offset="1" stop-color="#FFE300"/>
</linearGradient>
<linearGradient id="paint2_linear" x1="30.074" y1="9.92379" x2="19.9995" y2="19.9982" gradientUnits="userSpaceOnUse">
<stop stop-color="#073C87"/>
<stop offset="0.2" stop-color="#00408A"/>
<stop offset="0.52" stop-color="#0063AC"/>
<stop offset="1" stop-color="#00AEEF"/>
</linearGradient>
<clipPath id="clip0">
<rect width="106.753" height="35.2472" fill="white" transform="translate(52.9141 2.78516)"/>
</clipPath>
</defs>
</svg>
