<svg width="24" height="24" viewBox="0 0 24 24" fill="none" xmlns="http://www.w3.org/2000/svg">
<path d="M15.1501 5.55014L16.5 7.2H19.5C20.3284 7.2 21 7.87157 21 8.7V18.5C21 19.3284 20.3284 20 19.5 20H4.5C3.67157 20 3 19.3284 3 18.5V8.7C3 7.87157 3.67157 7.2 4.5 7.2H7.5L8.84988 5.55014C9.13478 5.20194 9.56092 5 10.0108 5H13.9892C14.4391 5 14.8652 5.20194 15.1501 5.55014Z" stroke="black" stroke-width="1.5"/>
<circle cx="12" cy="13" r="3.25" stroke="black" stroke-width="1.5"/>
<path d="M3 13L9 13" stroke="black" stroke-width="1.5"/>
<path d="M15 13L21 13" stroke="black" stroke-width="1.5"/>
</svg>
