<svg width="41" height="41" viewBox="0 0 41 41" fill="none" xmlns="http://www.w3.org/2000/svg">
<rect width="3.24091" height="3.24091" transform="matrix(0.707106 -0.707107 0.707106 0.707107 3.41211 34.3579)" fill="#0044AD"/>
<rect x="33.6897" y="7.95459" width="3.77478" height="3.77478" transform="rotate(-45 33.6897 7.95459)" fill="#FF623E"/>
<path fill-rule="evenodd" clip-rule="evenodd" d="M8.85205 11.7513C8.85205 10.8769 9.56093 10.168 10.4354 10.168H29.2595C30.1339 10.168 30.8428 10.8769 30.8428 11.7513V14.5059H8.85248V16.0892H30.8428V23.2451C30.8428 24.1196 30.1339 24.8285 29.2595 24.8285H10.4354C9.56093 24.8285 8.85205 24.1196 8.85205 23.2451V11.7513ZM13.2507 29.404V26.4641L29.245 26.4441C30.9939 26.4419 32.4099 25.0224 32.4077 23.2735L32.399 16.3268H33.6581C34.5325 16.3268 35.2414 17.0357 35.2414 17.9102V29.404C35.2414 30.2784 34.5325 30.9873 33.6581 30.9873H14.834C13.9595 30.9873 13.2507 30.2784 13.2507 29.404Z" fill="#0044AD"/>
<mask id="mask0" style="mask-type:alpha" maskUnits="userSpaceOnUse" x="4" y="6" width="33" height="33">
<path fill-rule="evenodd" clip-rule="evenodd" d="M8.85205 11.7513C8.85205 10.8769 9.56093 10.168 10.4354 10.168H29.2595C30.1339 10.168 30.8428 10.8769 30.8428 11.7513V14.5059H8.85248V16.0892H30.8428V23.2451C30.8428 24.1196 30.1339 24.8285 29.2595 24.8285H10.4354C9.56093 24.8285 8.85205 24.1196 8.85205 23.2451V11.7513ZM13.2507 29.404V26.4641L29.245 26.4441C30.9939 26.4419 32.4099 25.0224 32.4077 23.2735L32.399 16.3268H33.6581C34.5325 16.3268 35.2414 17.0357 35.2414 17.9102V29.404C35.2414 30.2784 34.5325 30.9873 33.6581 30.9873H14.834C13.9595 30.9873 13.2507 30.2784 13.2507 29.404Z" fill="#0044AD"/>
</mask>
<g mask="url(#mask0)">
<rect x="44.0371" y="2.25098" width="18.8423" height="51.0034" transform="rotate(45 44.0371 2.25098)" fill="#377AE3"/>
</g>
</svg>
