<svg width="24" height="24" viewBox="0 0 24 24" fill="none" xmlns="http://www.w3.org/2000/svg">
<path d="M19.3125 11.4375V10.3125C19.3125 6.27938 16.0331 3 12 3C7.96688 3 4.6875 6.27938 4.6875 10.3125V11.4375C3.75656 11.4375 3 12.1941 3 13.125V15.9375C3 16.8684 3.75656 17.625 4.6875 17.625V18.1875C4.6875 19.1184 5.44406 19.875 6.375 19.875H9.84844C10.0819 20.5303 10.7034 21 11.4375 21H12.5625C13.4934 21 14.25 20.2434 14.25 19.3125C14.25 18.3816 13.4934 17.625 12.5625 17.625H11.4375C10.7034 17.625 10.0819 18.0947 9.84844 18.75H6.375C6.06562 18.75 5.8125 18.4969 5.8125 18.1875V17.625C6.74344 17.625 7.5 16.8684 7.5 15.9375V13.125C7.5 12.1941 6.74344 11.4375 5.8125 11.4375V10.3125C5.8125 6.90094 8.58844 4.125 12 4.125C15.4116 4.125 18.1875 6.90094 18.1875 10.3125V11.4375C17.2566 11.4375 16.5 12.1941 16.5 13.125V15.9375C16.5 16.8684 17.2566 17.625 18.1875 17.625H19.3125C20.2434 17.625 21 16.8684 21 15.9375V13.125C21 12.1941 20.2434 11.4375 19.3125 11.4375ZM11.4375 18.75H12.5625C12.8719 18.75 13.125 19.0031 13.125 19.3125C13.125 19.6219 12.8719 19.875 12.5625 19.875H11.4375C11.1281 19.875 10.875 19.6219 10.875 19.3125C10.875 19.0031 11.1281 18.75 11.4375 18.75ZM6.375 13.125V15.9375C6.375 16.2469 6.12188 16.5 5.8125 16.5H4.6875C4.37812 16.5 4.125 16.2469 4.125 15.9375V13.125C4.125 12.8156 4.37812 12.5625 4.6875 12.5625H5.8125C6.12188 12.5625 6.375 12.8156 6.375 13.125ZM19.875 15.9375C19.875 16.2469 19.6219 16.5 19.3125 16.5H18.1875C17.8781 16.5 17.625 16.2469 17.625 15.9375V13.125C17.625 12.8156 17.8781 12.5625 18.1875 12.5625H19.3125C19.6219 12.5625 19.875 12.8156 19.875 13.125V15.9375Z" fill="black"/>
<path d="M19.3125 11.4375V10.3125C19.3125 6.27938 16.0331 3 12 3C7.96688 3 4.6875 6.27938 4.6875 10.3125V11.4375C3.75656 11.4375 3 12.1941 3 13.125V15.9375C3 16.8684 3.75656 17.625 4.6875 17.625V18.1875C4.6875 19.1184 5.44406 19.875 6.375 19.875H9.84844C10.0819 20.5303 10.7034 21 11.4375 21H12.5625C13.4934 21 14.25 20.2434 14.25 19.3125C14.25 18.3816 13.4934 17.625 12.5625 17.625H11.4375C10.7034 17.625 10.0819 18.0947 9.84844 18.75H6.375C6.06562 18.75 5.8125 18.4969 5.8125 18.1875V17.625C6.74344 17.625 7.5 16.8684 7.5 15.9375V13.125C7.5 12.1941 6.74344 11.4375 5.8125 11.4375V10.3125C5.8125 6.90094 8.58844 4.125 12 4.125C15.4116 4.125 18.1875 6.90094 18.1875 10.3125V11.4375C17.2566 11.4375 16.5 12.1941 16.5 13.125V15.9375C16.5 16.8684 17.2566 17.625 18.1875 17.625H19.3125C20.2434 17.625 21 16.8684 21 15.9375V13.125C21 12.1941 20.2434 11.4375 19.3125 11.4375ZM11.4375 18.75H12.5625C12.8719 18.75 13.125 19.0031 13.125 19.3125C13.125 19.6219 12.8719 19.875 12.5625 19.875H11.4375C11.1281 19.875 10.875 19.6219 10.875 19.3125C10.875 19.0031 11.1281 18.75 11.4375 18.75ZM6.375 13.125V15.9375C6.375 16.2469 6.12188 16.5 5.8125 16.5H4.6875C4.37812 16.5 4.125 16.2469 4.125 15.9375V13.125C4.125 12.8156 4.37812 12.5625 4.6875 12.5625H5.8125C6.12188 12.5625 6.375 12.8156 6.375 13.125ZM19.875 15.9375C19.875 16.2469 19.6219 16.5 19.3125 16.5H18.1875C17.8781 16.5 17.625 16.2469 17.625 15.9375V13.125C17.625 12.8156 17.8781 12.5625 18.1875 12.5625H19.3125C19.6219 12.5625 19.875 12.8156 19.875 13.125V15.9375Z" fill="black"/>
</svg>
