<svg width="40" height="40" viewBox="0 0 40 40" fill="none" xmlns="http://www.w3.org/2000/svg">
<path d="M24.0721 5V6.94245H22.1296L24.0721 5Z" fill="#FF623E"/>
<path d="M4 31.1143L5.29501 29.8192L6.59002 31.1143L5.29501 32.4093L4 31.1143Z" fill="#0044AD"/>
<rect x="6.59009" y="10.8281" width="27.4101" height="17.2662" rx="2" fill="#0044AD"/>
<rect x="20.4272" y="20.311" width="10.5799" height="0.278419" rx="0.139209" fill="white"/>
<rect x="20.4272" y="21.9814" width="7.79571" height="0.278419" rx="0.139209" fill="white"/>
<rect x="20.4272" y="23.373" width="7.79571" height="0.278419" rx="0.139209" fill="white"/>
<rect x="20.4272" y="15.582" width="4.17627" height="0.278419" rx="0.139209" fill="white"/>
<path fill-rule="evenodd" clip-rule="evenodd" d="M13.6532 19.2217C14.9046 19.2217 15.9191 18.2072 15.9191 16.9558C15.9191 15.7044 14.9046 14.6899 13.6532 14.6899C12.4018 14.6899 11.3873 15.7044 11.3873 16.9558C11.3873 18.2072 12.4018 19.2217 13.6532 19.2217ZM18.3358 24.6584C18.3358 24.6587 18.3356 24.6589 18.3353 24.6589H8.99713C8.98231 24.6589 8.97029 24.6709 8.97029 24.6858L8.97021 24.6584C8.97021 22.0722 11.0668 19.9756 13.653 19.9756C16.2393 19.9756 18.3358 22.0722 18.3358 24.6584Z" fill="white"/>
</svg>
