<svg width="16" height="16" viewBox="0 0 16 16" fill="none" xmlns="http://www.w3.org/2000/svg">
<path d="M4.276 10.3139L11.0373 3.55252L10.0947 2.60986L3.33333 9.37119V10.3139H4.276ZM4.82867 11.6472H2V8.81852L9.62333 1.19519C9.74835 1.07021 9.91789 1 10.0947 1C10.2714 1 10.441 1.07021 10.566 1.19519L12.452 3.08119C12.577 3.20621 12.6472 3.37575 12.6472 3.55252C12.6472 3.7293 12.577 3.89884 12.452 4.02386L4.82867 11.6472ZM2 12.9805H14V14.3139H2V12.9805Z" fill="black"/>
<path d="M4.276 10.3139L11.0373 3.55252L10.0947 2.60986L3.33333 9.37119V10.3139H4.276ZM4.82867 11.6472H2V8.81852L9.62333 1.19519C9.74835 1.07021 9.91789 1 10.0947 1C10.2714 1 10.441 1.07021 10.566 1.19519L12.452 3.08119C12.577 3.20621 12.6472 3.37575 12.6472 3.55252C12.6472 3.7293 12.577 3.89884 12.452 4.02386L4.82867 11.6472ZM2 12.9805H14V14.3139H2V12.9805Z" fill="black"/>
</svg>
