<svg width="17" height="16" viewBox="0 0 17 16" fill="none" xmlns="http://www.w3.org/2000/svg">
<g clip-path="url(#clip0)">
<rect x="2.42434" y="1.49354" width="13" height="13" rx="6.5" transform="rotate(-0.735241 2.42434 1.49354)" stroke="#626364"/>
<path d="M8.93117 4.07617C8.70017 4.07617 8.51317 4.14217 8.35917 4.29617C8.20517 4.43917 8.12817 4.62617 8.12817 4.85717C8.12817 5.07717 8.20517 5.27517 8.35917 5.42917C8.51317 5.57217 8.70017 5.64917 8.93117 5.64917C9.15117 5.64917 9.34917 5.57217 9.50317 5.42917C9.65717 5.27517 9.74517 5.08817 9.74517 4.85717C9.74517 4.62617 9.66817 4.43917 9.51417 4.29617C9.36017 4.14217 9.16217 4.07617 8.93117 4.07617ZM8.34817 6.35317V12.0402H9.51417V6.35317H8.34817Z" fill="#626364"/>
</g>
<defs>
<clipPath id="clip0">
<rect width="16" height="16" fill="white" transform="translate(0.917969)"/>
</clipPath>
</defs>
</svg>
