<svg width="41" height="41" viewBox="0 0 41 41" fill="none" xmlns="http://www.w3.org/2000/svg">
<path fill-rule="evenodd" clip-rule="evenodd" d="M28.666 12.0435H11.9994L14.2771 16.599H14.4533H26.3883L28.666 12.0435ZM26.4068 18.599H14.4533H14.2587L10.1029 26.6136C7.80191 31.0513 11.0225 36.349 16.0213 36.349H24.6441C29.6429 36.349 32.8635 31.0513 30.5625 26.6136L26.4068 18.599ZM21.582 20.863V21.9059H21.7209H22.9709V24.4059H21.7209H19.9848C19.7163 24.4059 19.4987 24.6236 19.4987 24.892C19.4987 25.1605 19.7163 25.3781 19.9848 25.3781H20.6793C22.3284 25.3781 23.6654 26.7151 23.6654 28.3643C23.6654 29.6988 22.7899 30.8288 21.582 31.2115V31.4881V32.7381H19.082V31.4881V31.3504H18.9432H17.6932V28.8504H18.9432H20.6793C20.9477 28.8504 21.1654 28.6327 21.1654 28.3643C21.1654 28.0958 20.9477 27.8781 20.6793 27.8781H19.9848C18.3356 27.8781 16.9987 26.5412 16.9987 24.892C16.9987 23.5575 17.8741 22.4275 19.082 22.0448V20.863H21.582Z" fill="#0044AD"/>
<path fill-rule="evenodd" clip-rule="evenodd" d="M9.97559 32.493C11.012 34.7103 13.2417 36.3482 16.0213 36.3482H24.6441C29.6429 36.3482 32.8635 31.0505 30.5624 26.6128L26.4067 18.5982H23.8704L21.582 20.8866V21.9052H21.7209H22.9709V24.4052H21.7209H19.9848C19.7163 24.4052 19.4987 24.6228 19.4987 24.8913C19.4987 25.1597 19.7163 25.3774 19.9848 25.3774H20.6792C22.3284 25.3774 23.6653 26.7143 23.6653 28.3635C23.6653 29.698 22.7899 30.8281 21.582 31.2107V31.4873V32.7373H19.082V31.4873V31.3496H18.9431H17.6931V28.8496H18.9431H20.6792C20.9477 28.8496 21.1653 28.632 21.1653 28.3635C21.1653 28.095 20.9477 27.8774 20.6792 27.8774H19.9848C18.517 27.8774 17.2965 26.8184 17.0458 25.4228L9.97559 32.493ZM25.8704 16.5982L26.9061 15.5625L26.3883 16.5982H25.8704Z" fill="#377AE3"/>
<rect x="15.8208" y="7.76904" width="3.2786" height="3.2786" transform="rotate(-45 15.8208 7.76904)" fill="#FF623E"/>
<rect x="22.4578" y="5.01221" width="1.6916" height="1.6916" transform="rotate(-45 22.4578 5.01221)" fill="#0044AD"/>
</svg>
