<svg width="24" height="24" viewBox="0 0 24 24" fill="none" xmlns="http://www.w3.org/2000/svg">
<path fill-rule="evenodd" clip-rule="evenodd" d="M5.5 4.5H17.5V18.5L5.5 18.5L5.5 4.5ZM17.5 3H19V4.5V7.125H20H20.875V8.875H20H19V11.125H20H20.875V12.875H20H19V18.5V20H17.5H5.5C4.67157 20 4 19.3284 4 18.5V4.5C4 3.67157 4.67157 3 5.5 3H17.5ZM11.5 9.5C12.0523 9.5 12.5 9.05228 12.5 8.5C12.5 7.94772 12.0523 7.5 11.5 7.5C10.9477 7.5 10.5 7.94772 10.5 8.5C10.5 9.05228 10.9477 9.5 11.5 9.5ZM11.5 11C12.8807 11 14 9.88071 14 8.5C14 7.11929 12.8807 6 11.5 6C10.1193 6 9 7.11929 9 8.5C9 9.88071 10.1193 11 11.5 11ZM11.5 13.5C12.9865 13.5 14.2205 14.5811 14.4585 16H15.9725C15.7238 13.75 13.8163 12 11.5 12C9.18372 12 7.27619 13.75 7.02747 16H8.54148C8.77952 14.5811 10.0135 13.5 11.5 13.5Z" fill="black"/>
</svg>
