<svg width="23" height="22" viewBox="0 0 23 22" fill="none" xmlns="http://www.w3.org/2000/svg">
<path d="M9.55881 9.19753C10.2004 8.55525 10.7597 8.15992 9.62258 6.74425C8.48535 5.32864 7.72678 6.41571 7.10435 7.03817C6.38723 7.75588 7.06656 10.4312 9.71105 13.0762C12.3555 15.72 15.0315 16.4006 15.7492 15.6822C16.3716 15.0604 17.4581 14.3025 16.0431 13.1647C14.6282 12.0269 14.2321 12.5862 13.5899 13.2284C13.1407 13.6757 12.0066 12.7396 11.0265 11.7602C10.0464 10.7808 9.10966 9.64605 9.55881 9.19753ZM11.7871 21.45C17.5585 21.45 22.2371 16.7714 22.2371 11C22.2371 5.22863 17.5585 0.55 11.7871 0.55C6.01574 0.55 1.33711 5.22863 1.33711 11C1.33711 16.7714 6.01574 21.45 11.7871 21.45ZM11.7871 22C5.71197 22 0.787109 17.0751 0.787109 11C0.787109 4.92486 5.71197 0 11.7871 0C17.8622 0 22.7871 4.92486 22.7871 11C22.7871 17.0751 17.8622 22 11.7871 22Z" fill="white"/>
</svg>
