<svg width="24" height="24" viewBox="0 0 24 24" fill="none" xmlns="http://www.w3.org/2000/svg">
<path fill-rule="evenodd" clip-rule="evenodd" d="M11.9998 3C7.80592 3 4.28247 5.86841 3.28339 9.75012L3.22268 9.98599H4.75011L4.79028 9.85104C5.71491 6.74423 8.59307 4.47902 11.9998 4.47902C14.8924 4.47902 17.4039 6.11193 18.6622 8.50697L16.7674 8.50697V9.98599L20.9999 9.98599V5.75349H19.5209V7.05529C17.9118 4.61265 15.1442 3 11.9998 3ZM7.2325 14.0139H3V18.2465H4.47902V16.9451C6.08818 19.3875 8.85558 20.9999 11.9998 20.9999C16.1937 20.9999 19.7171 18.1315 20.7162 14.2498L20.7769 14.0139H19.2495L19.2093 14.1489C18.2847 17.2557 15.4065 19.5209 11.9998 19.5209C9.10725 19.5209 6.59574 17.888 5.33743 15.493H7.2325V14.0139Z" fill="black"/>
</svg>
