<svg width="32" height="32" viewBox="0 0 32 32" fill="none" xmlns="http://www.w3.org/2000/svg">
<path d="M22.6654 23V21.3333C22.6654 20.4493 22.3142 19.6014 21.6891 18.9763C21.0639 18.3512 20.2161 18 19.332 18H12.6654C11.7813 18 10.9335 18.3512 10.3083 18.9763C9.68322 19.6014 9.33203 20.4493 9.33203 21.3333V23" stroke="#04327A" stroke-width="1.5" stroke-linecap="round" stroke-linejoin="round"/>
<path d="M16.0013 14.6667C17.8423 14.6667 19.3346 13.1743 19.3346 11.3333C19.3346 9.49238 17.8423 8 16.0013 8C14.1604 8 12.668 9.49238 12.668 11.3333C12.668 13.1743 14.1604 14.6667 16.0013 14.6667Z" stroke="#04327A" stroke-width="1.5" stroke-linecap="round" stroke-linejoin="round"/>
<rect x="0.75" y="0.75" width="30.5" height="30.5" rx="15.25" stroke="#04327A" stroke-width="1.5"/>
</svg>
