<?xml version="1.0" encoding="UTF-8"?>
<svg width="24px" height="24px" viewBox="0 0 24 24" version="1.1" xmlns="http://www.w3.org/2000/svg" xmlns:xlink="http://www.w3.org/1999/xlink">
    <!-- Generator: Sketch 49.3 (51167) - http://www.bohemiancoding.com/sketch -->
    <title>icon/07-phone</title>
    <desc>Created with Sketch.</desc>
    <defs>
        <path d="M5.26874889,10.7421752 C4.42476713,9.21205343 4,7.83265855 4,6.78773998 C4,5.94421864 4.16777402,5.53529388 4.5589619,5.17172708 C4.66955836,5.06893963 4.8884801,4.91514809 5.22495602,4.69472993 C5.25523937,4.67491252 5.25523937,4.67491252 5.28554244,4.65515878 C5.4591347,4.54210052 5.94021166,4.2356269 5.97109711,4.2147845 C6.46479547,3.8816224 7.26147987,3.89212015 7.72656191,4.56114732 C7.92628951,4.84845834 8.11778841,5.13487537 8.7033315,6.01714007 C8.70549695,6.02040285 8.70549695,6.02040285 8.70766238,6.02366557 C9.04714016,6.53516663 9.22559265,6.80277326 9.38841519,7.04423757 C10.0230509,7.89082988 9.99408273,8.5549756 9.53095055,9.14527722 C9.49157449,9.19546537 9.36333813,9.34610626 9.34699617,9.36839591 C9.2816426,9.45753507 9.00321419,9.81193294 8.95392102,9.88695796 C8.8539166,10.0391664 8.81718361,10.1688295 8.81718361,10.432486 C8.81718361,10.5646776 9.10031436,11.0154301 9.56804381,11.5805041 C9.66546125,11.6981962 9.77000794,11.8204624 9.88107564,11.9469037 C10.0748911,12.1675464 10.2808015,12.392278 10.5034179,12.6283227 C10.6378079,12.7708191 11.0477133,13.1982865 10.9414307,13.0869545 C11.5674713,13.7427381 13.1621697,15.025508 13.4939932,15.0757084 C13.7736229,15.1180126 14.3309476,14.8036835 14.6617503,14.494493 C15.3557032,13.961712 15.9012438,13.9975352 16.5282475,14.384789 C16.5924791,14.4248875 16.5924791,14.4248875 16.6484658,14.4600422 C16.6882096,14.484782 16.7170039,14.501953 16.7423021,14.5158489 C17.131084,14.7294008 18.8321989,15.7898128 19.3711204,16.1552897 C19.5334053,16.2721612 19.6638041,16.4122353 19.7637287,16.5696459 C19.9483134,16.860421 20.0063543,17.153795 19.9994599,17.3901121 C19.99913,17.3997423 19.99913,17.3997423 19.9988107,17.4058263 L19.9778548,17.5130219 C19.9442918,17.6110034 19.8795779,17.7722207 19.7817283,17.9761199 C19.6198769,18.313386 19.4209984,18.6505993 19.1820576,18.96725 C19.0450703,19.1487891 18.8983575,19.3185636 18.7414544,19.4743223 C18.3874098,19.8257848 17.9073232,20.0099387 17.1042231,20.0099387 C15.9975416,20.0099387 14.9869493,19.6962702 13.0790722,18.6470136 C11.5856571,17.8256946 10.0094585,16.5406782 8.75453625,15.2729954 C7.55079173,14.0990223 6.15639522,12.3514599 5.26874889,10.7421752 Z M5.96924641,10.3557961 C6.81566391,11.8903338 8.16198418,13.5776434 9.31806939,14.7052219 C10.5285422,15.9279189 12.0491188,17.1675888 13.4645815,17.946037 C15.2634456,18.9353408 16.1481873,19.2099477 17.1042231,19.2099477 C17.7027888,19.2099477 17.9789648,19.1040108 18.1778494,18.9065767 C18.3067202,18.7786458 18.4286493,18.6375508 18.5434739,18.4853823 C18.7478732,18.214507 18.9202506,17.9222282 19.0604876,17.6300021 C19.143891,17.4562061 19.1970959,17.3236604 19.2210339,17.2537773 L19.200078,17.360973 C19.1998538,17.3653638 19.1998538,17.3653638 19.1998091,17.3667829 C19.2024517,17.2762023 19.1742749,17.1337792 19.0883299,16.9983907 C19.0421153,16.925589 18.9817127,16.8607047 18.9129431,16.8109798 C18.4025143,16.4650109 16.7218333,15.4173367 16.3571567,15.2170255 C16.3167675,15.1948404 16.2767249,15.1709616 16.225702,15.1392008 C16.165043,15.1011246 16.165043,15.1011246 16.1078683,15.0654262 C15.7385715,14.8373389 15.5453883,14.8246534 15.1797923,15.1027478 C14.7113921,15.5445466 13.978211,15.9580581 13.3743271,15.8666987 C12.7911676,15.7784746 11.1267476,14.4396209 10.3627816,13.6393591 C10.4712045,13.7529332 10.0585014,13.3225481 9.92142684,13.1772052 C9.69280214,12.9347899 9.48074581,12.7033505 9.28003882,12.4748623 C9.16402046,12.3427851 9.05443217,12.2146228 8.95177922,12.0906056 C8.345113,11.3576791 8.0171926,10.8356202 8.0171926,10.432486 C8.0171926,10.0165666 8.09726984,9.73390325 8.2853274,9.44767653 C8.35679833,9.33889658 8.65413608,8.96042995 8.70182716,8.89538159 C8.73907653,8.84457522 8.87911658,8.68006839 8.90155283,8.65147146 C9.14756714,8.33790517 9.15915877,8.07214695 8.73708132,7.50832305 C8.56123584,7.2484479 8.38192691,6.97955697 8.04111509,6.46604587 C8.03894849,6.46278138 8.03894849,6.46278138 8.03678193,6.45951693 C7.45567416,5.58393512 7.26456789,5.29810533 7.06969412,5.01777663 C6.89533424,4.76695744 6.58898785,4.76292077 6.41859258,4.87790848 C6.37727912,4.90578801 5.88791976,5.21753799 5.7221342,5.32551186 C5.69267924,5.34471275 5.69267924,5.34471275 5.66332815,5.3639201 C5.3714517,5.55512211 5.16708859,5.69868628 5.10357474,5.75771552 C4.8800587,5.9654495 4.79999101,6.16060285 4.79999101,6.78773998 C4.79999101,7.68269325 5.18569454,8.93523246 5.96924641,10.3557961 Z" id="path-1"></path>
    </defs>
    <g id="icon/07-phone" stroke="none" stroke-width="1" fill="none" fill-rule="evenodd">
        <rect id="Rectangle" x="0" y="0" width="24" height="24"></rect>
        <mask id="mask-2" fill="white">
            <use xlink:href="#path-1"></use>
        </mask>
        <use id="Path" fill="#000000" xlink:href="#path-1"></use>
        <g id="Color/primary/default" mask="url(#mask-2)" fill="#3278BC">
            <rect id="Color" x="0" y="0" width="24" height="24"></rect>
        </g>
    </g>
</svg>