<?xml version="1.0" encoding="UTF-8"?>
<svg width="24px" height="24px" viewBox="0 0 24 24" version="1.1" xmlns="http://www.w3.org/2000/svg" xmlns:xlink="http://www.w3.org/1999/xlink">
    <!-- Generator: Sketch 49.3 (51167) - http://www.bohemiancoding.com/sketch -->
    <title>icon/08-bars</title>
    <desc>Created with Sketch.</desc>
    <defs>
        <path d="M20.1428776,16.9285851 L20.1428776,17.9285851 C20.1428776,18.2020226 19.8192165,18.4285851 19.428591,18.4285851 L3.71428657,18.4285851 C3.3236611,18.4285851 3,18.2020226 3,17.9285851 L3,16.9285851 C3,16.6551476 3.3236611,16.4285851 3.71428657,16.4285851 L19.428591,16.4285851 C19.8192165,16.4285851 20.1428776,16.6551476 20.1428776,16.9285851 Z M20.1428776,11.2142925 L20.1428776,12.2142925 C20.1428776,12.48773 19.8192165,12.7142925 19.428591,12.7142925 L3.71428657,12.7142925 C3.3236611,12.7142925 3,12.48773 3,12.2142925 L3,11.2142925 C3,10.940855 3.3236611,10.7142925 3.71428657,10.7142925 L19.428591,10.7142925 C19.8192165,10.7142925 20.1428776,10.940855 20.1428776,11.2142925 Z M20.1428776,5.5 L20.1428776,6.5 C20.1428776,6.7734375 19.8192165,7 19.428591,7 L3.71428657,7 C3.3236611,7 3,6.7734375 3,6.5 L3,5.5 C3,5.2265625 3.3236611,5 3.71428657,5 L19.428591,5 C19.8192165,5 20.1428776,5.2265625 20.1428776,5.5 Z" id="path-1"></path>
    </defs>
    <g id="icon/08-bars" stroke="none" stroke-width="1" fill="none" fill-rule="evenodd">
        <rect id="Rectangle" x="0" y="0" width="24" height="24"></rect>
        <mask id="mask-2" fill="white">
            <use xlink:href="#path-1"></use>
        </mask>
        <use id="Bars---FontAwesome" fill="#222222" xlink:href="#path-1"></use>
        <g id="Color/primary/default" mask="url(#mask-2)" fill="#3278BC">
            <rect id="Color" x="0" y="0" width="24" height="24"></rect>
        </g>
    </g>
</svg>