<?xml version="1.0" encoding="UTF-8"?>
<svg width="24px" height="24px" viewBox="0 0 24 24" version="1.1" xmlns="http://www.w3.org/2000/svg" xmlns:xlink="http://www.w3.org/1999/xlink">
    <!-- Generator: Sketch 49.3 (51167) - http://www.bohemiancoding.com/sketch -->
    <title>icon/09-close-noBg</title>
    <desc>Created with Sketch.</desc>
    <defs>
        <path d="M11.6999998,10.2648177 L17.6675816,4.29723594 C18.0638962,3.90092135 18.7064491,3.90092135 19.1027637,4.29723594 C19.4990783,4.69355054 19.4990783,5.33610345 19.1027637,5.73241804 L13.1351819,11.6999998 L19.1027637,17.6675816 C19.4990783,18.0638962 19.4990783,18.7064491 19.1027637,19.1027637 C18.7064491,19.4990783 18.0638962,19.4990783 17.6675816,19.1027637 L11.6999998,13.1351819 L5.73241804,19.1027637 C5.33610345,19.4990783 4.69355054,19.4990783 4.29723594,19.1027637 C3.90092135,18.7064491 3.90092135,18.0638962 4.29723594,17.6675816 L10.2648177,11.6999998 L4.29723594,5.73241804 C3.90092135,5.33610345 3.90092135,4.69355054 4.29723594,4.29723594 C4.69355054,3.90092135 5.33610345,3.90092135 5.73241804,4.29723594 L11.6999998,10.2648177 Z" id="path-1"></path>
    </defs>
    <g id="icon/09-close-noBg" stroke="none" stroke-width="1" fill="none" fill-rule="evenodd">
        <rect id="Rectangle" x="0" y="0" width="24" height="24"></rect>
        <mask id="mask-2" fill="white">
            <use xlink:href="#path-1"></use>
        </mask>
        <g id="Combined-Shape" fill-rule="nonzero" fill="#FFFFFF">
            <use fill-opacity="0.349999994" fill-rule="evenodd" xlink:href="#path-1"></use>
            <use fill-opacity="0.599999964" fill-rule="evenodd" style="mix-blend-mode: overlay;" xlink:href="#path-1"></use>
        </g>
        <g id="Color/primary/default" mask="url(#mask-2)" fill="#3278BC">
            <rect id="Color" x="0" y="0" width="24" height="24"></rect>
        </g>
    </g>
</svg>