<?xml version="1.0" encoding="UTF-8"?>
<svg width="24px" height="24px" viewBox="0 0 24 24" version="1.1" xmlns="http://www.w3.org/2000/svg" xmlns:xlink="http://www.w3.org/1999/xlink">
    <!-- Generator: Sketch 49.3 (51167) - http://www.bohemiancoding.com/sketch -->
    <title>icon/10-photo</title>
    <desc>Created with Sketch.</desc>
    <defs>
        <path d="M20.558,18.7814615 C20.263,19.081 19.9105,19.2307692 19.5,19.2307692 L4.5,19.2307692 C4.09,19.2307692 3.7375,19.081 3.4425,18.7814615 C3.1475,18.4819231 3,18.124 3,17.7076923 L3,8.56923077 C3,8.15292308 3.1475,7.795 3.4425,7.49546154 C3.7375,7.19592308 4.09,7.04615385 4.5,7.04615385 L6.75,7.04615385 L6.93,6.74153846 C7.04,6.52881538 7.21,6.27192308 7.44,5.97238462 C7.67,5.67284615 7.93,5.37330769 8.22,5.07376923 C8.51,4.77423077 8.86,4.52038462 9.27,4.31223077 C9.68,4.10407692 10.09,4 10.5,4 L13.5,4 C13.92,4 14.3375,4.10915385 14.7525,4.32746154 C15.167,4.54526154 15.513,4.78946154 15.788,5.05803077 C16.0625,5.32761538 16.3275,5.63730769 16.5825,5.98710769 C16.8375,6.33843077 17.0025,6.58110769 17.0775,6.7192 C17.1525,6.85576923 17.21,6.96492308 17.25,7.04615385 L19.5,7.04615385 C19.9105,7.04615385 20.263,7.19592308 20.558,7.49546154 C20.8525,7.795 21,8.15292308 21,8.56923077 L21,17.7076923 C21,18.124 20.8525,18.4819231 20.558,18.7814615 C20.558,18.7814615 20.8525,18.4819231 20.558,18.7814615 L20.558,18.7814615 L20.558,18.7814615 Z M12.3458938,9.88461538 C11.3056117,9.88461538 10.4109692,10.2591425 9.66196613,11.0081967 C8.91348321,11.7567308 8.53846154,12.6519546 8.53846154,13.6923077 C8.53846154,14.7326608 8.91348321,15.6268443 9.66196613,16.3764187 C10.4109692,17.1254729 11.3056117,17.5 12.3458938,17.5 C13.3861758,17.5 14.2813385,17.1254729 15.0298214,16.3764187 C15.7788245,15.6268443 16.1538462,14.7326608 16.1538462,13.6923077 C16.1538462,12.6519546 15.7788245,11.7567308 15.0298214,11.0081967 C14.2813385,10.2591425 13.3861758,9.88461538 12.3458938,9.88461538 L12.3458938,9.88461538 L12.3458938,9.88461538 L12.3458938,9.88461538 Z M11.9997823,14.3846154 C11.6161225,14.3846154 11.2895109,14.2492017 11.0199475,13.9796807 C10.7499486,13.7092888 10.6153846,13.3827286 10.6153846,13 C10.6153846,12.6164006 10.7499486,12.2898403 11.0199475,12.0203193 C11.2895109,11.7499274 11.6161225,11.6153846 11.9997823,11.6153846 C12.3830065,11.6153846 12.7096181,11.7499274 12.979617,12.0203193 C13.2491804,12.2898403 13.3846154,12.6164006 13.3846154,13 C13.3846154,13.3827286 13.2491804,13.7092888 12.979617,13.9796807 C12.7096181,14.2492017 12.3830065,14.3846154 11.9997823,14.3846154 L11.9997823,14.3846154 L11.9997823,14.3846154 L11.9997823,14.3846154 Z M16.1538462,10.9230769 L17.8846154,10.9230769 L17.8846154,8.84615385 L16.1538462,8.84615385 L16.1538462,8.84615385 L16.1538462,10.9230769 L16.1538462,10.9230769 Z" id="path-1"></path>
    </defs>
    <g id="icon/10-photo" stroke="none" stroke-width="1" fill="none" fill-rule="evenodd">
        <mask id="mask-2" fill="white">
            <use xlink:href="#path-1"></use>
        </mask>
        <use id="Fill-195" fill="#FFFFFF" xlink:href="#path-1"></use>
        <g id="Color/primary/default" mask="url(#mask-2)" fill="#3278BC">
            <rect id="Color" x="0" y="0" width="24" height="24"></rect>
        </g>
    </g>
</svg>