<?xml version="1.0" encoding="UTF-8"?>
<svg width="24px" height="24px" viewBox="0 0 24 24" version="1.1" xmlns="http://www.w3.org/2000/svg" xmlns:xlink="http://www.w3.org/1999/xlink">
    <!-- Generator: Sketch 49.3 (51167) - http://www.bohemiancoding.com/sketch -->
    <title>icon/12-info</title>
    <desc>Created with Sketch.</desc>
    <defs>
        <path d="M12,4.61538462 C7.90769231,4.61538462 4.61538462,7.90769231 4.61538462,12 C4.61538462,16.0923077 7.90769231,19.3846154 12,19.3846154 C16.0923077,19.3846154 19.3846154,16.0923077 19.3846154,12 C19.3846154,7.90769231 16.0923077,4.61538462 12,4.61538462 Z M12,8.33846154 C12.5230769,8.33846154 12.9230769,8.73846154 12.9230769,9.26153846 C12.9230769,9.78461538 12.5230769,10.1846154 12,10.1846154 C11.4769231,10.1846154 11.0769231,9.78461538 11.0769231,9.26153846 C11.0769231,8.73846154 11.4769231,8.33846154 12,8.33846154 L12,8.33846154 Z M13.5384615,14.8 C13.5384615,14.9538462 13.4153846,15.0769231 13.2307692,15.0769231 L10.7692308,15.0769231 C10.6153846,15.0769231 10.4615385,14.9846154 10.4615385,14.8 L10.4615385,14.1846154 C10.4615385,14.0307692 10.5846154,13.8461538 10.7692308,13.8461538 C10.9230769,13.8461538 11.0769231,13.7538462 11.0769231,13.5692308 L11.0769231,12.3384615 C11.0769231,12.1846154 10.9538462,12 10.7692308,12 C10.6153846,12 10.4615385,11.9076923 10.4615385,11.7230769 L10.4615385,11.1076923 C10.4615385,10.9538462 10.5846154,10.7692308 10.7692308,10.7692308 L12.6153846,10.7692308 C12.7692308,10.7692308 12.9230769,10.9230769 12.9230769,11.1076923 L12.9230769,13.5692308 C12.9230769,13.7230769 13.0461538,13.8461538 13.2307692,13.8461538 C13.3846154,13.8461538 13.5384615,14 13.5384615,14.1846154 L13.5384615,14.8 Z" id="path-1"></path>
    </defs>
    <g id="icon/12-info" stroke="none" stroke-width="1" fill="none" fill-rule="evenodd">
        <mask id="mask-2" fill="white">
            <use xlink:href="#path-1"></use>
        </mask>
        <use id="Mask" fill="#54698D" xlink:href="#path-1"></use>
        <g id="Color/primary/default" mask="url(#mask-2)" fill="#3278BC">
            <rect id="Color" x="0" y="0" width="24" height="24"></rect>
        </g>
    </g>
</svg>