<?xml version="1.0" encoding="UTF-8"?>
<svg width="24px" height="24px" viewBox="0 0 24 24" version="1.1" xmlns="http://www.w3.org/2000/svg" xmlns:xlink="http://www.w3.org/1999/xlink">
    <!-- Generator: Sketch 49.3 (51167) - http://www.bohemiancoding.com/sketch -->
    <title>icon/13-close</title>
    <desc>Created with Sketch.</desc>
    <defs>
        <path d="M12,11.0680636 L8.12494681,7.19301036 C7.86759966,6.93566321 7.4503575,6.93566321 7.19301036,7.19301036 C6.93566321,7.4503575 6.93566321,7.86759966 7.19301036,8.12494681 L11.0680636,12 L7.19301036,15.8750532 C6.93566321,16.1324003 6.93566321,16.5496425 7.19301036,16.8069896 C7.4503575,17.0643368 7.86759966,17.0643368 8.12494681,16.8069896 L12,12.9319364 L15.8750532,16.8069896 C16.1324003,17.0643368 16.5496425,17.0643368 16.8069896,16.8069896 C17.0643368,16.5496425 17.0643368,16.1324003 16.8069896,15.8750532 L12.9319364,12 L16.8069896,8.12494681 C17.0643368,7.86759966 17.0643368,7.4503575 16.8069896,7.19301036 C16.5496425,6.93566321 16.1324003,6.93566321 15.8750532,7.19301036 L12,11.0680636 Z M12,21 C7.02943725,21 3,16.9705627 3,12 C3,7.02943725 7.02943725,3 12,3 C16.9705627,3 21,7.02943725 21,12 C21,16.9705627 16.9705627,21 12,21 Z" id="path-1"></path>
    </defs>
    <g id="icon/13-close" stroke="none" stroke-width="1" fill="none" fill-rule="evenodd">
        <rect id="Rectangle" x="0" y="0" width="24" height="24"></rect>
        <mask id="mask-2" fill="white">
            <use xlink:href="#path-1"></use>
        </mask>
        <use id="Oval-2" fill="#FFFFFF" xlink:href="#path-1"></use>
        <g id="Color/primary/default" mask="url(#mask-2)" fill="#3278BC">
            <rect id="Color" x="0" y="0" width="24" height="24"></rect>
        </g>
    </g>
</svg>