<?xml version="1.0" encoding="UTF-8"?>
<svg width="24px" height="24px" viewBox="0 0 24 24" version="1.1" xmlns="http://www.w3.org/2000/svg" xmlns:xlink="http://www.w3.org/1999/xlink">
    <!-- Generator: Sketch 49.3 (51167) - http://www.bohemiancoding.com/sketch -->
    <title>icon/14-mail</title>
    <desc>Created with Sketch.</desc>
    <defs>
        <path d="M11.6415061,13.6839917 C11.8413107,13.8835759 12.1410177,13.8835759 12.3408223,13.6839917 L19.8667969,6.6985447 C20,6.43243243 19.9666992,6 19.4338869,6 L4.54844152,6.03326403 C4.14883225,6.03326403 3.81582453,6.3991684 4.11553148,6.73180873 L11.6415061,13.6839917 L11.6415061,13.6839917 Z M20,9.42619543 C20,9.09355509 19.6003907,8.89397089 19.3339845,9.12681913 L13.4397478,14.5488565 C13.0401385,14.9147609 12.5406269,15.1143451 12.0078146,15.1143451 C11.4750022,15.1143451 10.9754906,14.9147609 10.5758814,14.5821206 L4.71494539,9.12681913 C4.4485392,8.89397089 4.04892993,9.06029106 4.04892993,9.42619543 C4.01562916,9.32640333 4.01562916,16.977131 4.01562916,16.977131 C4.01562916,17.7089397 4.61504307,18.3076923 5.34766006,18.3076923 L18.6679691,18.3076923 C19.4005861,18.3076923 20,17.7089397 20,16.977131 L20,9.42619543 Z" id="path-1"></path>
    </defs>
    <g id="icon/14-mail" stroke="none" stroke-width="1" fill="none" fill-rule="evenodd">
        <mask id="mask-2" fill="white">
            <use xlink:href="#path-1"></use>
        </mask>
        <use id="Mask" fill="#54698D" xlink:href="#path-1"></use>
        <g id="Color/primary/default" mask="url(#mask-2)" fill="#3278BC">
            <rect id="Color" x="0" y="0" width="24" height="24"></rect>
        </g>
    </g>
</svg>