<?xml version="1.0" encoding="UTF-8"?>
<svg width="24px" height="24px" viewBox="0 0 24 24" version="1.1" xmlns="http://www.w3.org/2000/svg" xmlns:xlink="http://www.w3.org/1999/xlink">
    <!-- Generator: Sketch 49.3 (51167) - http://www.bohemiancoding.com/sketch -->
    <title>icon/15-package</title>
    <desc>Created with Sketch.</desc>
    <defs>
        <path d="M18.4666667,11.3333333 L15.8333333,11.3333333 L14.7333333,12.6666667 L18.3333333,12.6666667 L18.3333333,14.6666667 L6.33333333,14.6666667 L6.33333333,12.6666667 L9.9,12.6666667 L8.8,11.3333333 L6.2,11.3333333 C5.53333333,11.3333333 5,11.8666667 5,12.5333333 L5,19 C5,19.5666667 5.43333333,20 6,20 L18.6666667,20 C19.2333333,20 19.6666667,19.5666667 19.6666667,19 L19.6666667,12.5333333 C19.6666667,11.8666667 19.1333333,11.3333333 18.4666667,11.3333333 Z M11.3333333,4.5 L11.3333333,8.66666667 L9.03333333,8.66666667 C8.7,8.66666667 8.53333333,8.96666667 8.73333333,9.13333333 L12.0666667,13.2333333 C12.2,13.3333333 12.4,13.3333333 12.5333333,13.2333333 L15.8666667,9.13333333 C16.0666667,8.93333333 15.9,8.66666667 15.5666667,8.66666667 L13.3333333,8.66666667 L13.3333333,4.5 C13.3333333,4.23333333 13.1,4 12.8333333,4 L11.8333333,4 C11.5666667,4 11.3333333,4.23333333 11.3333333,4.5 L11.3333333,4.5 Z" id="path-1"></path>
    </defs>
    <g id="icon/15-package" stroke="none" stroke-width="1" fill="none" fill-rule="evenodd">
        <mask id="mask-2" fill="white">
            <use xlink:href="#path-1"></use>
        </mask>
        <use id="Mask" fill="#54698D" xlink:href="#path-1"></use>
        <g id="Color/primary/default" mask="url(#mask-2)" fill="#3278BC">
            <rect id="Color" x="0" y="0" width="24" height="24"></rect>
        </g>
    </g>
</svg>