<?xml version="1.0" encoding="UTF-8"?>
<svg width="24px" height="24px" viewBox="0 0 24 24" version="1.1" xmlns="http://www.w3.org/2000/svg" xmlns:xlink="http://www.w3.org/1999/xlink">
    <!-- Generator: Sketch 49.3 (51167) - http://www.bohemiancoding.com/sketch -->
    <title>icon/16-search</title>
    <desc>Created with Sketch.</desc>
    <defs>
        <path d="M19.6455153,18.3224333 L15.5224384,14.2301256 C16.3532076,13.0608949 16.7839769,11.5839718 16.5685923,10.014741 C16.1993615,7.36858718 14.0455153,5.27627949 11.3685923,5.03012564 C7.73782302,4.66089487 4.66089994,7.73781795 5.03013071,11.3993564 C5.27628456,14.0455103 7.36859225,16.2301256 10.0147461,16.5993564 C11.5839769,16.814741 13.0608999,16.3839718 14.2301307,15.5532026 L18.3224384,19.6455103 C18.5070538,19.8301256 18.7839769,19.8301256 18.9685923,19.6455103 L19.6147461,18.9993564 C19.7993615,18.814741 19.7993615,18.5070487 19.6455153,18.3224333 L19.6455153,18.3224333 Z M6.84551533,10.814741 C6.84551533,8.63012564 8.63013071,6.84551026 10.8147461,6.84551026 C12.9993615,6.84551026 14.7839769,8.63012564 14.7839769,10.814741 C14.7839769,12.9993564 12.9993615,14.7839718 10.8147461,14.7839718 C8.63013071,14.7839718 6.84551533,13.0301256 6.84551533,10.814741 L6.84551533,10.814741 Z" id="path-1"></path>
    </defs>
    <g id="icon/16-search" stroke="none" stroke-width="1" fill="none" fill-rule="evenodd">
        <mask id="mask-2" fill="white">
            <use xlink:href="#path-1"></use>
        </mask>
        <use id="Mask" fill="#54698D" xlink:href="#path-1"></use>
        <g id="Color/primary/default" mask="url(#mask-2)" fill="#3278BC">
            <rect id="Color" x="0" y="0" width="24" height="24"></rect>
        </g>
    </g>
</svg>