<?xml version="1.0" encoding="UTF-8"?>
<svg width="24px" height="24px" viewBox="0 0 24 24" version="1.1" xmlns="http://www.w3.org/2000/svg" xmlns:xlink="http://www.w3.org/1999/xlink">
    <!-- Generator: Sketch 49.3 (51167) - http://www.bohemiancoding.com/sketch -->
    <title>icon/18-delete</title>
    <desc>Created with Sketch.</desc>
    <defs>
        <path d="M14.8385857,6.45964643 L18.2205995,6.45964643 C18.3025878,6.45964643 18.3743274,6.49039201 18.4362285,6.55188317 C18.4973098,6.61337433 18.5280553,6.68511401 18.5280553,6.76710223 L18.5280553,7.38201384 C18.5280553,7.47220087 18.4993595,7.54599026 18.4419677,7.60338201 C18.3849859,7.66077376 18.3107866,7.68946964 18.2205995,7.68946964 L5.3074558,7.68946964 C5.21726877,7.68946964 5.14347937,7.66077376 5.08608762,7.60338201 C5.02910582,7.54599026 5,7.47220087 5,7.38201384 L5,6.76710223 C5,6.68511401 5.03115552,6.61337433 5.09223674,6.55188317 C5.1537279,6.49039201 5.22546759,6.45964643 5.3074558,6.45964643 L8.68946964,6.45964643 L8.68946964,5.22982321 C8.68946964,4.89367153 8.81040225,4.60466308 9.05226749,4.36279785 C9.29413272,4.12134256 9.58314117,4 9.91929285,4 L13.6087625,4 C13.9453241,4 14.2343326,4.12134256 14.4761978,4.36279785 C14.7176531,4.60466308 14.8385857,4.89367153 14.8385857,5.22982321 L14.8385857,6.45964643 L14.8385857,6.45964643 L14.8385857,6.45964643 L14.8385857,6.45964643 Z M6.22982321,8.91929285 L17.2982321,8.91929285 L17.2982321,18.7578786 C17.2982321,19.0940302 17.1772995,19.3850884 16.9358442,19.631053 C16.693979,19.8770177 16.4049705,20 16.0684089,20 L7.45964643,20 C7.12349475,20 6.83448629,19.8770177 6.59262106,19.631053 C6.35075583,19.3850884 6.22982321,19.0940302 6.22982321,18.7578786 L6.22982321,8.91929285 L6.22982321,8.91929285 L6.22982321,8.91929285 L6.22982321,8.91929285 Z M7.45964643,18.7578786 L8.68946964,18.7578786 L8.68946964,10.1491161 L7.45964643,10.1491161 L7.45964643,10.1491161 L7.45964643,18.7578786 L7.45964643,18.7578786 Z M9.91929285,6.45964643 L13.6087625,6.45964643 L13.6087625,5.22982321 L9.91929285,5.22982321 L9.91929285,5.22982321 L9.91929285,6.45964643 L9.91929285,6.45964643 Z M9.91929285,18.7578786 L11.1491161,18.7578786 L11.1491161,10.1491161 L9.91929285,10.1491161 L9.91929285,10.1491161 L9.91929285,18.7578786 L9.91929285,18.7578786 Z M12.3789393,18.7578786 L13.6087625,18.7578786 L13.6087625,10.1491161 L12.3789393,10.1491161 L12.3789393,10.1491161 L12.3789393,18.7578786 L12.3789393,18.7578786 Z M14.8385857,18.7578786 L16.0684089,18.7578786 L16.0684089,10.1491161 L14.8385857,10.1491161 L14.8385857,10.1491161 L14.8385857,18.7578786 L14.8385857,18.7578786 Z" id="path-1"></path>
    </defs>
    <g id="icon/18-delete" stroke="none" stroke-width="1" fill="none" fill-rule="evenodd">
        <mask id="mask-2" fill="white">
            <use xlink:href="#path-1"></use>
        </mask>
        <use id="Fill-26" fill="#231F20" xlink:href="#path-1"></use>
        <g id="Color/primary/default" mask="url(#mask-2)" fill="#3278BC">
            <rect id="Color" x="0" y="0" width="24" height="24"></rect>
        </g>
    </g>
</svg>