<?xml version="1.0" encoding="UTF-8"?>
<svg width="24px" height="24px" viewBox="0 0 24 24" version="1.1" xmlns="http://www.w3.org/2000/svg" xmlns:xlink="http://www.w3.org/1999/xlink">
    <!-- Generator: Sketch 49.3 (51167) - http://www.bohemiancoding.com/sketch -->
    <title>icon/19-view</title>
    <desc>Created with Sketch.</desc>
    <defs>
        <path d="M21,12.4674735 L20.6459909,13.0121029 C20.591528,13.1028744 20.5007564,13.2390318 20.3741301,13.4205749 C20.2465961,13.6025719 20.0242057,13.8903177 19.7069592,14.285174 C19.3888048,14.6800303 19.0511346,15.0680787 18.6921331,15.4493192 C18.3335855,15.8305598 17.8933434,16.2390318 17.371407,16.6747352 C16.8494705,17.1104387 16.3207262,17.4898638 15.785174,17.811649 C15.2500756,18.133888 14.6482602,18.4016641 13.9815431,18.6149773 C13.3139183,18.8282905 12.6540091,18.934947 12,18.934947 C11.3464448,18.934947 10.6865356,18.8282905 10.0189107,18.6149773 C9.35173979,18.4016641 8.75037821,18.133888 8.21482602,17.811649 C7.67927383,17.4898638 7.1505295,17.1104387 6.62859304,16.6747352 C6.10665658,16.2390318 5.66641452,15.8305598 5.30786687,15.4493192 C4.94931921,15.0680787 4.61119516,14.6800303 4.2934947,14.285174 C3.97579425,13.8903177 3.75340393,13.6025719 3.62632375,13.4205749 C3.49969743,13.2390318 3.40892587,13.1028744 3.35446293,13.0121029 L3,12.4674735 L3.35446293,11.9228442 C3.40892587,11.8320726 3.49969743,11.6959153 3.62632375,11.5143722 C3.75340393,11.332829 3.97579425,11.0446293 4.2934947,10.6497731 C4.61119516,10.2549168 4.94931921,9.86686838 5.30786687,9.48562784 C5.66641452,9.10438729 6.10665658,8.69591528 6.62859304,8.2602118 C7.1505295,7.82450832 7.67927383,7.44553707 8.21482602,7.12329803 C8.75037821,6.801059 9.35173979,6.5332829 10.0189107,6.31996974 C10.6865356,6.10665658 11.3464448,6 12,6 C12.6540091,6 13.3139183,6.10665658 13.9815431,6.31996974 C14.6482602,6.5332829 15.2500756,6.801059 15.785174,7.12329803 C16.3207262,7.44553707 16.8494705,7.82450832 17.371407,8.2602118 C17.8933434,8.69591528 18.3335855,9.10438729 18.6921331,9.48562784 C19.0511346,9.86686838 19.3888048,10.2549168 19.7069592,10.6497731 C20.0242057,11.0446293 20.2465961,11.332829 20.3741301,11.5143722 C20.5007564,11.6959153 20.591528,11.8320726 20.6459909,11.9228442 L21,12.4674735 L21,12.4674735 L21,12.4674735 L21,12.4674735 Z M10.2980333,17.0763994 C10.8517398,17.2715582 11.419062,17.3691377 12,17.3691377 C12.580938,17.3691377 13.1414523,17.2783661 13.6815431,17.096823 C14.2216339,16.9152799 14.677761,16.7087746 15.0499244,16.4773071 C15.4220877,16.2458396 15.8101362,15.9213313 16.2140696,15.5037821 C16.618003,15.0866868 16.9198185,14.7435703 17.1199697,14.4757943 C17.3192133,14.2080182 17.5824508,13.8381241 17.9092284,13.366112 C18.2364599,12.8945537 18.4493192,12.5945537 18.5491679,12.4674735 C18.5405446,12.4588502 18.4107413,12.2886536 18.1615734,11.9568835 C17.9114977,11.6255673 17.7208775,11.3759455 17.5897126,11.2080182 C17.4576399,11.0400908 17.2602118,10.7995461 16.9969743,10.4863843 C16.7337368,10.1732224 16.4732224,9.88547655 16.2140696,9.62178517 C15.9553707,9.35854766 15.6898638,9.11346445 15.418003,8.88653555 C15.8623298,9.55824508 16.0847201,10.2980333 16.0847201,11.1059002 C16.0847201,12.2314675 15.6853253,13.193646 14.8869894,13.9924357 C14.0877458,14.7912254 13.1255673,15.1906203 12,15.1906203 C10.8744327,15.1906203 9.91225416,14.7912254 9.11346445,13.9924357 C8.31467474,13.193646 7.91527988,12.2314675 7.91527988,11.1059002 C7.91527988,10.3343419 8.12405446,9.6172466 8.54160363,8.95461422 C7.61573374,9.74432678 6.59001513,10.9152799 5.46444781,12.4674735 C5.5279879,12.5582451 5.7118003,12.8214826 6.01633888,13.2571861 C6.31996974,13.6928896 6.57413011,14.0491679 6.77836611,14.3260212 C6.98305598,14.6028744 7.29122542,14.9546142 7.70423601,15.3812405 C8.11770045,15.8078669 8.51482602,16.1482602 8.89561271,16.4024206 C9.27685325,16.6565809 9.74478064,16.8812405 10.2980333,17.0763994 C10.2980333,17.0763994 9.74478064,16.8812405 10.2980333,17.0763994 L10.2980333,17.0763994 L10.2980333,17.0763994 Z M10.4205749,10.2617247 L8.96369138,11.7049924 C9.40847201,12.8305598 10.107413,13.6974281 11.0605144,14.3055976 L12.4901664,12.8759455 C12.1543116,12.6580938 11.8139183,12.3313162 11.4689864,11.8956127 C11.1240545,11.4599092 10.8653555,11.0786687 10.6928896,10.7518911 L10.4205749,10.2617247 L10.4205749,10.2617247 Z" id="path-1"></path>
    </defs>
    <g id="icon/19-view" stroke="none" stroke-width="1" fill="none" fill-rule="evenodd">
        <mask id="mask-2" fill="white">
            <use xlink:href="#path-1"></use>
        </mask>
        <use id="Fill-103" fill="#231F20" xlink:href="#path-1"></use>
        <g id="Color/primary/default" mask="url(#mask-2)" fill="#3278BC">
            <rect id="Color" x="0" y="0" width="24" height="24"></rect>
        </g>
    </g>
</svg>