<?xml version="1.0" encoding="UTF-8"?>
<svg width="24px" height="24px" viewBox="0 0 24 24" version="1.1" xmlns="http://www.w3.org/2000/svg" xmlns:xlink="http://www.w3.org/1999/xlink">
    <!-- Generator: Sketch 49.3 (51167) - http://www.bohemiancoding.com/sketch -->
    <title>icon/20-sms</title>
    <desc>Created with Sketch.</desc>
    <defs>
        <path d="M11.9940764,5 C7.55746038,5 4.02151078,8.26908548 4.02151078,12.3054053 C4.02151078,13.5730099 4.38844894,14.7738984 4.98889321,15.8413549 C5.08896726,16.008145 5.12232528,16.2082931 5.05560924,16.4084412 L4.02151078,19.2438724 C3.92143673,19.5107366 4.18830085,19.7442427 4.45516497,19.6775266 L7.32395427,18.5767121 C7.49074435,18.5099961 7.69089244,18.5433541 7.89104053,18.6434282 C9.09192907,19.3105885 10.5263237,19.7108846 12.0607924,19.7108846 C16.4306924,19.6775266 20,16.4417992 20,12.3721213 C19.966642,8.26908548 16.3973344,5 11.9940764,5 L11.9940764,5 Z M7.99111457,13.6730839 C7.25723824,13.6730839 6.65679397,13.0726396 6.65679397,12.3387633 C6.65679397,11.604887 7.25723824,11.0044427 7.99111457,11.0044427 C8.7249909,11.0044427 9.32543517,11.604887 9.32543517,12.3387633 C9.32543517,13.0726396 8.7249909,13.6730839 7.99111457,13.6730839 Z M11.9940764,13.6730839 C11.2602,13.6730839 10.6597558,13.0726396 10.6597558,12.3387633 C10.6597558,11.604887 11.2602,11.0044427 11.9940764,11.0044427 C12.7279527,11.0044427 13.328397,11.604887 13.328397,12.3387633 C13.328397,13.0726396 12.7279527,13.6730839 11.9940764,13.6730839 Z M15.9970382,13.6730839 C15.2631619,13.6730839 14.6627176,13.0726396 14.6627176,12.3387633 C14.6627176,11.604887 15.2631619,11.0044427 15.9970382,11.0044427 C16.7309145,11.0044427 17.3313588,11.604887 17.3313588,12.3387633 C17.3313588,13.0726396 16.7309145,13.6730839 15.9970382,13.6730839 Z" id="path-1"></path>
    </defs>
    <g id="icon/20-sms" stroke="none" stroke-width="1" fill="none" fill-rule="evenodd">
        <mask id="mask-2" fill="white">
            <use xlink:href="#path-1"></use>
        </mask>
        <use id="Mask" fill="#54698D" xlink:href="#path-1"></use>
        <g id="Color/primary/default" mask="url(#mask-2)" fill="#3278BC">
            <rect id="Color" x="0" y="0" width="24" height="24"></rect>
        </g>
    </g>
</svg>