<?xml version="1.0" encoding="UTF-8"?>
<svg width="24px" height="24px" viewBox="0 0 24 24" version="1.1" xmlns="http://www.w3.org/2000/svg" xmlns:xlink="http://www.w3.org/1999/xlink">
    <!-- Generator: Sketch 49.3 (51167) - http://www.bohemiancoding.com/sketch -->
    <title>icon/21-autorenew</title>
    <desc>Created with Sketch.</desc>
    <defs>
        <path d="M12.2727273,6.54545455 L12.2727273,9.27272727 L15.9090909,5.63636364 L12.2727273,2 L12.2727273,4.72727273 C8.25454545,4.72727273 5,7.98181818 5,12 C5,13.4272727 5.41818182,14.7545455 6.12727273,15.8727273 L7.45454545,14.5454545 C7.04545455,13.7909091 6.81818182,12.9181818 6.81818182,12 C6.81818182,8.99090909 9.26363636,6.54545455 12.2727273,6.54545455 L12.2727273,6.54545455 Z M18.4181818,8.12727273 L17.0909091,9.45454545 C17.4909091,10.2181818 17.7272727,11.0818182 17.7272727,12 C17.7272727,15.0090909 15.2818182,17.4545455 12.2727273,17.4545455 L12.2727273,14.7272727 L8.63636364,18.3636364 L12.2727273,22 L12.2727273,19.2727273 C16.2909091,19.2727273 19.5454545,16.0181818 19.5454545,12 C19.5454545,10.5727273 19.1272727,9.24545455 18.4181818,8.12727273 L18.4181818,8.12727273 Z" id="path-1"></path>
    </defs>
    <g id="icon/21-autorenew" stroke="none" stroke-width="1" fill="none" fill-rule="evenodd">
        <mask id="mask-2" fill="white">
            <use xlink:href="#path-1"></use>
        </mask>
        <g id="Mask"></g>
        <g id="Color/primary/default" mask="url(#mask-2)" fill="#3278BC">
            <rect id="Color" x="0" y="0" width="24" height="24"></rect>
        </g>
    </g>
</svg>