<?xml version="1.0" encoding="UTF-8"?>
<svg width="24px" height="24px" viewBox="0 0 24 24" version="1.1" xmlns="http://www.w3.org/2000/svg" xmlns:xlink="http://www.w3.org/1999/xlink">
    <!-- Generator: Sketch 49.3 (51167) - http://www.bohemiancoding.com/sketch -->
    <title>icon/22-event</title>
    <desc>Created with Sketch.</desc>
    <defs>
        <path d="M18.0769231,10.5384615 L5.46153846,10.5384615 C5.21538462,10.5384615 5,10.7538462 5,11 L5,18.5384615 C5,19.2153846 5.55384615,19.7692308 6.23076923,19.7692308 L17.3076923,19.7692308 C17.9846154,19.7692308 18.5384615,19.2153846 18.5384615,18.5384615 L18.5384615,11 C18.5384615,10.7538462 18.3230769,10.5384615 18.0769231,10.5384615 Z M9.61538462,17.3076923 C9.61538462,17.4923077 9.49230769,17.6153846 9.30769231,17.6153846 L8.07692308,17.6153846 C7.89230769,17.6153846 7.76923077,17.4923077 7.76923077,17.3076923 L7.76923077,16.0769231 C7.76923077,15.8923077 7.89230769,15.7692308 8.07692308,15.7692308 L9.30769231,15.7692308 C9.49230769,15.7692308 9.61538462,15.8923077 9.61538462,16.0769231 L9.61538462,17.3076923 Z M9.61538462,14.2307692 C9.61538462,14.4153846 9.49230769,14.5384615 9.30769231,14.5384615 L8.07692308,14.5384615 C7.89230769,14.5384615 7.76923077,14.4153846 7.76923077,14.2307692 L7.76923077,13 C7.76923077,12.8153846 7.89230769,12.6923077 8.07692308,12.6923077 L9.30769231,12.6923077 C9.49230769,12.6923077 9.61538462,12.8153846 9.61538462,13 L9.61538462,14.2307692 Z M12.6923077,17.3076923 C12.6923077,17.4923077 12.5692308,17.6153846 12.3846154,17.6153846 L11.1538462,17.6153846 C10.9692308,17.6153846 10.8461538,17.4923077 10.8461538,17.3076923 L10.8461538,16.0769231 C10.8461538,15.8923077 10.9692308,15.7692308 11.1538462,15.7692308 L12.3846154,15.7692308 C12.5692308,15.7692308 12.6923077,15.8923077 12.6923077,16.0769231 L12.6923077,17.3076923 Z M12.6923077,14.2307692 C12.6923077,14.4153846 12.5692308,14.5384615 12.3846154,14.5384615 L11.1538462,14.5384615 C10.9692308,14.5384615 10.8461538,14.4153846 10.8461538,14.2307692 L10.8461538,13 C10.8461538,12.8153846 10.9692308,12.6923077 11.1538462,12.6923077 L12.3846154,12.6923077 C12.5692308,12.6923077 12.6923077,12.8153846 12.6923077,13 L12.6923077,14.2307692 Z M15.7692308,17.3076923 C15.7692308,17.4923077 15.6461538,17.6153846 15.4615385,17.6153846 L14.2307692,17.6153846 C14.0461538,17.6153846 13.9230769,17.4923077 13.9230769,17.3076923 L13.9230769,16.0769231 C13.9230769,15.8923077 14.0461538,15.7692308 14.2307692,15.7692308 L15.4615385,15.7692308 C15.6461538,15.7692308 15.7692308,15.8923077 15.7692308,16.0769231 L15.7692308,17.3076923 Z M15.7692308,14.2307692 C15.7692308,14.4153846 15.6461538,14.5384615 15.4615385,14.5384615 L14.2307692,14.5384615 C14.0461538,14.5384615 13.9230769,14.4153846 13.9230769,14.2307692 L13.9230769,13 C13.9230769,12.8153846 14.0461538,12.6923077 14.2307692,12.6923077 L15.4615385,12.6923077 C15.6461538,12.6923077 15.7692308,12.8153846 15.7692308,13 L15.7692308,14.2307692 Z M17.3076923,6.53846154 L15.7692308,6.53846154 L15.7692308,5.92307692 C15.7692308,5.43076923 15.3692308,5 14.8461538,5 C14.3538462,5 13.9230769,5.4 13.9230769,5.92307692 L13.9230769,6.53846154 L9.61538462,6.53846154 L9.61538462,5.92307692 C9.61538462,5.43076923 9.21538462,5 8.69230769,5 C8.2,5 7.76923077,5.4 7.76923077,5.92307692 L7.76923077,6.53846154 L6.23076923,6.53846154 C5.55384615,6.53846154 5,7.09230769 5,7.76923077 L5,8.53846154 C5,8.78461538 5.21538462,9 5.46153846,9 L18.0769231,9 C18.3230769,9 18.5384615,8.78461538 18.5384615,8.53846154 L18.5384615,7.76923077 C18.5384615,7.09230769 17.9846154,6.53846154 17.3076923,6.53846154 Z" id="path-1"></path>
    </defs>
    <g id="icon/22-event" stroke="none" stroke-width="1" fill="none" fill-rule="evenodd">
        <mask id="mask-2" fill="white">
            <use xlink:href="#path-1"></use>
        </mask>
        <use id="Mask" fill="#54698D" xlink:href="#path-1"></use>
        <g id="Color/primary/default" mask="url(#mask-2)" fill="#3278BC">
            <rect id="Color" x="0" y="0" width="24" height="24"></rect>
        </g>
    </g>
</svg>