<?xml version="1.0" encoding="UTF-8"?>
<svg width="24px" height="24px" viewBox="0 0 24 24" version="1.1" xmlns="http://www.w3.org/2000/svg" xmlns:xlink="http://www.w3.org/1999/xlink">
    <!-- Generator: Sketch 49.3 (51167) - http://www.bohemiancoding.com/sketch -->
    <title>icon/23-documents</title>
    <desc>Created with Sketch.</desc>
    <defs>
        <path d="M17.7272727,4 L9.45454545,4 C8.75454545,4 8.18181818,4.57272727 8.18181818,5.27272727 L8.18181818,5.90909091 L15.8181818,5.90909091 C16.5181818,5.90909091 17.0909091,6.48181818 17.0909091,7.18181818 L17.0909091,16.0909091 L17.7272727,16.0909091 C18.4272727,16.0909091 19,15.5181818 19,14.8181818 L19,5.27272727 C19,4.57272727 18.4272727,4 17.7272727,4 Z M15.8181818,8.45454545 C15.8181818,7.75454545 15.2454545,7.18181818 14.5454545,7.18181818 L6.27272727,7.18181818 C5.57272727,7.18181818 5,7.75454545 5,8.45454545 L5,18 C5,18.7 5.57272727,19.2727273 6.27272727,19.2727273 L14.5454545,19.2727273 C15.2454545,19.2727273 15.8181818,18.7 15.8181818,18 L15.8181818,8.45454545 Z M10.0909091,10.6818182 C10.0909091,10.8727273 9.96363636,11 9.77272727,11 L7.22727273,11 C7.03636364,11 6.90909091,10.8727273 6.90909091,10.6818182 L6.90909091,10.0454545 C6.90909091,9.85454545 7.03636364,9.72727273 7.22727273,9.72727273 L9.77272727,9.72727273 C9.96363636,9.72727273 10.0909091,9.85454545 10.0909091,10.0454545 L10.0909091,10.6818182 Z M12.6363636,15.7727273 C12.6363636,15.9636364 12.5090909,16.0909091 12.3181818,16.0909091 L7.22727273,16.0909091 C7.03636364,16.0909091 6.90909091,15.9636364 6.90909091,15.7727273 L6.90909091,15.1363636 C6.90909091,14.9454545 7.03636364,14.8181818 7.22727273,14.8181818 L12.3181818,14.8181818 C12.5090909,14.8181818 12.6363636,14.9454545 12.6363636,15.1363636 L12.6363636,15.7727273 Z M13.9090909,13.2272727 C13.9090909,13.4181818 13.7818182,13.5454545 13.5909091,13.5454545 L7.22727273,13.5454545 C7.03636364,13.5454545 6.90909091,13.4181818 6.90909091,13.2272727 L6.90909091,12.5909091 C6.90909091,12.4 7.03636364,12.2727273 7.22727273,12.2727273 L13.5909091,12.2727273 C13.7818182,12.2727273 13.9090909,12.4 13.9090909,12.5909091 L13.9090909,13.2272727 Z" id="path-1"></path>
    </defs>
    <g id="icon/23-documents" stroke="none" stroke-width="1" fill="none" fill-rule="evenodd">
        <mask id="mask-2" fill="white">
            <use xlink:href="#path-1"></use>
        </mask>
        <use id="Mask" fill="#54698D" xlink:href="#path-1"></use>
        <g id="Color/primary/default" mask="url(#mask-2)" fill="#3278BC">
            <rect id="Color" x="0" y="0" width="24" height="24"></rect>
        </g>
    </g>
</svg>