<?xml version="1.0" encoding="UTF-8"?>
<svg width="24px" height="24px" viewBox="0 0 24 24" version="1.1" xmlns="http://www.w3.org/2000/svg" xmlns:xlink="http://www.w3.org/1999/xlink">
    <!-- Generator: Sketch 49.3 (51167) - http://www.bohemiancoding.com/sketch -->
    <title>icon/24-description</title>
    <desc>Created with Sketch.</desc>
    <defs>
        <path d="M14,4 L7.6,4 C6.72,4 6.008,4.72 6.008,5.6 L6,18.4 C6,19.28 6.712,20 7.592,20 L17.2,20 C18.08,20 18.8,19.28 18.8,18.4 L18.8,8.8 L14,4 L14,4 Z M15.6,16.8 L9.2,16.8 L9.2,15.2 L15.6,15.2 L15.6,16.8 L15.6,16.8 Z M15.6,13.6 L9.2,13.6 L9.2,12 L15.6,12 L15.6,13.6 L15.6,13.6 Z M13.2,9.6 L13.2,5.2 L17.6,9.6 L13.2,9.6 L13.2,9.6 Z" id="path-1"></path>
    </defs>
    <g id="icon/24-description" stroke="none" stroke-width="1" fill="none" fill-rule="evenodd">
        <mask id="mask-2" fill="white">
            <use xlink:href="#path-1"></use>
        </mask>
        <g id="Mask"></g>
        <g id="Color/primary/default" mask="url(#mask-2)" fill="#3278BC">
            <rect id="Color" x="0" y="0" width="24" height="24"></rect>
        </g>
    </g>
</svg>