<?xml version="1.0" encoding="UTF-8"?>
<svg width="24px" height="24px" viewBox="0 0 24 24" version="1.1" xmlns="http://www.w3.org/2000/svg" xmlns:xlink="http://www.w3.org/1999/xlink">
    <!-- Generator: Sketch 49.3 (51167) - http://www.bohemiancoding.com/sketch -->
    <title>icon/25-info-fine</title>
    <desc>Created with Sketch.</desc>
    <defs>
        <path d="M12,19.9607146 C7.61044789,19.9607146 4.03928541,16.3895521 4.03928541,12 C4.03928541,7.61044789 7.61044789,4.03928541 12,4.03928541 C16.3895521,4.03928541 19.9607146,7.61044789 19.9607146,12 C19.9607146,16.3895521 16.3895521,19.9607146 12,19.9607146 M18.3639827,5.63601727 C20.0638388,7.33591567 21,9.59601219 21,12 C21,14.4039878 20.0638388,16.6640843 18.3639827,18.3639404 C16.6640843,20.0638811 14.4040301,21 12,21 C9.59601219,21 7.33591567,20.0638811 5.63601727,18.3639404 C3.93616121,16.6640843 3,14.4039878 3,12 C3,9.59601219 3.93616121,7.33591567 5.63601727,5.63601727 C7.33591567,3.93616121 9.59601219,3 12,3 C14.4040301,3 16.6640843,3.93616121 18.3639827,5.63601727 Z M12.0756525,10.3548727 C11.6197216,10.3548727 11.2501508,10.7244435 11.2501508,11.1803744 L11.2501508,15.9335282 C11.2501508,16.3894168 11.6197216,16.7590299 12.0756525,16.7590299 C12.5315834,16.7590299 12.9011541,16.3894168 12.9011541,15.9335282 L12.9011541,11.1803744 C12.9011541,10.7244435 12.5315834,10.3548727 12.0756525,10.3548727 Z M12.0756525,7.18222436 C11.4262155,7.18222436 10.8997571,7.70872508 10.8997571,8.35816205 C10.8997571,9.00759901 11.4262155,9.53409973 12.0756525,9.53409973 C12.7250894,9.53409973 13.2515902,9.00759901 13.2515902,8.35816205 C13.2515902,7.70872508 12.7250894,7.18222436 12.0756525,7.18222436 Z" id="path-1"></path>
    </defs>
    <g id="icon/25-info-fine" stroke="none" stroke-width="1" fill="none" fill-rule="evenodd">
        <mask id="mask-2" fill="white">
            <use xlink:href="#path-1"></use>
        </mask>
        <use id="Fill-1" fill="#1E1E1E" xlink:href="#path-1"></use>
        <g id="Color/primary/default" mask="url(#mask-2)" fill="#3278BC">
            <rect id="Color" x="0" y="0" width="24" height="24"></rect>
        </g>
    </g>
</svg>