<?xml version="1.0" encoding="UTF-8"?>
<svg width="24px" height="24px" viewBox="0 0 24 24" version="1.1" xmlns="http://www.w3.org/2000/svg" xmlns:xlink="http://www.w3.org/1999/xlink">
    <!-- Generator: Sketch 49.3 (51167) - http://www.bohemiancoding.com/sketch -->
    <title>icon/27-search-money</title>
    <desc>Created with Sketch.</desc>
    <defs>
        <path d="M18.9492312,20.061731 L15.2278334,16.3403332 L16.3639577,15.2407195 L20.0665633,18.943862 L18.9492312,20.061731 Z M10.4658832,17.1591373 C6.77562678,17.1591373 3.77262897,14.1566765 3.77262897,10.4664201 C3.77262897,6.77562678 6.77562678,3.77370281 10.4658832,3.77370281 C14.1561395,3.77370281 17.1591373,6.77562678 17.1591373,10.4664201 C17.1591373,14.1566765 14.1561395,17.1591373 10.4658832,17.1591373 Z M20.8864413,18.6705693 C21.0378529,18.821444 21.0378529,19.0662799 20.8864413,19.2176915 L19.2225238,20.881609 C19.1500395,20.9540933 19.051783,20.9948993 18.9492312,20.9948993 C18.8466793,20.9948993 18.7484228,20.9540933 18.6759385,20.881609 L14.5212457,16.7269161 C13.3518322,17.486659 11.9612075,17.9328402 10.4658832,17.9328402 C6.34877478,17.9328402 3,14.5829915 3,10.4664201 C3,6.3493117 6.34877478,3 10.4658832,3 C14.5829915,3 17.9317663,6.3493117 17.9317663,10.4664201 C17.9317663,11.9585229 17.4871959,13.347 16.7301377,14.5142657 L20.8864413,18.6705693 Z M10.7198055,10.3900827 C10.7085677,10.3900827 10.6989353,10.3900827 10.6876975,10.3900827 C9.77743552,10.3900827 9.09728095,10.1215151 8.86717358,9.67018772 C8.75640096,9.45399634 8.77406036,9.21495999 8.91533558,8.9987686 C9.15186455,8.63547793 9.78813819,8.29113186 10.8557294,8.41650057 C11.3699926,8.47667756 11.8954936,8.65943728 12.5034051,8.87005672 L12.6157832,8.90906032 C12.8790688,9.00099738 13.156803,8.8533409 13.2429595,8.58198728 C13.329116,8.31230524 13.1883759,8.01977824 12.9288362,7.92951277 L12.8175285,7.89106636 C12.2572438,7.69716275 11.7242509,7.51774619 11.1816256,7.42692352 L11.1816256,6.13869032 C11.1816256,5.85396404 10.9595452,5.62217122 10.6860921,5.62217122 C10.4126389,5.62217122 10.1905585,5.85396404 10.1905585,6.13869032 L10.1905585,7.37176128 C9.26317231,7.42692352 8.50328285,7.79300016 8.09497606,8.41817216 C7.74713934,8.9508499 7.70914486,9.59998124 7.99169531,10.1549468 C8.40267777,10.9606497 9.38518272,11.4225638 10.6876975,11.4225638 L10.7203406,11.4225638 C11.6049161,11.4225638 12.2706221,11.692803 12.5017997,12.1469163 C12.6163183,12.3709084 12.6002643,12.6144023 12.4579188,12.8328225 C12.226206,13.1866409 11.5984945,13.5170571 10.5490979,13.3967031 C10.0385806,13.3365261 9.51843095,13.1559952 8.91587072,12.9470473 L8.79171977,12.9041434 C8.53325032,12.8138779 8.25230528,12.9609772 8.16561367,13.2312164 C8.07945719,13.5014557 8.21966214,13.7939827 8.47973698,13.8836909 L8.60228254,13.9265949 C9.14597809,14.1149266 9.6634521,14.2887712 10.1905585,14.380151 L10.1905585,15.6745134 C10.1905585,15.9592397 10.4126389,16.1910325 10.6860921,16.1910325 C10.9595452,16.1910325 11.1816256,15.9592397 11.1816256,15.6745134 L11.1816256,14.4347561 C12.1100821,14.385723 12.8715769,14.0341334 13.2772081,13.413419 C13.6271853,12.8796268 13.6641095,12.2249235 13.377278,11.6627145 C12.9652253,10.8536684 11.9971689,10.3900827 10.7198055,10.3900827 Z" id="path-1"></path>
    </defs>
    <g id="icon/27-search-money" stroke="none" stroke-width="1" fill="none" fill-rule="evenodd">
        <mask id="mask-2" fill="white">
            <use xlink:href="#path-1"></use>
        </mask>
        <use id="Fill-1" fill="#000000" xlink:href="#path-1"></use>
        <g id="Color/primary/default" mask="url(#mask-2)" fill="#3278BC">
            <rect id="Color" x="0" y="0" width="24" height="24"></rect>
        </g>
    </g>
</svg>