<?xml version="1.0" encoding="UTF-8"?>
<svg width="24px" height="24px" viewBox="0 0 24 24" version="1.1" xmlns="http://www.w3.org/2000/svg" xmlns:xlink="http://www.w3.org/1999/xlink">
    <!-- Generator: Sketch 49.3 (51167) - http://www.bohemiancoding.com/sketch -->
    <title>icon/28-write-document</title>
    <desc>Created with Sketch.</desc>
    <defs>
        <path d="M19.6653516,13.8481401 C19.6410428,13.9982786 19.5604637,14.1717686 19.4935396,14.2940648 L13.7889315,13.3700322 C13.709703,13.239503 13.6325751,13.1017888 13.5597989,12.9565901 C13.4264007,12.6907417 13.2700443,12.4810269 13.1013835,12.3169673 L19.6419431,13.3939825 C19.6659518,13.5150812 19.6904106,13.6942594 19.6653516,13.8481401 Z M6.86327874,7.6540686 C6.72979219,7.6540686 6.62142896,7.54728635 6.62142896,7.41559819 C6.62142896,7.2842083 6.72979219,7.17742605 6.86327874,7.17742605 L14.7206724,7.17742605 C14.8543103,7.17742605 14.9626735,7.2842083 14.9626735,7.41559819 C14.9626735,7.54728635 14.8543103,7.6540686 14.7206724,7.6540686 L6.86327874,7.6540686 Z M11.6261757,9.32224296 C11.6261757,9.45388993 11.5180401,9.56063878 11.3848339,9.56063878 L6.86277078,9.56063878 C6.7295646,9.56063878 6.62142896,9.45388993 6.62142896,9.32224296 C6.62142896,9.19074508 6.7295646,9.08399623 6.86277078,9.08399623 L11.3848339,9.08399623 C11.5180401,9.08399623 11.6261757,9.19074508 11.6261757,9.32224296 Z M15.1191614,14.9115336 C14.8667704,14.703615 14.5160939,14.3672629 14.1694688,13.9163985 L15.1191614,14.0701295 L15.1191614,14.9115336 Z M9.95204731,11.3132999 C9.94514482,11.2903974 9.94604514,11.2692912 9.95054677,11.2577651 C9.95774937,11.2401018 9.973355,11.217349 10.0080175,11.2095652 L13.5991131,10.4268393 C14.0107115,10.3377741 14.4481193,10.4180076 14.7999963,10.6473318 L17.6682811,12.5168026 C17.7033937,12.5398548 17.7292031,12.5714393 17.7593639,12.5989821 L9.95204731,11.3132999 Z M11.3943677,13.5101415 C11.5000058,13.8258364 11.6029429,14.2157773 11.6875734,14.6995734 C11.7621503,15.1245416 11.8922473,15.5707657 12.0498041,16.0124991 L12.1446383,16.8781528 L12.1456887,16.8935708 C12.1572429,17.0778385 12.0128908,17.1401093 11.9683247,17.1547788 C11.9239087,17.1697478 11.7704033,17.2056732 11.669717,17.050595 L10.9965741,16.0184866 C10.8345157,15.7703016 10.76339,15.4712222 10.796552,15.1763341 L10.9983748,13.3870968 L11.09606,13.4035626 L11.3943677,13.5101415 Z M10.9104431,12.4934511 C10.9763168,12.5847616 11.0646987,12.7254697 11.1620839,12.9294963 L9.05517375,12.5756306 L8.05596326,11.9514258 L9.20027609,11.6745004 L10.9219972,11.9580121 C10.896338,11.9904947 10.8751803,12.0268692 10.8589745,12.0665369 C10.8012037,12.2087419 10.8202605,12.3681611 10.9104431,12.4934511 Z M13.4729175,18.9820373 L4.47942296,18.9820373 L4.47942296,4.06683631 L7.40892983,4.06683631 L7.40892983,5.2978819 C7.40892983,5.43005763 7.51636859,5.53723524 7.64871634,5.53723524 L13.790282,5.53723524 C13.9226298,5.53723524 14.0300685,5.43005763 14.0300685,5.2978819 L14.0300685,4.06683631 L16.9597255,4.06683631 L16.9597255,11.4834967 L15.0622909,10.2466133 C14.6035754,9.94768356 14.0338199,9.84140409 13.4967761,9.95950902 L9.90553053,10.7423846 C9.72366492,10.7819026 9.57406094,10.9082404 9.50533615,11.0803832 C9.48492879,11.1311279 9.48267798,11.1835192 9.48057722,11.2359105 L9.23028692,11.1945962 C9.19877555,11.188908 9.1659137,11.1905546 9.13470244,11.1983384 L7.71774124,11.5412769 C7.56783716,11.577352 7.45514651,11.6988998 7.43053763,11.8505351 C7.4057787,12.0023202 7.47420338,12.152758 7.60475048,12.2343387 L8.84089644,13.0064366 C8.86775613,13.0229025 8.89746685,13.0344286 8.92822795,13.039518 L10.5245038,13.3076117 L10.31998,15.1230447 C10.2743636,15.5279545 10.3720488,15.9388519 10.5944291,16.2795449 L11.2675719,17.3115036 C11.4081726,17.526757 11.6379055,17.6478557 11.8817435,17.6478557 C11.9602218,17.6478557 12.0405008,17.6351321 12.1191291,17.6089365 C12.3188512,17.5430731 12.4639535,17.3990719 12.5473836,17.22169 C12.8854556,17.9512761 13.2394333,18.5844622 13.4729175,18.9820373 Z M7.88850285,5.05882793 L13.5503455,5.05882793 L13.5503455,3.47855699 L7.88850285,3.47855699 L7.88850285,5.05882793 Z M20.0674966,13.1146621 C20.0409371,13.0273932 19.9672605,12.9625777 19.8770779,12.9476087 L18.4142002,12.7067585 C18.3177154,12.468902 18.1535562,12.2617319 17.9305757,12.1163835 L17.4394485,11.7961979 L17.4394485,3.82778235 C17.4394485,3.69575631 17.3320098,3.5885787 17.199512,3.5885787 L14.0300685,3.5885787 L14.0300685,3.23935334 C14.0300685,3.10717761 13.9226298,3 13.790282,3 L7.64871634,3 C7.51636859,3 7.40892983,3.10717761 7.40892983,3.23935334 L7.40892983,3.5885787 L4.23963645,3.5885787 C4.10728871,3.5885787 4,3.69575631 4,3.82778235 L4,19.2212409 C4,19.353267 4.10728871,19.4604446 4.23963645,19.4604446 L13.6909462,19.4604446 L13.6909462,20.760946 C13.6909462,20.8929721 13.7983849,21 13.9307327,21 C14.0632305,21 14.1705192,20.8929721 14.1705192,20.760946 L14.1705192,19.342639 C14.1858247,19.2803682 14.175621,19.2134571 14.1399082,19.1576229 C14.1237023,19.1318764 12.5032677,16.5742834 12.160244,14.6175436 C11.9545197,13.4435297 11.6442078,12.7479231 11.3906163,12.3488511 C11.9102538,12.2699648 12.5161724,12.2894244 12.9526798,12.8783025 C13.0018976,12.9462615 13.047364,13.0246988 13.09163,13.1061298 C13.1042345,13.1291819 13.1186397,13.1463962 13.1307941,13.1706459 C13.161105,13.2312701 13.1956175,13.2824639 13.2271289,13.3406931 C13.2966039,13.4688272 13.3656288,13.5987576 13.4390053,13.715665 C13.4391553,13.7161141 13.4396055,13.7162638 13.4399056,13.7167128 C14.2233383,14.9615298 15.1875861,15.5629818 15.2336527,15.5912731 C15.3074794,15.6355812 15.4005129,15.6372278 15.4759902,15.5959135 C15.5519176,15.5535514 15.5987345,15.4736172 15.5987345,15.3870968 L15.5987345,14.147968 L18.0404153,14.543597 L18.0404153,20.760946 C18.0404153,20.8929721 18.1478541,21 18.2803519,21 C18.4126996,21 18.5201384,20.8929721 18.5201384,20.760946 L18.5201384,14.6211361 L19.5777199,14.7925305 C19.5903245,14.7946262 19.6032291,14.795674 19.6159837,14.795674 C19.6953624,14.795674 19.7705395,14.7563057 19.8152556,14.6893945 C19.8262096,14.6732281 20.0784506,14.2933164 20.1387724,13.9244817 C20.198644,13.5537011 20.0728986,13.1323254 20.0674966,13.1146621 Z" id="path-1"></path>
    </defs>
    <g id="icon/28-write-document" stroke="none" stroke-width="1" fill="none" fill-rule="evenodd">
        <mask id="mask-2" fill="white">
            <use xlink:href="#path-1"></use>
        </mask>
        <use id="Fill-5" fill="#000000" xlink:href="#path-1"></use>
        <g id="Color/primary/default" mask="url(#mask-2)" fill="#3278BC">
            <rect id="Color" x="0" y="0" width="24" height="24"></rect>
        </g>
    </g>
</svg>