<?xml version="1.0" encoding="UTF-8"?>
<svg width="24px" height="24px" viewBox="0 0 24 24" version="1.1" xmlns="http://www.w3.org/2000/svg" xmlns:xlink="http://www.w3.org/1999/xlink">
    <!-- Generator: Sketch 49.3 (51167) - http://www.bohemiancoding.com/sketch -->
    <title>icon/29-prove</title>
    <desc>Created with Sketch.</desc>
    <defs>
        <path d="M17.6148131,20.1938686 L8.38632094,20.1938686 C9.18467241,19.6410131 9.73929895,18.7639446 9.8317621,17.7501744 L20.3672292,17.7501744 C20.2138348,19.1227866 19.037862,20.1938686 17.6148131,20.1938686 M11.3336395,3.00493261 C11.3367824,3.0048196 11.3399376,3.00476267 11.3431045,3.00476267 L14.1997903,3.00476267 C14.20296,3.00476267 14.2061179,3.0048196 14.2092634,3.00493261 L14.4974476,3.00493261 L14.4974476,3.69166425 L11.0454471,3.69166425 L11.0454471,3.00493261 L11.3336395,3.00493261 Z M6.51295902,3.00493261 C6.51610189,3.0048196 6.5192571,3.00476267 6.52242394,3.00476267 L9.3795516,3.00476267 C9.38271844,3.00476267 9.38587366,3.0048196 9.38901652,3.00493261 L9.67720895,3.00493261 L9.67720895,3.69166425 L6.22476659,3.69166425 L6.22476659,3.00493261 L6.51295902,3.00493261 Z M20.6921449,17.1389484 C20.8622954,17.1389484 21,17.2756502 21,17.4445614 C21,19.2974442 19.481289,20.8050946 17.6148131,20.8050946 L6.38518694,20.8050946 C4.51871097,20.8050946 3,19.2974442 3,17.4445614 L3,3.30561299 C3,3.1367017 3.13770459,3 3.30785505,3 L4.84697798,3 C5.01712845,3 5.15483303,3.1367017 5.15483303,3.30561299 C5.15483303,3.47452428 5.01712845,3.61122599 4.84697798,3.61122599 L3.6157101,3.61122599 L3.6157101,17.4445614 C3.6157101,18.9605289 4.85809793,20.1938686 6.38518694,20.1938686 L6.46028468,20.1938686 C7.98752602,20.1938686 9.22991385,18.9605289 9.22991385,17.4445614 C9.22991385,17.2756502 9.36761844,17.1389484 9.5377689,17.1389484 L17.306958,17.1389484 L17.306958,3.61122599 L16.0756901,3.61122599 C15.9055397,3.61122599 15.7678351,3.47452428 15.7678351,3.30561299 C15.7678351,3.1367017 15.9055397,3 16.0756901,3 L17.6148131,3 C17.7849635,3 17.9226681,3.1367017 17.9226681,3.30561299 L17.9226681,17.1389484 L20.6921449,17.1389484 Z M6.13871991,13.4409537 C5.96940725,13.4409537 5.83238072,13.3142617 5.83238072,13.1577187 C5.83238072,13.0011756 5.96940725,12.8744837 6.13871991,12.8744837 L14.8727974,12.8744837 C15.04211,12.8744837 15.1791366,13.0011756 15.1791366,13.1577187 C15.1791366,13.3142617 15.04211,13.4409537 14.8727974,13.4409537 L6.13871991,13.4409537 Z M6.13886294,15.9900689 C5.96947123,15.9900689 5.83238072,15.863377 5.83238072,15.7068339 C5.83238072,15.5502908 5.96947123,15.4235989 6.13886294,15.4235989 L13.1732442,15.4235989 C13.3426359,15.4235989 13.4797264,15.5502908 13.4797264,15.7068339 C13.4797264,15.863377 13.3426359,15.9900689 13.1732442,15.9900689 L6.13886294,15.9900689 Z M9.23752464,6.12163523 C9.37343507,5.98932227 9.53741569,5.8781733 9.72518459,5.79108123 C9.89408145,5.71297243 10.0794715,5.65922505 10.2772315,5.6309049 L10.2772315,5.25452098 C10.2772315,5.15098495 10.3097422,5.07165808 10.3742877,5.01882425 C10.4900574,4.92335794 10.6534037,4.91528822 10.7880454,5.01684488 C10.8581416,5.07028775 10.893824,5.15007139 10.893824,5.25452098 L10.893824,5.66424959 C11.2098911,5.72682798 11.4721966,5.8704081 11.6737628,6.09164023 C11.8902362,6.3290118 12.003627,6.64829865 12.0123494,7.04097427 C11.9696891,7.28139102 11.8245805,7.32021703 11.7419559,7.32341447 C11.7375154,7.32341447 11.7325991,7.32371898 11.7281586,7.32371898 C11.5803541,7.32371898 11.487104,7.23342948 11.4715623,7.0741667 C11.4633157,6.98631333 11.4452366,6.89419672 11.4176422,6.7994917 C11.3913165,6.70783187 11.3494491,6.61891269 11.2931501,6.53501805 C11.2374855,6.45279826 11.1672308,6.3778869 11.0846061,6.31302462 C11.0295758,6.26993536 10.9656646,6.23430679 10.893824,6.20690019 L10.893824,8.02563236 C11.141698,8.08379525 11.3450086,8.16692859 11.4977294,8.27366206 C11.6648818,8.38922654 11.7933386,8.52153949 11.8802451,8.66694671 C11.9666759,8.81083134 12.0204374,8.96491732 12.0404196,9.12478913 C12.0592916,9.28100672 12.0667453,9.4291546 12.0623048,9.56557855 C12.0448601,9.83903547 11.9316278,10.0980278 11.7256212,10.33814 C11.6266619,10.4508116 11.4983638,10.5424714 11.3443742,10.6109879 C11.2117942,10.6699121 11.0601834,10.711631 10.893824,10.7350789 L10.893824,11.1473959 C10.893824,11.2518455 10.8581416,11.3317814 10.7880454,11.3847675 C10.7234998,11.4336426 10.6546724,11.4583085 10.5826732,11.4583085 C10.5051233,11.4583085 10.4343928,11.432729 10.3736534,11.3826359 C10.3097422,11.3302588 10.2772315,11.250932 10.2772315,11.1473959 L10.2772315,10.7446712 C10.0862908,10.7288363 9.90676854,10.6942735 9.74151922,10.6412874 C9.5524816,10.5805362 9.3827918,10.4970983 9.23689028,10.392801 C9.08987865,10.2871333 8.96586236,10.1566475 8.87007485,10.0053022 C8.85881506,9.98779239 8.84818962,9.96982584 8.83756418,9.95170704 L8.83756418,9.98961949 L8.80759094,9.89582803 C8.74748586,9.77539127 8.70482552,9.64140346 8.68119582,9.4961485 L8.68056147,9.49538721 C8.64487903,9.38027951 8.67612099,9.30749977 8.709266,9.26699891 C8.75874565,9.20655214 8.83328229,9.1818862 8.94080536,9.19239206 C9.01280459,9.19695983 9.07481273,9.21401282 9.12238931,9.24324653 C9.16251223,9.26821698 9.21056458,9.31861466 9.21881118,9.41925778 C9.26638776,9.61917367 9.38517063,9.80538626 9.56992635,9.9614516 C9.73771309,10.1041182 9.97496164,10.1918193 10.2772315,10.2230323 L10.2772315,8.47905927 C9.86537692,8.42652996 9.53551262,8.28888794 9.29572666,8.07054873 C9.04103336,7.83881073 8.8902156,7.52805038 8.84644515,7.1470987 C8.82820746,6.95022798 8.85516752,6.76218828 8.9263738,6.58587251 C8.99726291,6.41062256 9.1017728,6.25440496 9.23752464,6.12163523 Z M10.9306112,8.62595828 C11.1130442,8.69778457 11.2518363,8.80392787 11.3445552,8.94199398 C11.4530134,9.10320411 11.5038085,9.34007127 11.4963681,9.6462109 L11.4963681,9.6484455 C11.4963681,9.69249896 11.4873538,9.75139652 11.4704698,9.81955169 C11.4545874,9.8869088 11.4229657,9.95777741 11.377894,10.0299229 C11.3326792,10.1001531 11.2671464,10.1644775 11.1818679,10.2211405 C11.1146181,10.2664709 11.0304843,10.3011071 10.9306112,10.3253684 L10.9306112,8.62595828 Z M10.3641411,6.07684305 L10.3641411,7.7762532 C10.2133242,7.74484486 10.0878784,7.70394098 9.99015282,7.65456415 C9.87394707,7.59613004 9.78060661,7.52980732 9.71263721,7.45778727 C9.6459207,7.38708199 9.5983108,7.31243241 9.57043395,7.23544546 C9.54193065,7.1546603 9.52345049,7.07665076 9.51608975,7.0027316 C9.50872901,6.87943562 9.52595628,6.76169088 9.56745833,6.65314951 C9.60880377,6.54358554 9.67238805,6.44322495 9.75398265,6.35703463 C9.83683014,6.27566512 9.93580862,6.20948849 10.0482557,6.15952732 C10.1386205,6.11949995 10.2448031,6.09188983 10.3641411,6.07684305 Z" id="path-1"></path>
    </defs>
    <g id="icon/29-prove" stroke="none" stroke-width="1" fill="none" fill-rule="evenodd">
        <mask id="mask-2" fill="white">
            <use xlink:href="#path-1"></use>
        </mask>
        <use id="Combined-Shape" fill="#000000" xlink:href="#path-1"></use>
        <g id="Color/primary/default" mask="url(#mask-2)" fill="#3278BC">
            <rect id="Color" x="0" y="0" width="24" height="24"></rect>
        </g>
    </g>
</svg>