<?xml version="1.0" encoding="UTF-8"?>
<svg width="24px" height="24px" viewBox="0 0 24 24" version="1.1" xmlns="http://www.w3.org/2000/svg" xmlns:xlink="http://www.w3.org/1999/xlink">
    <!-- Generator: Sketch 49.3 (51167) - http://www.bohemiancoding.com/sketch -->
    <title>icon/30-write</title>
    <desc>Created with Sketch.</desc>
    <defs>
        <path d="M16.3053707,18.4740162 C16.0933965,19.0685259 14.165211,19.2380617 13.0193036,19.0577881 C12.5071367,18.9771792 12.2050735,18.7058614 12.0378321,18.4894423 C13.3416291,18.3690583 15.0590873,18.2157047 15.8053611,18.1511268 C15.9323897,18.1400866 16.0467934,18.0836755 16.1473252,18.0088135 C16.2528447,18.0844317 16.3910955,18.2346092 16.3053707,18.4740162 Z M10.0164403,16.8780202 C10.2273234,16.8963198 10.4511432,16.9082674 10.6975632,16.9082674 C12.2314144,16.9082674 14.2992535,16.5933936 15.0165366,16.4760343 C15.0327464,16.4834448 15.0470858,16.4932752 15.065166,16.4973586 C15.6376521,16.6245483 15.9995668,17.0253243 15.9448588,17.4722274 C15.9330131,17.5682624 15.8452621,17.6623313 15.76094,17.6695907 C14.9392284,17.7406717 12.9337347,17.9197354 11.6059348,18.0440516 C10.4383624,18.1543028 10.1040355,17.2400797 10.0164403,16.8780202 Z M9.05149031,15.1121859 C9.68585415,15.0467006 10.4567543,14.7970096 11.3227311,14.1675643 C11.6026616,14.2649605 12.2883045,14.4810771 13.1536579,14.6134088 C13.9229994,14.731373 14.4459209,14.9813665 14.7002899,15.3609695 C14.8664402,15.6092994 14.8809355,15.8594441 14.868934,16.0099242 C12.9479182,16.3201097 9.89673726,16.6399744 9.36384047,16.2449453 C9.02717563,15.9943468 9.01361551,15.4414272 9.05149031,15.1121859 Z M5.98784027,17.9003772 L3.49932601,19.1408168 L4.27412273,16.5549796 L13.2119507,5.90734347 C13.6067526,5.43775495 14.3011238,5.34338354 14.7699608,5.70302331 L14.9300325,5.51775892 L14.774325,5.70650175 L14.8112646,5.73705147 C15.25906,6.11347846 15.3075335,6.79631008 14.9188103,7.2592442 L12.2714713,10.4135784 L10.3192828,10.5306353 C10.248365,10.5350211 10.1827465,10.5684443 10.1386372,10.6224357 L7.59105071,13.7651247 C7.4094699,13.9942476 7.36364608,14.2930904 7.46885384,14.5644082 C7.57125606,14.8299791 7.80240141,15.0209904 8.08685203,15.0761916 C8.16774511,15.0919202 8.24723542,15.1041704 8.32625814,15.113547 L5.98784027,17.9003772 Z M6.3751607,13.1337134 C5.3816877,14.1675643 4.54158424,14.070017 4.01242816,13.805656 C3.91672806,13.7578654 3.88617884,13.673778 3.87651532,13.6281047 C3.85843517,13.5412951 3.88134708,13.4529731 3.93932825,13.3852193 L7.15681541,9.63743405 C7.28758476,9.48513916 7.45934617,9.37594659 7.65417536,9.32150155 C8.79603028,9.00239309 9.66247465,8.77644615 10.2910715,8.62188271 L7.27729778,12.2120798 C7.00890109,12.4808266 6.70917586,12.7861725 6.3751607,13.1337134 Z M21.7509245,15.9777109 L20.523033,15.9777109 C20.4606876,15.9777109 20.4003685,16.0003963 20.3545447,16.0413813 C19.4329247,16.8624429 17.0790764,17.4034149 16.4367635,17.5390738 C16.4372311,17.5355954 16.4392573,17.5327219 16.4397249,17.5292434 C16.5170331,16.8939 16.0690818,16.3120942 15.3606829,16.0817614 C15.3835948,15.8576293 15.3712816,15.4822609 15.1245499,15.1073463 C15.0282264,14.9611009 14.899795,14.8339112 14.7532834,14.7177618 C15.3882707,14.6994622 16.0455465,14.6031247 16.6696233,14.3709771 C16.7980547,14.3230352 16.8622704,14.1832929 16.8130176,14.0586742 C16.7636089,13.9337531 16.6194353,13.8711413 16.4911598,13.9196881 C14.2523386,14.7533023 11.4005069,13.6804324 11.3721397,13.6696946 C11.2906232,13.6382375 11.1966376,13.6518488 11.1271226,13.7040253 C10.1733947,14.4269345 9.35807352,14.6397239 8.73882843,14.6491005 C8.72526831,14.649403 8.71155234,14.6486468 8.69799223,14.6486468 C8.61273498,14.6486468 8.53059499,14.6456221 8.4531309,14.6386652 C8.3859538,14.6323133 8.31815324,14.6227854 8.24957337,14.6111402 C8.22790836,14.6075105 8.20312609,14.6053932 8.18208454,14.6013099 C8.06736911,14.5784732 7.97696836,14.5033088 7.93519699,14.3948724 C7.89108766,14.2808403 7.91025885,14.1556167 7.98444981,14.0618502 L10.4597157,11.0083905 L14.4992262,10.8285707 C14.6360742,10.8226724 14.7422171,10.7106064 14.7367619,10.577821 C14.7314626,10.445338 14.6309307,10.3515716 14.4797432,10.3455221 L12.9304615,10.3940689 L14.1334149,8.96034941 C16.2611055,9.66722759 18.4032914,10.7517427 18.4343082,10.7674712 C18.4707802,10.7862245 18.501797,10.7845609 18.5524526,10.7952987 L21.7527948,10.7694373 C21.8907339,10.7682274 22.0009293,10.6593373 21.9999941,10.5259469 C21.9985913,10.3930103 21.8874608,10.2860863 21.7509245,10.2860863 L21.7490541,10.2860863 L18.6104338,10.3111915 C18.2522598,10.1307667 16.3953038,9.21351887 14.4707032,8.55851473 L15.3048838,7.56459017 C15.8620953,6.90081432 15.7868133,5.91702259 15.1396687,5.37363079 C15.1374866,5.37166472 15.0908834,5.33325071 15.0885455,5.33143588 C15.0872986,5.33052846 15.0710888,5.31782462 15.069686,5.3169172 C14.3986943,4.80120163 13.3913495,4.92793759 12.8260331,5.60214874 L10.8244359,7.98653927 C10.0209604,8.16227578 8.67180719,8.53386322 7.51639216,8.85705506 C7.22555115,8.93826892 6.96868834,9.10115035 6.77401502,9.32815594 L3.55668372,13.0759412 C3.40128796,13.2568197 3.34003366,13.4935044 3.3883513,13.7245934 C3.4351103,13.9469107 3.57943977,14.1332337 3.7847118,14.2356206 C4.15332863,14.4198264 4.77288545,14.591177 5.51541846,14.310785 L3.85609722,16.2877452 C3.8348998,16.3128504 3.8191576,16.3418877 3.80996166,16.3730424 L3.02098138,19.0062165 C2.96190917,19.2034286 3.03002145,19.4142519 3.19445729,19.5437101 C3.29000152,19.619177 3.40674317,19.657591 3.52488759,19.657591 C3.60920967,19.657591 3.69415519,19.6377791 3.7723986,19.5970965 L6.2654329,18.3049341 C6.29457935,18.2899617 6.3202968,18.2693936 6.34133835,18.2445908 L8.55319517,15.6091482 C8.58826443,15.9668219 8.71139648,16.3685053 9.06099797,16.6281779 C9.16028293,16.7022837 9.31536696,16.7541577 9.49227187,16.7968063 C9.57441185,17.4251929 10.079565,18.536628 11.4142229,18.536628 C11.4338616,18.536628 11.4553708,18.534057 11.4754772,18.5336033 C11.6353929,18.8224645 12.0571592,19.3959523 12.9395016,19.5347872 C13.1948058,19.5751673 13.5872697,19.6072293 14.0271161,19.6072293 C15.118783,19.6072293 16.4991088,19.4077487 16.7762339,18.6325118 C16.8709988,18.3675459 16.8335916,18.1465898 16.7427232,17.9687359 C17.5910875,17.7807493 19.6425609,17.2627652 20.6170186,16.4610619 L21.7509245,16.4610619 C21.8883959,16.4610619 21.9999941,16.352928 21.9999941,16.2193864 C21.9999941,16.085996 21.8883959,15.9777109 21.7509245,15.9777109 Z" id="path-1"></path>
    </defs>
    <g id="icon/30-write" stroke="none" stroke-width="1" fill="none" fill-rule="evenodd">
        <mask id="mask-2" fill="white">
            <use xlink:href="#path-1"></use>
        </mask>
        <use id="Fill-1" fill="#000000" xlink:href="#path-1"></use>
        <g id="Color/primary/default" mask="url(#mask-2)" fill="#3278BC">
            <rect id="Color" x="0" y="0" width="24" height="24"></rect>
        </g>
    </g>
</svg>