<?xml version="1.0" encoding="UTF-8"?>
<svg width="24px" height="24px" viewBox="0 0 24 24" version="1.1" xmlns="http://www.w3.org/2000/svg" xmlns:xlink="http://www.w3.org/1999/xlink">
    <!-- Generator: Sketch 49.3 (51167) - http://www.bohemiancoding.com/sketch -->
    <title>icon/32-money</title>
    <desc>Created with Sketch.</desc>
    <defs>
        <path d="M16.1538462,9.1625 L18.9867692,9.1625 C18.948,9.27141875 18.9230769,9.387275 18.9230769,9.509375 C18.9230769,10.0838 19.3883077,10.55 19.9615385,10.55 C20.0833846,10.55 20.199,10.525025 20.3076923,10.486175 L20.3076923,16.163825 C20.199,16.124975 20.0833846,16.1 19.9615385,16.1 C19.3883077,16.1 18.9230769,16.5662 18.9230769,17.140625 C18.9230769,17.262725 18.948,17.3785812 18.9867692,17.4875 L16.1538462,17.4875 L16.1538462,9.1625 Z M8.53846154,18.18125 L15.4615385,18.18125 L15.4615385,8.46875 L8.53846154,8.46875 L8.53846154,18.18125 Z M5.01323077,17.4875 C5.052,17.3785812 5.07692308,17.262725 5.07692308,17.140625 C5.07692308,16.5662 4.61169231,16.1 4.03846154,16.1 C3.91661538,16.1 3.801,16.124975 3.69230769,16.163825 L3.69230769,10.486175 C3.801,10.525025 3.91661538,10.55 4.03846154,10.55 C4.61169231,10.55 5.07692308,10.0838 5.07692308,9.509375 C5.07692308,9.387275 5.052,9.27141875 5.01323077,9.1625 L7.84615385,9.1625 L7.84615385,17.4875 L5.01323077,17.4875 Z M9.07915385,5.69375 L14.9208462,5.69375 L15.4400769,7.775 L8.55992308,7.775 L9.07915385,5.69375 Z M21,8.46875 L16.1538462,8.46875 L16.1538462,7.775 L20.3076923,7.775 L20.3076923,7.08125 L15.9807692,7.08125 L15.8076923,6.3875 L19.6153846,6.3875 L19.6153846,5.69375 L15.6346154,5.69375 L15.4615385,5 L8.53846154,5 L8.36538462,5.69375 L4.38461538,5.69375 L4.38461538,6.3875 L8.19230769,6.3875 L8.01923077,7.08125 L3.69230769,7.08125 L3.69230769,7.775 L7.84615385,7.775 L7.84615385,8.46875 L3,8.46875 L3,18.18125 L7.84615385,18.18125 L7.84615385,18.875 L16.1538462,18.875 L16.1538462,18.18125 L21,18.18125 L21,8.46875 Z M9.61222097,14.362175 C9.50745103,14.9053813 9.56833086,15.33065 9.79415255,15.6379812 C10.0213901,15.9453125 10.3916244,16.1243 10.9041476,16.1763313 L10.730003,16.8125 L11.1660724,16.8125 L11.3402171,16.1763313 C11.5986024,16.1562125 11.8449533,16.1041813 12.078562,16.021625 C12.3114627,15.9390688 12.52525,15.8266813 12.7156764,15.6844625 C12.9089345,15.5422438 13.0745843,15.3729688 13.2154574,15.1766375 C13.3563305,14.9796125 13.4611004,14.7555313 13.5297672,14.5023125 C13.5941865,14.2643563 13.6040972,14.0603938 13.5587913,13.8897313 C13.5134854,13.7197625 13.4398633,13.5775438 13.3386328,13.4637687 C13.2374024,13.3499937 13.1255534,13.2605 13.0009622,13.1959813 C12.8770788,13.1314625 12.7645219,13.0863688 12.6661231,13.0607 L12.2258062,12.9365188 L12.7482401,11.0300937 C13.2083783,11.1175062 13.4214577,11.4179 13.3867704,11.9285 L14.059988,11.9285 C14.0783936,11.4740937 13.9955687,11.1175062 13.814345,10.8587375 C13.6317055,10.5999688 13.3343854,10.4459562 12.9209689,10.393925 L13.061842,9.875 L12.6264804,9.875 L12.487731,10.3862938 C12.2576619,10.4015562 12.0311323,10.4508125 11.810266,10.5333688 C11.5893996,10.615925 11.3876467,10.7283125 11.2042993,10.8705312 C11.0209519,11.01275 10.8595496,11.1806375 10.7236318,11.3748875 C10.5855903,11.5684438 10.4850678,11.781425 10.4213564,12.0138312 C10.3590607,12.242075 10.3385315,12.4349375 10.3583528,12.5951937 C10.3767584,12.75545 10.4397619,12.891425 10.543116,13.002425 C10.6464702,13.113425 10.789467,13.2084688 10.9713986,13.2889438 C11.1519143,13.3694188 11.3734886,13.4429563 11.6339976,13.5095562 L11.072629,15.5644438 C10.7696456,15.5117188 10.5417002,15.38615 10.3887927,15.1842688 C10.2344695,14.9830813 10.2019058,14.70905 10.2854386,14.362175 L9.61222097,14.362175 Z M12.0389193,13.618475 C12.1698817,13.6601 12.2916414,13.7051937 12.4056141,13.7537562 C12.518171,13.8037062 12.6101986,13.8640625 12.6795733,13.9362125 C12.7496559,14.0083625 12.7970855,14.095775 12.8218622,14.195675 C12.8473468,14.2969625 12.8395598,14.4218375 12.7985013,14.5723812 C12.7531954,14.7374937 12.6887761,14.8804062 12.6059512,15.0018125 C12.5245421,15.1232187 12.4240196,15.2238125 12.3100469,15.3042875 C12.1960742,15.3847625 12.0714829,15.4451187 11.9355651,15.48605 C11.7996474,15.5283687 11.6580664,15.5540375 11.5079905,15.5644437 L12.0389193,13.618475 Z M11.4924166,12.6964812 C11.3940178,12.65 11.3133167,12.5938062 11.2503131,12.5292875 C11.184478,12.4654625 11.1427116,12.3849875 11.1257218,12.28925 C11.1073163,12.1935125 11.1151033,12.07835 11.1526222,11.9437625 C11.2326155,11.6496125 11.3819834,11.4255312 11.6007261,11.2742937 C11.8187608,11.1216687 12.0580327,11.0314812 12.3185417,11.0058125 L11.8223004,12.8199687 C11.6998328,12.7838937 11.5893996,12.7422687 11.4924166,12.6964812 Z" id="path-1"></path>
    </defs>
    <g id="icon/32-money" stroke="none" stroke-width="1" fill="none" fill-rule="evenodd">
        <mask id="mask-2" fill="white">
            <use xlink:href="#path-1"></use>
        </mask>
        <use id="Fill-1" fill="#000000" xlink:href="#path-1"></use>
        <g id="Color/primary/default" mask="url(#mask-2)" fill="#3278BC">
            <rect id="Color" x="0" y="0" width="24" height="24"></rect>
        </g>
    </g>
</svg>