<?xml version="1.0" encoding="UTF-8"?>
<svg width="24px" height="24px" viewBox="0 0 24 24" version="1.1" xmlns="http://www.w3.org/2000/svg" xmlns:xlink="http://www.w3.org/1999/xlink">
    <!-- Generator: Sketch 49.3 (51167) - http://www.bohemiancoding.com/sketch -->
    <title>icon/33-period</title>
    <desc>Created with Sketch.</desc>
    <defs>
        <path d="M17.6681769,8.83805288 C17.5080532,8.66102163 17.3389784,8.49194685 17.1614498,8.3313258 L18.4658121,7.02696356 L18.9725392,7.53319336 L17.6681769,8.83805288 Z M12.2811559,20.2834213 C8.66146366,20.2834213 5.71608144,17.3385363 5.71608144,13.7183468 C5.71608144,10.0986546 8.66146366,7.15376965 12.2811559,7.15376965 C15.9008481,7.15376965 18.8462304,10.0986546 18.8462304,13.7183468 C18.8462304,17.3385363 15.9008481,20.2834213 12.2811559,20.2834213 Z M11.8321132,5.40732657 L12.7301986,5.40732657 L12.7301986,6.46056303 C12.581015,6.45111473 12.4328259,6.43768821 12.2811559,6.43768821 C12.1294859,6.43768821 11.9812968,6.45111473 11.8321132,6.46056303 L11.8321132,5.40732657 Z M10.5163135,4.69074785 L14.0459983,4.69074785 L14.0459983,3.71608144 L10.5163135,3.71608144 L10.5163135,4.69074785 Z M19.8368097,7.53319336 C19.8368097,7.62817361 19.7995138,7.71917562 19.7318839,7.78680554 L18.1251761,9.39401055 C19.0237589,10.6048844 19.5623118,12.0982126 19.5623118,13.7183468 C19.5623118,17.7333757 16.2956875,21 12.2811559,21 C8.26662431,21 5,17.7333757 5,13.7183468 C5,10.1016383 7.65447413,7.10006354 11.1160317,6.53963036 L11.1160317,5.40732657 L10.4710611,5.40732657 C10.1010857,5.40732657 9.80072934,5.10597563 9.80072934,4.73600022 L9.80072934,3.67082907 C9.80072934,3.30085366 10.1010857,3 10.4710611,3 L14.0907534,3 C14.4607288,3 14.7615825,3.30085366 14.7615825,3.67082907 L14.7615825,4.73600022 C14.7615825,5.10597563 14.4607288,5.40732657 14.0907534,5.40732657 L13.4462801,5.40732657 L13.4462801,6.53963036 C14.616377,6.72909357 15.6914938,7.19653562 16.6054922,7.87482388 L18.2131945,6.26761886 C18.3529298,6.12738625 18.5791916,6.12738625 18.718927,6.26761886 L19.7318839,7.28007846 C19.7995138,7.34721109 19.8368097,7.43871039 19.8368097,7.53319336 Z M12.3054231,13.3604056 C12.2974666,13.3604056 12.2905047,13.3604056 12.2825483,13.3604056 C11.6216648,13.3604056 11.1283642,13.1734287 10.9607813,12.8586513 C10.8807194,12.7074785 10.8926541,12.5403929 10.9955908,12.3892201 C11.1681465,12.1356079 11.6340967,11.8979087 12.4038843,11.9829433 C12.7768434,12.025212 13.1572617,12.1520181 13.5983479,12.2987154 L13.6808962,12.3260657 C13.871354,12.3902147 14.0717573,12.287278 14.1339172,12.0993066 C14.196077,11.9118325 14.0946322,11.70944 13.9071581,11.6467829 L13.8246098,11.6194325 C13.4188303,11.4841727 13.0324447,11.359853 12.6390972,11.2966986 L12.6390972,10.3981159 C12.6390972,10.2006962 12.4789734,10.0400751 12.2810564,10.0400751 C12.0836368,10.0400751 11.9230157,10.2006962 11.9230157,10.3981159 L11.9230157,11.2574136 C11.2506948,11.2957041 10.6997099,11.5508081 10.4033318,11.9864243 C10.1517087,12.356897 10.1233638,12.8089234 10.3282427,13.1948117 C10.6266099,13.7552449 11.3387132,14.076487 12.2825483,14.076487 L12.3059204,14.076487 C12.9479073,14.076487 13.430765,14.2649557 13.5988452,14.5817222 C13.682388,14.7383651 13.6704534,14.9084344 13.5665221,15.061099 C13.3989391,15.3077493 12.9484046,15.5399785 12.1816007,15.4539492 C11.8116253,15.4116805 11.434688,15.2868636 10.9985745,15.1416581 L10.9070752,15.1113241 C10.7200984,15.0496616 10.5172086,15.1506092 10.4545515,15.3385805 C10.3923916,15.5260546 10.4938365,15.7284471 10.6818079,15.7911042 L10.7723126,15.820941 C11.1661574,15.9517253 11.5411056,16.072564 11.9230157,16.136713 L11.9230157,17.0387767 C11.9230157,17.2366936 12.0836368,17.3973147 12.2810564,17.3973147 C12.4789734,17.3973147 12.6390972,17.2366936 12.6390972,17.0387767 L12.6390972,16.1740089 C13.3119154,16.1401939 13.8648894,15.8960301 14.1587811,15.4638948 C14.4113987,15.0924275 14.4387491,14.6369202 14.2313838,14.2460591 C13.932022,13.6826422 13.2308589,13.3604056 12.3054231,13.3604056 Z M12.2811559,18.8654308 C9.4431859,18.8654308 7.13382325,16.5565655 7.13382325,13.7185955 C7.13382325,10.8806255 9.4431859,8.57176009 12.2811559,8.57176009 C15.1191259,8.57176009 17.4284885,10.8806255 17.4284885,13.7185955 C17.4284885,16.5565655 15.1191259,18.8654308 12.2811559,18.8654308 M12.2811559,7.85567865 C9.04834655,7.85567865 6.41823908,10.4857861 6.41823908,13.7185955 C6.41823908,16.9514048 9.04834655,19.5815123 12.2811559,19.5815123 C15.5139652,19.5815123 18.1440727,16.9514048 18.1440727,13.7185955 C18.1440727,10.4857861 15.5139652,7.85567865 12.2811559,7.85567865" id="path-1"></path>
    </defs>
    <g id="icon/33-period" stroke="none" stroke-width="1" fill="none" fill-rule="evenodd">
        <mask id="mask-2" fill="white">
            <use xlink:href="#path-1"></use>
        </mask>
        <use id="Fill-3" fill="#000000" xlink:href="#path-1"></use>
        <g id="Color/primary/default" mask="url(#mask-2)" fill="#3278BC">
            <rect id="Color" x="0" y="0" width="24" height="24"></rect>
        </g>
    </g>
</svg>