<?xml version="1.0" encoding="UTF-8"?>
<svg width="24px" height="24px" viewBox="0 0 24 24" version="1.1" xmlns="http://www.w3.org/2000/svg" xmlns:xlink="http://www.w3.org/1999/xlink">
    <!-- Generator: Sketch 49.3 (51167) - http://www.bohemiancoding.com/sketch -->
    <title>icon/34-rates</title>
    <desc>Created with Sketch.</desc>
    <defs>
        <path d="M6.20328825,9.62470749 C6.6608479,9.62470749 7.03282784,9.99668743 7.03282784,10.4542471 C7.03282784,10.9113205 6.6608479,11.2837867 6.20328825,11.2837867 C5.74621486,11.2837867 5.37374867,10.9113205 5.37374867,10.4542471 C5.37374867,9.99668743 5.74621486,9.62470749 6.20328825,9.62470749 M10.0675034,5.70068379 C10.5250631,5.70068379 10.897043,6.07266373 10.897043,6.52973712 C10.897043,6.98729676 10.5250631,7.35927671 10.0675034,7.35927671 C9.61043003,7.35927671 9.23845008,6.98729676 9.23845008,6.52973712 C9.23845008,6.07266373 9.61043003,5.70068379 10.0675034,5.70068379 M13.9322048,9.2099377 C14.3892782,9.2099377 14.7617444,9.58240389 14.7617444,10.0394773 C14.7617444,10.4970369 14.3892782,10.8690169 13.9322048,10.8690169 C13.4746452,10.8690169 13.1026652,10.4970369 13.1026652,10.0394773 C13.1026652,9.58240389 13.4746452,9.2099377 13.9322048,9.2099377 M17.79642,7.42540647 C18.2539796,7.42540647 18.6259596,7.79738642 18.6259596,8.25494606 C18.6259596,8.7125057 18.2539796,9.08448564 17.79642,9.08448564 C17.3388604,9.08448564 16.9668804,8.7125057 16.9668804,8.25494606 C16.9668804,7.79738642 17.3388604,7.42540647 17.79642,7.42540647 M6.20328825,11.9839842 C7.04692904,11.9839842 7.73302538,11.2974016 7.73302538,10.4542471 C7.73302538,10.1537456 7.64306944,9.87561161 7.49330497,9.63929494 C7.49670871,9.6358912 7.50157119,9.63491871 7.50497493,9.63151497 L9.30992858,7.85087373 C9.53408904,7.98021577 9.79034189,8.05996049 10.0675034,8.05996049 C10.389886,8.05996049 10.6879562,7.95882085 10.9344841,7.7881477 L12.5964808,9.30913235 C12.4763775,9.52697158 12.4024677,9.77349947 12.4024677,10.0394773 C12.4024677,10.8831181 13.088564,11.5697007 13.9322048,11.5697007 C14.7753594,11.5697007 15.461942,10.8831181 15.461942,10.0394773 C15.461942,9.94417262 15.4507582,9.85129919 15.4337396,9.76085701 L16.5983042,9.194864 C16.8788695,9.551284 17.308713,9.78468318 17.79642,9.78468318 C18.6400608,9.78468318 19.3261571,9.09810059 19.3261571,8.25494606 C19.3261571,7.41130527 18.6400608,6.72520893 17.79642,6.72520893 C16.9527792,6.72520893 16.2661966,7.41130527 16.2661966,8.25494606 C16.2661966,8.35997569 16.2768941,8.46306033 16.2973165,8.56225498 L15.1478256,9.12095426 C14.8682328,8.75237806 14.4296368,8.50974016 13.9322048,8.50974016 C13.6083635,8.50974016 13.3088345,8.61233855 13.0613341,8.78447045 L11.4007962,7.26494454 C11.5223583,7.04564656 11.5977268,6.79765993 11.5977268,6.52973712 C11.5977268,5.68658259 10.9111442,5 10.0675034,5 C9.22434888,5 8.5377663,5.68658259 8.5377663,6.52973712 C8.5377663,6.84239477 8.63307096,7.132685 8.79450539,7.3753229 L7.01289166,9.13311047 C7.00657043,9.13894545 7.00462544,9.14721167 6.99879046,9.15401915 C6.76636377,9.01106215 6.49552348,8.92450995 6.20328825,8.92450995 C5.36013372,8.92450995 4.67355113,9.61060629 4.67355113,10.4542471 C4.67355113,11.2974016 5.36013372,11.9839842 6.20328825,11.9839842 M5.53119587,18.0784744 L6.87615864,18.0784744 L6.87615864,14.4573834 L5.53119587,14.4573834 L5.53119587,18.0784744 Z M9.39541103,18.0784744 L10.7403738,18.0784744 L10.7403738,10.5980307 L9.39541103,10.5980307 L9.39541103,18.0784744 Z M13.2596262,18.0779881 L14.604589,18.0779881 L14.604589,14.0435861 L13.2596262,14.0435861 L13.2596262,18.0779881 Z M17.1238414,18.0779881 L18.4688041,18.0779881 L18.4688041,12.2517611 L17.1238414,12.2517611 L17.1238414,18.0779881 Z M19.6499012,18.1081355 L19.1690017,18.1081355 L19.1690017,11.9016624 C19.1690017,11.7081355 19.0124297,11.5515636 18.8189029,11.5515636 L16.7737426,11.5515636 C16.580702,11.5515636 16.4236438,11.7081355 16.4236438,11.9016624 L16.4236438,18.1081355 L15.3047865,18.1081355 L15.3047865,13.6934873 C15.3047865,13.4999605 15.1477283,13.3433885 14.9546877,13.3433885 L12.9095274,13.3433885 C12.7160006,13.3433885 12.5594287,13.4999605 12.5594287,13.6934873 L12.5594287,18.1081355 L11.4405713,18.1081355 L11.4405713,10.2479319 C11.4405713,10.0544051 11.2835131,9.89734691 11.0904726,9.89734691 L9.04482601,9.89734691 C8.85178544,9.89734691 8.69472725,10.0544051 8.69472725,10.2479319 L8.69472725,18.1081355 L7.57635618,18.1081355 L7.57635618,14.1072846 C7.57635618,13.9137578 7.41929798,13.7566996 7.22625741,13.7566996 L5.1810971,13.7566996 C4.98757028,13.7566996 4.83051208,13.9137578 4.83051208,14.1072846 L4.83051208,18.1081355 L4.35009877,18.1081355 C4.1570582,18.1081355 4,18.2647075 4,18.4582343 C4,18.6512749 4.1570582,18.8083331 4.35009877,18.8083331 L19.6499012,18.8083331 C19.8429418,18.8083331 20,18.6512749 20,18.4582343 C20,18.2647075 19.8429418,18.1081355 19.6499012,18.1081355 Z" id="path-1"></path>
    </defs>
    <g id="icon/34-rates" stroke="none" stroke-width="1" fill="none" fill-rule="evenodd">
        <mask id="mask-2" fill="white">
            <use xlink:href="#path-1"></use>
        </mask>
        <use id="Fill-3" fill="#000000" xlink:href="#path-1"></use>
        <g id="Color/primary/default" mask="url(#mask-2)" fill="#3278BC">
            <rect id="Color" x="0" y="0" width="24" height="24"></rect>
        </g>
    </g>
</svg>