<?xml version="1.0" encoding="UTF-8"?>
<svg width="24px" height="24px" viewBox="0 0 24 24" version="1.1" xmlns="http://www.w3.org/2000/svg" xmlns:xlink="http://www.w3.org/1999/xlink">
    <!-- Generator: Sketch 49.3 (51167) - http://www.bohemiancoding.com/sketch -->
    <title>icon/35-documents-outline</title>
    <desc>Created with Sketch.</desc>
    <defs>
        <path d="M17.2708741,9.85476367 L17.2708741,19.2034702 L9.51306947,19.2034702 L8.79385521,19.2034702 L5.79652979,19.2034702 L5.79652979,4.79652979 L15.3800598,4.79652979 L15.3800598,6.06666217 C15.3800598,6.3859933 15.6389769,6.64455083 15.958308,6.64455083 L17.2708741,6.64455083 L17.2708741,9.85476367 Z M17.893354,5.65347358 C18.0048322,5.76207493 18.0674039,5.91095228 18.0674039,6.06666217 L18.0674039,9.85476367 L18.0674039,10.6994808 L18.0674039,19.4217517 C18.0674039,19.7410829 17.8084867,20 17.4891556,20 L10.1614411,20 L8.14548356,20 L5.57788866,20 C5.25891713,20 5,19.7410829 5,19.4217517 L5,4.57788866 C5,4.25855753 5.25891713,4 5.57788866,4 L15.958308,4 C16.109343,4 16.2542647,4.05897557 16.3621469,4.16470007 L17.893354,5.65347358 Z M7.23085879,8.04198413 C7.06723754,8.04198413 6.93490212,8.21963005 6.93490212,8.4386308 C6.93490212,8.65727193 7.06723754,8.83491785 7.23085879,8.83491785 L15.836617,8.83491785 C15.9998786,8.83491785 16.1322141,8.65727193 16.1322141,8.4386308 C16.1322141,8.21963005 15.9998786,8.04198413 15.836617,8.04198413 L7.23085879,8.04198413 Z M15.836653,10.7383184 L7.23089475,10.7383184 C7.0672735,10.7383184 6.93493808,10.9156047 6.93493808,11.1349651 C6.93493808,11.3536062 7.0672735,11.5312521 7.23089475,11.5312521 L15.836653,11.5312521 C15.9999146,11.5312521 16.13225,11.3536062 16.13225,11.1349651 C16.13225,10.9156047 15.9999146,10.7383184 15.836653,10.7383184 Z M15.836653,13.4346886 L7.23089475,13.4346886 C7.0672735,13.4346886 6.93493808,13.6119749 6.93493808,13.8313353 C6.93493808,14.0499764 7.0672735,14.2276223 7.23089475,14.2276223 L15.836653,14.2276223 C15.9999146,14.2276223 16.13225,14.0499764 16.13225,13.8313353 C16.13225,13.6119749 15.9999146,13.4346886 15.836653,13.4346886 Z M15.836653,16.1306992 L7.23089475,16.1306992 C7.0672735,16.1306992 6.93493808,16.3083451 6.93493808,16.5277055 C6.93493808,16.7463466 7.0672735,16.9239925 7.23089475,16.9239925 L15.836653,16.9239925 C15.9999146,16.9239925 16.13225,16.7463466 16.13225,16.5277055 C16.13225,16.3083451 15.9999146,16.1306992 15.836653,16.1306992 Z" id="path-1"></path>
    </defs>
    <g id="icon/35-documents-outline" stroke="none" stroke-width="1" fill="none" fill-rule="evenodd">
        <mask id="mask-2" fill="white">
            <use xlink:href="#path-1"></use>
        </mask>
        <use id="Fill-9" fill="#231916" xlink:href="#path-1"></use>
        <g id="Color/primary/default" mask="url(#mask-2)" fill="#3278BC">
            <rect id="Color" x="0" y="0" width="24" height="24"></rect>
        </g>
    </g>
</svg>