<?xml version="1.0" encoding="UTF-8"?>
<svg width="24px" height="24px" viewBox="0 0 24 24" version="1.1" xmlns="http://www.w3.org/2000/svg" xmlns:xlink="http://www.w3.org/1999/xlink">
    <!-- Generator: Sketch 49.3 (51167) - http://www.bohemiancoding.com/sketch -->
    <title>icon/36-percentage</title>
    <desc>Created with Sketch.</desc>
    <defs>
        <path d="M6.24625473,9.57856267 C6.24625473,8.11873434 6.78040198,6.96140641 7.74185637,6.96140641 L7.75960975,6.96140641 C8.84565762,6.96140641 9.25521139,8.13654102 9.25521139,9.54300261 C9.25521139,11.0742176 8.79223756,12.1780722 7.75960975,12.1780722 C6.78040198,12.1780722 6.21064136,11.0386043 6.24625473,9.57856267 M10.4658527,9.4718825 C10.4658527,11.9109719 9.20179133,13.1217199 7.706243,13.1217199 C6.24625473,13.1217199 5.01780669,11.9465853 5,9.63203604 C5,7.31754012 6.24625473,6.01770539 7.79527643,6.01770539 L7.8130298,6.01770539 C9.41541824,6.01770539 10.4658527,7.26406675 10.4658527,9.4718825 Z M14.4005811,6 L15.3975956,6 L8.57859466,18 L7.58158021,18 L14.4005811,6 Z M15.3085728,16.9673135 C14.329365,16.9673135 13.7596577,15.8278456 13.7952711,14.367964 C13.7952711,12.9079757 14.329365,11.7507544 15.2907661,11.7507544 L15.3085728,11.7507544 C16.3946207,11.7507544 16.8041744,12.9257824 16.8041744,14.3323506 C16.8041744,15.863459 16.3412539,16.9673135 15.3085728,16.9673135 M15.3620462,10.80716 L15.3441862,10.80716 C13.7952711,10.80716 12.5489631,12.1068348 12.5489631,14.421384 C12.5667164,16.7358266 13.7952711,17.9109612 15.2551527,17.9109612 C16.7507011,17.9109612 18.0148158,16.7002666 18.0148158,14.2611238 C18.0148158,12.0534147 16.9644346,10.80716 15.3620462,10.80716" id="path-1"></path>
    </defs>
    <g id="icon/36-percentage" stroke="none" stroke-width="1" fill="none" fill-rule="evenodd">
        <mask id="mask-2" fill="white">
            <use xlink:href="#path-1"></use>
        </mask>
        <use id="Fill-6" fill="#231815" xlink:href="#path-1"></use>
        <g id="Color/primary/default" mask="url(#mask-2)" fill="#3278BC">
            <rect id="Color" x="0" y="0" width="24" height="24"></rect>
        </g>
    </g>
</svg>