<?xml version="1.0" encoding="UTF-8"?>
<svg width="24px" height="24px" viewBox="0 0 24 24" version="1.1" xmlns="http://www.w3.org/2000/svg" xmlns:xlink="http://www.w3.org/1999/xlink">
    <!-- Generator: Sketch 49.3 (51167) - http://www.bohemiancoding.com/sketch -->
    <title>icon/37-two-way</title>
    <desc>Created with Sketch.</desc>
    <defs>
        <path d="M4.78185946,12.0893004 C4.78185946,13.3259818 5.39874658,14.4837397 6.43223448,15.1862484 L6.55993819,15.2731026 L6.00221177,15.8260788 L5.91164638,15.7614817 C4.71461955,14.9080334 4,13.5352506 4,12.0893004 C4,9.59431998 6.0459959,7.56456612 8.56084686,7.56456612 L16.2199422,7.56456612 L14.1876288,5.54747583 L14.739361,5 L17.7130331,7.95099707 L14.739361,10.90225 L14.1876288,10.3545183 L16.2199422,8.33768386 L8.56084686,8.33768386 C6.47706109,8.33768386 4.78185946,10.0206604 4.78185946,12.0893004 Z M18.7021683,8.71933545 C19.890545,9.56937368 20.6000004,10.9362616 20.6000004,12.3758754 C20.6000004,14.8601421 18.5687897,16.8813073 16.0721121,16.8813073 L8.4683646,16.8813073 L10.486121,18.8894812 L9.93824651,19.4347335 L6.98593398,16.4964083 L9.93824651,13.5578285 L10.4859916,14.1032081 L8.4683646,16.1115094 L16.0721121,16.1115094 C18.1407102,16.1115094 19.823791,14.4356324 19.823791,12.3758754 C19.823791,11.1438676 19.2113617,9.99108129 18.1853422,9.29235343 L18.058432,9.20587216 L18.6123868,8.65514317 L18.7021683,8.71933545 Z" id="path-1"></path>
    </defs>
    <g id="icon/37-two-way" stroke="none" stroke-width="1" fill="none" fill-rule="evenodd">
        <mask id="mask-2" fill="white">
            <use xlink:href="#path-1"></use>
        </mask>
        <use id="Combined-Shape" fill="#000000" xlink:href="#path-1"></use>
        <g id="Color/primary/default" mask="url(#mask-2)" fill="#3278BC">
            <rect id="Color" x="0" y="0" width="24" height="24"></rect>
        </g>
    </g>
</svg>