<?xml version="1.0" encoding="UTF-8"?>
<svg width="24px" height="24px" viewBox="0 0 24 24" version="1.1" xmlns="http://www.w3.org/2000/svg" xmlns:xlink="http://www.w3.org/1999/xlink">
    <!-- Generator: Sketch 49.3 (51167) - http://www.bohemiancoding.com/sketch -->
    <title>icon/38-calendar</title>
    <desc>Created with Sketch.</desc>
    <defs>
        <path d="M19.3258759,8.23648825 L4.63291034,8.23648825 L4.63291034,6.58055702 C4.63291034,6.34633352 4.82330115,6.15575473 5.05737011,6.15575473 L8.94362299,6.15575473 L8.94362299,6.8261043 C8.94362299,7.00008711 9.08555402,7.14165731 9.26008276,7.14165731 C9.43456552,7.14165731 9.57654253,7.00008711 9.57654253,6.8261043 L9.57654253,6.15575473 L14.6294621,6.15575473 L14.6294621,6.8261043 C14.6294621,7.00008711 14.7708414,7.14165731 14.9446345,7.14165731 C15.1191172,7.14165731 15.2610943,7.00008711 15.2610943,6.8261043 L15.2610943,6.15575473 L18.8998529,6.15575473 C19.1347954,6.15575473 19.3258759,6.34633352 19.3258759,6.58055702 L19.3258759,8.23648825 Z M19.3258759,18.9030327 C19.3258759,19.1372562 19.1347954,19.3277891 18.8998529,19.3277891 L5.05737011,19.3277891 C4.82330115,19.3277891 4.63291034,19.1372562 4.63291034,18.9030327 L4.63291034,8.86603553 L19.3258759,8.86603553 L19.3258759,18.9030327 Z M18.8998529,5.52620745 C19.4829333,5.52620745 19.9572322,5.99919312 19.9572322,6.58055702 L19.9572322,18.9030327 C19.9572322,19.4843966 19.4829333,19.9573822 18.8998529,19.9573822 L5.05737011,19.9573822 C4.47433563,19.9573822 3.9999908,19.4843966 3.9999908,18.9030327 L3.9999908,6.58055702 C3.9999908,5.99919312 4.47433563,5.52620745 5.05737011,5.52620745 L8.94362299,5.52620745 L8.94362299,4.36137077 C8.94362299,4.18738797 9.08555402,4.04581777 9.26008276,4.04581777 C9.43456552,4.04581777 9.57654253,4.18738797 9.57654253,4.36137077 L9.57654253,5.52620745 L14.6294621,5.52620745 L14.6294621,4.36137077 C14.6294621,4.18738797 14.7708414,4.04581777 14.9446345,4.04581777 C15.1191172,4.04581777 15.2610943,4.18738797 15.2610943,4.36137077 L15.2610943,5.52620745 L18.8998529,5.52620745 Z M17.3934943,15.7829822 L16.4482529,17.352541 L15.9401609,16.6762315 C15.8894943,16.6086556 15.8154253,16.5648275 15.7315172,16.5529536 C15.6475632,16.5410338 15.5643448,16.5624436 15.4971264,16.6130567 C15.3576322,16.7174006 15.3292644,16.915498 15.433908,17.0546842 L16.2248966,18.1070625 C16.2853103,18.1859163 16.3797471,18.2329536 16.4774943,18.2329536 C16.4829195,18.2329536 16.4905057,18.2329536 16.4998391,18.2313032 C16.6031034,18.2247473 16.696023,18.1680825 16.7491724,18.0790968 L17.9357011,16.1075209 C17.9792414,16.034902 17.9917011,15.9498132 17.9707816,15.8678418 C17.949908,15.7862831 17.8983678,15.7177903 17.8265517,15.6755668 C17.7545977,15.6318304 17.6701839,15.6188103 17.5886207,15.6387989 C17.5065057,15.6590166 17.4372184,15.7102258 17.3934943,15.7829822 Z M7.10473563,11.4400458 L7.95521839,11.4400458 L7.95521839,10.592 L7.10473563,10.592 L7.10473563,11.4400458 Z M6.47181609,12.0711519 L8.58781609,12.0711519 L8.58781609,9.96089398 L6.47181609,9.96089398 L6.47181609,12.0711519 Z M11.5533793,11.4400458 L12.4038621,11.4400458 L12.4038621,10.592 L11.5533793,10.592 L11.5533793,11.4400458 Z M10.9217011,12.0711519 L13.0367816,12.0711519 L13.0367816,9.96089398 L10.9217011,9.96089398 L10.9217011,12.0711519 Z M16.0032644,11.4400458 L16.854069,11.4400458 L16.854069,10.592 L16.0032644,10.592 L16.0032644,11.4400458 Z M15.3707126,12.0711519 L17.4854713,12.0711519 L17.4854713,9.96089398 L15.3707126,9.96089398 L15.3707126,12.0711519 Z M7.10473563,14.3983496 L7.95521839,14.3983496 L7.95521839,13.548745 L7.10473563,13.548745 L7.10473563,14.3983496 Z M6.47181609,15.027851 L8.58781609,15.027851 L8.58781609,12.9191519 L6.47181609,12.9191519 L6.47181609,15.027851 Z M11.5533793,14.3983496 L12.4038621,14.3983496 L12.4038621,13.548745 L11.5533793,13.548745 L11.5533793,14.3983496 Z M10.9217011,15.027851 L13.0367816,15.027851 L13.0367816,12.9191519 L10.9217011,12.9191519 L10.9217011,15.027851 Z M7.10473563,17.3550946 L7.95521839,17.3550946 L7.95521839,16.5070487 L7.10473563,16.5070487 L7.10473563,17.3550946 Z M6.47181609,17.9862006 L8.58781609,17.9862006 L8.58781609,15.8759427 L6.47181609,15.8759427 L6.47181609,17.9862006 Z M11.5533793,17.3550946 L12.4038621,17.3550946 L12.4038621,16.5070487 L11.5533793,16.5070487 L11.5533793,17.3550946 Z M10.9217011,17.9862006 L13.0367816,17.9862006 L13.0367816,15.8759427 L10.9217011,15.8759427 L10.9217011,17.9862006 Z M16.0032644,14.3983496 L16.854069,14.3983496 L16.854069,13.548745 L16.0032644,13.548745 L16.0032644,14.3983496 Z M15.3707126,15.027851 L17.4854713,15.027851 L17.4854713,12.9191519 L15.3707126,12.9191519 L15.3707126,15.027851 Z" id="path-1"></path>
    </defs>
    <g id="icon/38-calendar" stroke="none" stroke-width="1" fill="none" fill-rule="evenodd">
        <mask id="mask-2" fill="white">
            <use xlink:href="#path-1"></use>
        </mask>
        <use id="Fill-3" fill="#383838" xlink:href="#path-1"></use>
        <g id="Color/primary/default" mask="url(#mask-2)" fill="#3278BC">
            <rect id="Color" x="0" y="0" width="24" height="24"></rect>
        </g>
    </g>
</svg>