<?xml version="1.0" encoding="UTF-8"?>
<svg width="24px" height="24px" viewBox="0 0 24 24" version="1.1" xmlns="http://www.w3.org/2000/svg" xmlns:xlink="http://www.w3.org/1999/xlink">
    <!-- Generator: Sketch 49.3 (51167) - http://www.bohemiancoding.com/sketch -->
    <title>icon/42-pig</title>
    <desc>Created with Sketch.</desc>
    <defs>
        <path d="M5.03551351,11.7504324 C5.03632432,11.7477297 5.28497297,11.0636757 5.97389189,10.2701622 L6.44416216,9.72908108 L5.1392973,8.42394595 L5.28497297,8.27827027 L7.45524324,9.00178378 L7.75443243,8.83178378 C8.28389189,8.52935135 8.87578378,8.30286486 9.49848649,8.11637838 C9.75551351,8.53637838 10.0887568,8.90016216 10.4825405,9.19340541 L9.69227027,9.19340541 L8.92308108,9.19340541 L8.92308108,9.96259459 L9.69227027,9.96259459 L15.8460541,9.96259459 L16.6155135,9.96259459 L16.6155135,9.19340541 L15.8460541,9.19340541 L15.0557838,9.19340541 C15.4571351,8.89448649 15.7944324,8.52151351 16.0536216,8.09124324 C17.6852432,8.60448649 18.7571351,9.57259459 19.2879459,11.0239459 L19.4255135,11.3977297 L19.4344324,11.4001622 L19.5309189,11.8601622 C19.6382162,12.3758378 19.6922703,12.9447568 19.6922703,13.5523243 C19.6922703,15.8320541 19.324973,17.430973 17.4979459,18.3555676 L17.2709189,18.4704324 L16.1398378,20.7317838 L15.5525405,20.7317838 L14.7344324,19.0952973 L14.219027,19.1347568 C13.6971351,19.1744865 13.2357838,19.1934054 12.769027,19.1934054 C11.7903784,19.1934054 10.8565946,19.1244865 9.91551351,18.9834054 L9.36335135,18.9004324 L8.44740541,20.7317838 L7.86010811,20.7317838 L6.50362162,18.0188108 L6.27037838,17.9047568 C4.60983784,17.0888108 3.50308108,15.9363784 3.03145946,14.578 L4.30767568,14.578 L4.30767568,13.8088108 L2.83227027,13.8088108 C2.79172973,13.5574595 2.76902703,13.3012432 2.76902703,13.0396216 L2.76902703,12.2701622 L4.85686486,12.2701622 L5.03551351,11.7504324 Z M9.69227027,6.11637838 C9.69227027,4.41718919 11.0698378,3.03962162 12.769027,3.03962162 C14.4684865,3.03962162 15.8460541,4.41718919 15.8460541,6.11637838 C15.8460541,7.81556757 14.4684865,9.19340541 12.769027,9.19340541 C11.0698378,9.19340541 9.69227027,7.81556757 9.69227027,6.11637838 Z M2.00010811,11.500973 L4.30767568,11.500973 C4.30767568,11.500973 4.58254054,10.6990811 5.39308108,9.76583784 L4.05145946,8.42394595 L5.07686486,7.39827027 L7.37254054,8.16340541 C7.88497297,7.87124324 8.47902703,7.60908108 9.15821622,7.39718919 C9.01551351,6.99448649 8.92308108,6.568 8.92308108,6.11637838 C8.92308108,3.99205405 10.644973,2.27016216 12.769027,2.27016216 C14.8936216,2.27016216 16.6155135,3.99205405 16.6155135,6.11637838 C16.6155135,6.56610811 16.5238919,6.9907027 16.3817297,7.39205405 C18.3733514,8.048 19.4706486,9.2852973 20.0106486,10.7596216 C21.2495676,11.0961081 22.0001081,12.145027 22.0001081,15.3471892 L21.2309189,15.3471892 C21.2309189,13.1066486 20.8936216,12.1293514 20.2836216,11.7031351 C20.4082162,12.3017838 20.4614595,12.9244865 20.4614595,13.5523243 C20.4614595,15.8125946 20.1098378,17.8961081 17.8452432,19.0420541 L16.6155135,21.500973 L15.0768649,21.500973 L14.2774054,19.9017838 C13.8065946,19.9377297 13.3130811,19.9625946 12.769027,19.9625946 C11.7033514,19.9625946 10.719027,19.8817838 9.80118919,19.7439459 L8.92308108,21.500973 L7.38443243,21.500973 L5.93172973,18.595027 C3.37091892,17.3371892 2.00010811,15.3277297 2.00010811,13.0396216 L2.00010811,11.500973 Z M13.5437568,7.09697297 C13.3534865,7.22616216 13.1278108,7.28805405 12.867,7.28481081 C12.4151081,7.28481081 12.0618649,7.10345946 11.8061892,6.7412973 L10.9818649,7.02724324 C11.3248378,7.50994595 11.8283514,7.78021622 12.4748378,7.86264865 L12.4748378,8.47724324 L13.2175405,8.47724324 L13.2175405,7.87805405 C13.5853784,7.83237838 13.9045676,7.7167027 14.1724054,7.52805405 C14.5259189,7.27967568 14.7026757,6.99508108 14.7026757,6.67454054 C14.7026757,6.38291892 14.5542973,6.12427027 14.2583514,5.89859459 C13.9615946,5.67237838 13.484027,5.52048649 12.8259189,5.44210811 C12.5483514,5.41210811 12.3459189,5.36183784 12.2183514,5.29075676 C12.0902432,5.21967568 12.0267297,5.13940541 12.0267297,5.04994595 C12.0210541,4.9267027 12.0888919,4.82048649 12.2302432,4.73075676 C12.3721351,4.6412973 12.5483514,4.5967027 12.7610541,4.5967027 C13.1248378,4.60021622 13.3942973,4.71237838 13.5683514,4.93237838 L14.2942973,4.67994595 C14.0391622,4.34994595 13.6788919,4.14616216 13.2175405,4.06345946 L13.2175405,3.62156757 L12.4748378,3.62156757 L12.4748378,4.03886486 C12.1294324,4.07886486 11.839973,4.1867027 11.6105135,4.36940541 C11.317,4.60264865 11.1751081,4.85724324 11.1859189,5.13372973 C11.1859189,5.36562162 11.3245676,5.56454054 11.6024054,5.73021622 C11.879973,5.8967027 12.2794324,6.00589189 12.8015946,6.05805405 C13.1880811,6.10643243 13.457,6.18805405 13.6097027,6.30183784 C13.7615946,6.41562162 13.8353784,6.53021622 13.8297027,6.64616216 C13.8297027,6.81778378 13.7342973,6.96832432 13.5437568,7.09697297 Z M6.61567568,12.2702162 L8.15405405,12.2702162 L8.15405405,10.7318378 L6.61567568,10.7318378 L6.61567568,12.2702162 Z" id="path-1"></path>
    </defs>
    <g id="icon/42-pig" stroke="none" stroke-width="1" fill="none" fill-rule="evenodd">
        <mask id="mask-2" fill="white">
            <use xlink:href="#path-1"></use>
        </mask>
        <use id="Fill-3" fill="#000000" xlink:href="#path-1"></use>
        <g id="Color/primary/default" mask="url(#mask-2)" fill="#3278BC">
            <rect id="Color" x="0" y="0" width="24" height="24"></rect>
        </g>
    </g>
</svg>