<?xml version="1.0" encoding="UTF-8"?>
<svg width="24px" height="24px" viewBox="0 0 24 24" version="1.1" xmlns="http://www.w3.org/2000/svg" xmlns:xlink="http://www.w3.org/1999/xlink">
    <!-- Generator: Sketch 49.3 (51167) - http://www.bohemiancoding.com/sketch -->
    <title>icon/43-creadCard</title>
    <desc>Created with Sketch.</desc>
    <defs>
        <path d="M19.2599396,17.9580494 L4.73952717,17.9580494 C4.20412396,17.9580494 3.76737572,17.5218344 3.76737572,16.985898 L3.76737572,11.8206435 L20.232091,11.8206435 L20.232091,16.985898 C20.232091,17.5218344 19.795876,17.9580494 19.2599396,17.9580494 Z M3.76737572,11.0527345 L20.232091,11.0527345 L20.232091,9.61343841 L3.76737572,9.61343841 L3.76737572,11.0527345 Z M4.73952717,6.76790899 L19.2599396,6.76790899 C19.795876,6.76790899 20.232091,7.20359069 20.232091,7.74006044 L20.232091,8.84499615 L3.76737572,8.84499615 L3.76737572,7.74006044 C3.76737572,7.20359069 4.20412396,6.76790899 4.73952717,6.76790899 Z M19.2599396,6 C20.2192925,6 21,6.78070747 21,7.74006044 L21,9.22895064 L21,11.436689 L21,16.985898 C21,17.9452509 20.2192925,18.7259584 19.2599396,18.7259584 L4.73952717,18.7259584 C3.78070747,18.7259584 3,17.9452509 3,16.985898 L3,11.436689 L3,9.22895064 L3,7.74006044 C3,6.78070747 3.78070747,6 4.73952717,6 L19.2599396,6 Z M6.83122593,15.8760028 L5.2980743,15.8760028 C5.08636606,15.8760028 4.91411981,16.0482491 4.91411981,16.2599573 C4.91411981,16.4721989 5.08636606,16.6439118 5.2980743,16.6439118 L6.83122593,16.6439118 C7.04293417,16.6439118 7.21518042,16.4721989 7.21518042,16.2599573 C7.21518042,16.0482491 7.04293417,15.8760028 6.83122593,15.8760028 Z M10.6042188,15.8760028 L8.69724477,15.8760028 C8.48500326,15.8760028 8.31329028,16.0482491 8.31329028,16.2599573 C8.31329028,16.4721989 8.48500326,16.6439118 8.69724477,16.6439118 L10.6042188,16.6439118 C10.815927,16.6439118 10.9881733,16.4721989 10.9881733,16.2599573 C10.9881733,16.0482491 10.815927,15.8760028 10.6042188,15.8760028 Z" id="path-1"></path>
    </defs>
    <g id="icon/43-creadCard" stroke="none" stroke-width="1" fill="none" fill-rule="evenodd">
        <mask id="mask-2" fill="white">
            <use xlink:href="#path-1"></use>
        </mask>
        <use id="Fill-1" fill="#000000" xlink:href="#path-1"></use>
        <g id="Color/primary/default" mask="url(#mask-2)" fill="#3278BC">
            <rect id="Color" x="0" y="0" width="24" height="24"></rect>
        </g>
    </g>
</svg>