<?xml version="1.0" encoding="UTF-8"?>
<svg width="24px" height="24px" viewBox="0 0 24 24" version="1.1" xmlns="http://www.w3.org/2000/svg" xmlns:xlink="http://www.w3.org/1999/xlink">
    <!-- Generator: Sketch 49.3 (51167) - http://www.bohemiancoding.com/sketch -->
    <title>icon/44-Securities </title>
    <desc>Created with Sketch.</desc>
    <defs>
        <path d="M16.0412761,14.4394851 C16.0412761,14.1322233 18.0214076,13.6192808 18.4764237,12.9364768 C18.8642787,12.3544144 18.9233245,11.4169582 18.9233245,10.7366727 L18.9233245,7.5070659 C17.9626417,7.46509025 17.0019589,7.30866098 16.0412761,7.02686442 L16.0412761,14.4394851 Z M16.2161746,15.3651882 C17.332727,14.9823702 18.6605569,14.3656079 19.2907514,13.4200364 C19.791381,12.668952 19.7966979,11.6162026 19.7966979,10.7366727 L19.7966979,6.64152791 C18.4864978,6.67734714 17.2311459,6.50804533 16.0412761,6.11123548 C14.8511263,6.50804533 13.5960543,6.67734714 12.2858542,6.64152791 L12.2858542,10.7366727 C12.2858542,11.6162026 12.4657898,12.668952 12.9664195,13.4200364 C13.5968938,14.3656079 15.0996222,14.9823702 16.2161746,15.3651882 Z M16.2161746,16.4683084 C14.7450679,15.9942633 12.9339583,15.2596894 12.0941654,14.0001399 C11.4648104,13.0559675 11.237862,11.84483 11.237862,10.7366727 L11.237862,5.5093046 C12.8972996,5.72114174 14.5710088,5.56107458 16.0412761,5 C17.5115433,5.56107458 19.2725619,5.72114174 20.8446901,5.5093046 L20.8446901,10.7366727 C20.8446901,11.84483 20.7926403,13.0559675 20.1630055,14.0001399 C19.3234924,15.2596894 17.6872814,15.9942633 16.2161746,16.4683084 Z M20.9625017,14.7129145 C20.9753743,14.6941654 21,14.6748566 21,14.6558276 L21,18.4616203 C21,18.7182314 20.7918008,18.9267105 20.5346299,18.9267105 L3.46564992,18.9267105 C3.20847908,18.9267105 3,18.7182314 3,18.4616203 L3,7.22473765 C3,6.96784665 3.20819924,6.74565552 3.46537009,6.74565552 L3.46564992,6.74565552 L10.0214076,6.74565552 L10.0214076,7.75419057 L3.93102001,7.75419057 L3.93102001,17.9954107 L20.06898,17.9954107 L20.06898,15.6786344 C20.3790402,15.3973975 20.7193228,15.0778229 20.9625017,14.7129145 Z M7.95167203,16.6216315 C7.95167203,16.7556737 7.84225549,16.8648104 7.70849307,16.8648104 L7.23528753,16.8648104 C7.10152512,16.8648104 6.99210858,16.7556737 6.99210858,16.6216315 L6.99210858,16.1708129 C6.99210858,16.0451658 6.8972436,15.9405065 6.77243599,15.9284735 C6.30174899,15.8825801 5.85624738,15.7619701 5.53191549,15.6192528 C5.42165944,15.5711207 5.36401287,15.4524696 5.39367567,15.3360571 L5.56073877,14.6843151 C5.57920806,14.6123968 5.62398209,14.5578285 5.69058346,14.5253673 C5.75746467,14.493186 5.82770393,14.4920666 5.89542465,14.5222891 C6.27096684,14.6890723 6.73885546,14.8200364 7.24424234,14.8200364 C7.80615643,14.8200364 8.18421715,14.5970057 8.18421715,14.2192248 C8.18421715,13.8509584 7.87415699,13.6184133 7.1474185,13.3760739 C6.11034,13.0271163 5.40291031,12.5427172 5.40291031,11.6024626 C5.40291031,10.7920526 5.93320274,10.1529033 6.85722681,9.91783965 C6.96636351,9.89013572 7.04080034,9.79471107 7.04080034,9.68193648 L7.04080034,9.20005597 C7.04080034,9.06629355 7.14993704,8.95687701 7.28397929,8.95687701 L7.74739051,8.95687701 C7.88087309,8.95687701 7.99056947,9.06601371 7.99056947,9.20005597 L7.99056947,9.57951588 C7.99056947,9.70684203 8.08711347,9.81178117 8.21387995,9.82213516 C8.6232825,9.85543585 8.94173779,9.94218553 9.20422555,10.0443263 C9.32007835,10.0893802 9.38304184,10.2130684 9.35114034,10.3333986 L9.18855464,10.946523 C9.16980551,11.0167623 9.12615083,11.0699314 9.06122849,11.1021128 C8.9960263,11.1345739 8.92746607,11.1368126 8.86030502,11.1091087 C8.59865678,11.0010914 8.22143557,10.8852386 7.71884707,10.8852386 C7.08893242,10.8852386 6.88549042,11.1664754 6.88549042,11.4376382 C6.88549042,11.7479782 7.2246537,11.9612145 8.05829019,12.2614803 C9.21150133,12.6686442 9.6670771,13.2014552 9.6670771,14.0835036 C9.6670771,14.8961522 9.13342661,15.5968658 8.13972296,15.8291311 C8.02806772,15.8554358 7.95167203,15.9517 7.95167203,16.0664335 L7.95167203,16.6216315 Z" id="path-1"></path>
    </defs>
    <g id="icon/44-Securities-" stroke="none" stroke-width="1" fill="none" fill-rule="evenodd">
        <mask id="mask-2" fill="white">
            <use xlink:href="#path-1"></use>
        </mask>
        <use id="Fill-1" fill="#526684" xlink:href="#path-1"></use>
        <g id="Color/primary/default" mask="url(#mask-2)" fill="#3278BC">
            <rect id="Color" x="0" y="0" width="24" height="24"></rect>
        </g>
    </g>
</svg>