<?xml version="1.0" encoding="UTF-8"?>
<svg width="24px" height="24px" viewBox="0 0 24 24" version="1.1" xmlns="http://www.w3.org/2000/svg" xmlns:xlink="http://www.w3.org/1999/xlink">
    <!-- Generator: Sketch 49.3 (51167) - http://www.bohemiancoding.com/sketch -->
    <title>icon/45-mark</title>
    <desc>Created with Sketch.</desc>
    <defs>
        <path d="M12.4358768,12.0597946 C10.4372861,12.0597946 8.81195893,10.4344675 8.81195893,8.43587679 C8.81195893,6.43728609 10.4372861,4.81195893 12.4358768,4.81195893 C14.4344675,4.81195893 16.0597946,6.43728609 16.0597946,8.43587679 C16.0597946,10.4344675 14.4344675,12.0597946 12.4358768,12.0597946 Z M14.2478357,17.6152607 L12.4358768,16.4066841 L10.6239179,17.6152607 L10.6239179,13.5546608 C11.191061,13.7557882 11.7998792,13.8717536 12.4358768,13.8717536 C13.0718744,13.8717536 13.6806926,13.7557882 14.2478357,13.5546608 L14.2478357,17.6152607 Z M17.8717536,8.43587679 C17.8717536,5.43799074 15.4337628,3 12.4358768,3 C9.43799074,3 7,5.43799074 7,8.43587679 C7,10.0403664 7.70304006,11.4799678 8.81195893,12.4765452 L8.81195893,21 L12.4358768,18.5846587 L16.0597946,21 L16.0597946,12.4765452 C17.1687135,11.4799678 17.8717536,10.0403664 17.8717536,8.43587679 Z" id="path-1"></path>
    </defs>
    <g id="icon/45-mark" stroke="none" stroke-width="1" fill="none" fill-rule="evenodd">
        <mask id="mask-2" fill="white">
            <use xlink:href="#path-1"></use>
        </mask>
        <use id="Fill-1" fill="#505050" xlink:href="#path-1"></use>
        <g id="Color/primary/default" mask="url(#mask-2)" fill="#3278BC">
            <rect id="Color" x="0" y="0" width="24" height="24"></rect>
        </g>
    </g>
</svg>