<?xml version="1.0" encoding="UTF-8"?>
<svg width="24px" height="24px" viewBox="0 0 24 24" version="1.1" xmlns="http://www.w3.org/2000/svg" xmlns:xlink="http://www.w3.org/1999/xlink">
    <!-- Generator: Sketch 49.3 (51167) - http://www.bohemiancoding.com/sketch -->
    <title>icon/46-QRcode</title>
    <desc>Created with Sketch.</desc>
    <defs>
        <path d="M4.00009146,4 L4.00009146,5.76000764 L4.00009146,7.52001528 L4.00009146,9.28002292 L5.7600991,9.28002292 L7.52010674,9.28002292 L9.28011438,9.28002292 L9.28011438,7.52001528 L9.28011438,5.76000764 L9.28011438,4 L4.00009146,4 Z M5.2682482,8.01209485 L8.01218631,8.01209485 L8.01218631,5.26815673 L5.2682482,5.26815673 L5.2682482,8.01209485 Z M18.0799925,14.5597714 L16.3199849,14.5597714 L14.5597486,14.5597714 L14.5597486,16.3200077 L14.5597486,18.0800154 L14.5597486,19.8397944 L16.3199849,19.8397944 L18.0799925,19.8397944 L19.8400002,19.8397944 L19.8400002,14.5597714 L18.0799925,14.5597714 Z M15.8279053,18.5718663 L18.5718434,18.5718663 L18.5718434,15.8279282 L15.8279053,15.8279282 L15.8279053,18.5718663 Z M14.5598629,4 L14.5598629,5.76000764 L14.5598629,7.52001528 L14.5598629,9.28002292 L16.3200992,9.28002292 L18.0801068,9.28002292 L19.8398858,9.28002292 L19.8398858,4 L14.5598629,4 Z M15.8280196,8.01209485 L18.5719578,8.01209485 L18.5719578,5.26815673 L15.8280196,5.26815673 L15.8280196,8.01209485 Z M7.52001528,14.5597714 L5.76000764,14.5597714 L4,14.5597714 L4,16.3200077 L4,18.0800154 L4,19.8397944 L5.76000764,19.8397944 L7.52001528,19.8397944 L9.28025158,19.8397944 L9.28025158,18.0800154 L9.28025158,16.3200077 L9.28025158,14.5597714 L7.52001528,14.5597714 Z M5.26815673,18.5718663 L5.26815673,15.8279282 L8.01209485,15.8279282 L8.01209485,18.5718663 L5.26815673,18.5718663 Z M11.0401449,4 L12.7999239,4 L12.7999239,11.0400306 L16.3199391,11.0400306 L16.3199391,12.7998095 L4.00011433,12.7998095 L4.00011433,11.0400306 L11.0401449,11.0400306 L11.0401449,4 Z M18.0799239,12.7998324 L18.0799239,11.0400534 L19.8399316,11.0400534 L19.8399316,12.7998324 L18.0799239,12.7998324 Z M11.0400534,16.3199391 L11.0400534,14.5599315 L12.8000611,14.5599315 L12.8000611,16.3199391 L12.8000611,17.8510566 L12.8000611,18.0799468 L12.8000611,19.6110642 L11.0400534,19.6110642 L11.0400534,18.0799468 L11.0400534,17.8510566 L11.0400534,16.3199391 Z" id="path-1"></path>
    </defs>
    <g id="icon/46-QRcode" stroke="none" stroke-width="1" fill="none" fill-rule="evenodd">
        <mask id="mask-2" fill="white">
            <use xlink:href="#path-1"></use>
        </mask>
        <use id="Fill-6" fill="#3F3A3A" xlink:href="#path-1"></use>
        <g id="Color/primary/default" mask="url(#mask-2)" fill="#3278BC">
            <rect id="Color" x="0" y="0" width="24" height="24"></rect>
        </g>
    </g>
</svg>