<svg width="48" height="48" viewBox="0 0 48 48" fill="none" xmlns="http://www.w3.org/2000/svg">
<circle cx="24" cy="24" r="23.5" fill="#0044AD" stroke="#E1ECF4"/>
<mask id="mask0_1775:129076" style="mask-type:alpha" maskUnits="userSpaceOnUse" x="0" y="0" width="48" height="48">
<circle cx="24" cy="24" r="23.5" fill="#0044AD" stroke="#E1ECF4"/>
</mask>
<g mask="url(#mask0_1775:129076)">
<path opacity="0.1" d="M-3.8147e-06 48.5V0.5H48L-3.8147e-06 48.5Z" fill="white"/>
</g>
<path fill-rule="evenodd" clip-rule="evenodd" d="M29.2734 30.3018C32.0596 29.0509 34 26.252 34 23C34 18.5817 30.4183 15 26 15C24.5932 15 23.2712 15.3631 22.1226 16.0008C27.0366 16.0664 31 20.0703 31 25C31 26.9822 30.3592 28.8148 29.2734 30.3018ZM30 25C30 29.4183 26.4183 33 22 33C17.5817 33 14 29.4183 14 25C14 20.5817 17.5817 17 22 17C26.4183 17 30 20.5817 30 25ZM23.878 26.2996C23.516 26.9372 22.896 27.2998 22.3148 27.2998C21.7933 27.2998 21.2406 27.0079 20.8711 26.4873H21.75V25.4873H20.4714C20.4493 25.3482 20.4375 25.2022 20.4375 25.0498C20.4375 24.8974 20.4493 24.7514 20.4714 24.6123H21.75V23.6123H20.871C21.2406 23.0917 21.7933 22.7998 22.3148 22.7998C22.896 22.7998 23.5158 23.1623 23.8778 23.7997H25.4999C25.0362 22.3432 23.7853 21.2998 22.3148 21.2998C20.9082 21.2998 19.7024 22.2546 19.1945 23.6123H18V24.6123H18.9602C18.9452 24.7558 18.9375 24.9018 18.9375 25.0498C18.9375 25.1978 18.9452 25.3438 18.9602 25.4873H18V26.4873H19.1945C19.7025 27.845 20.9082 28.7998 22.3148 28.7998C23.7854 28.7998 25.0364 27.7562 25.5 26.2996H23.878Z" fill="white"/>
</svg>
