<svg width="24" height="24" viewBox="0 0 24 24" fill="none" xmlns="http://www.w3.org/2000/svg">
<path d="M20.5 9.25C20.5 4.69365 16.8063 1 12.25 1C7.69365 1 4 4.69365 4 9.25" stroke="black" stroke-width="1.5"/>
<path d="M18.032 9.25H20.4987V14.4667C20.4987 15.1294 19.9614 15.6667 19.2987 15.6667H18.032C17.3693 15.6667 16.832 15.1294 16.832 14.4667V10.45C16.832 9.78726 17.3693 9.25 18.032 9.25Z" stroke="black" stroke-width="1.5"/>
<path d="M6.46797 9.25H4.0013V14.4667C4.0013 15.1294 4.53856 15.6667 5.2013 15.6667H6.46797C7.13071 15.6667 7.66797 15.1294 7.66797 14.4667V10.45C7.66797 9.78726 7.13071 9.25 6.46797 9.25Z" stroke="black" stroke-width="1.5"/>
<path d="M20.4987 13.8333V17.2499C20.4987 18.9068 19.1556 20.2499 17.4987 20.2499H14.082" stroke="black" stroke-width="1.5"/>
<circle cx="12.25" cy="20.25" r="2" stroke="black" stroke-width="1.5"/>
</svg>
