<?xml version="1.0" encoding="UTF-8"?>
<svg width="24px" height="24px" viewBox="0 0 24 24" version="1.1" xmlns="http://www.w3.org/2000/svg" xmlns:xlink="http://www.w3.org/1999/xlink">
    <!-- Generator: Sketch 49.3 (51167) - http://www.bohemiancoding.com/sketch -->
    <title>icon/Retouch/approve</title>
    <desc>Created with Sketch.</desc>
    <defs>
        <path d="M8.56955732,18.392538 C8.74832018,18.8068601 8.97004438,18.8334378 9.22599201,19.1989733 L4.58543926,19.1989733 C4.26213698,19.1989733 4,18.9368363 4,18.613534 L4,3.58507518 C4,3.2617729 4.26213698,3 4.58543926,3 L15.0945837,3 C15.247497,3 15.3942209,3.05970898 15.5034446,3.16674825 L17.0540577,4.6740359 C17.166194,4.7839878 17.2299079,4.93471656 17.2299079,5.09236283 L17.2299079,9.78279443 C16.857819,9.60039078 16.8308771,9.45221057 16.4234726,9.34153051 L16.4234726,5.67743802 L15.0945837,5.67743802 C14.7712814,5.67743802 14.5091445,5.41566511 14.5091445,5.09236283 L14.5091445,3.8064353 L4.8064353,3.8064353 L4.8064353,18.392538 L8.56955732,18.392538 Z M5.95914627,12.5892985 C5.95914627,12.3675743 6.0931274,12.1877192 6.25841933,12.1877192 L9.06656176,12.1877192 C8.9034543,12.4440309 8.75782264,12.7119932 8.63003087,12.9908778 L6.25841933,12.9908778 C6.0931274,12.9908778 5.95914627,12.8106586 5.95914627,12.5892985 Z M12.5417336,9.45799943 C11.96394,9.653874 11.4203698,9.92256441 10.9259503,10.2607939 L6.25845574,10.2607939 C6.09316381,10.2607939 5.95918268,10.0809388 5.95918268,9.85957872 C5.95918268,9.63749044 6.09316381,9.45799943 6.25845574,9.45799943 L12.5417336,9.45799943 Z M15.2708708,7.12953127 C15.2708708,7.35125547 15.1368897,7.53111056 14.9715978,7.53111056 L6.25845574,7.53111056 C6.09316381,7.53111056 5.95918268,7.35125547 5.95918268,7.12953127 C5.95918268,6.90780707 6.09316381,6.72795197 6.25845574,6.72795197 L14.9715978,6.72795197 C15.1368897,6.72795197 15.2708708,6.90780707 15.2708708,7.12953127 Z M13.1539691,14.4271336 L14.6113779,15.8845424 L18.7189188,11.7770015 C18.8882156,11.6080688 19.1627312,11.6080688 19.332028,11.7770015 C19.5005967,11.9459342 19.5005967,12.220814 19.332028,12.3897467 L14.9179325,16.8034782 C14.754461,16.9665856 14.4690229,16.9673138 14.3051873,16.8034782 L12.5412239,15.0398788 C12.4596701,14.957961 12.4145243,14.8491013 12.4145243,14.7336882 C12.4145243,14.617547 12.4596701,14.5090514 12.5412239,14.4271336 C12.6231417,14.3452158 12.7320013,14.30007 12.8477785,14.30007 C12.9635557,14.30007 13.0720513,14.3452158 13.1539691,14.4271336 Z M19.7329884,14.3599246 C19.8585957,14.812839 19.9219455,15.2806807 19.9219455,15.7547118 C19.9219455,18.6469565 17.5685379,21 14.6759291,21 C11.7836844,21 9.4306409,18.6469565 9.4306409,15.7547118 C9.4306409,12.8624671 11.7836844,10.5090595 14.6759291,10.5090595 C15.5005684,10.5090595 16.3150134,10.7049341 17.0468125,11.077023 L16.3426834,11.781152 C15.8144046,11.5579715 15.2540868,11.445107 14.6759291,11.445107 C12.2995845,11.445107 10.3663243,13.3783672 10.3663243,15.7547118 C10.3663243,18.1310564 12.2995845,20.0643166 14.6759291,20.0643166 C17.0526378,20.0643166 18.985898,18.1310564 18.985898,15.7547118 C18.985898,15.5544683 18.9713348,15.3516762 18.9429367,15.1503404 L19.7329884,14.3599246 Z" id="path-1"></path>
    </defs>
    <g id="icon/Retouch/approve" stroke="none" stroke-width="1" fill="none" fill-rule="evenodd">
        <mask id="mask-2" fill="white">
            <use xlink:href="#path-1"></use>
        </mask>
        <use id="Combined-Shape" fill="#231916" xlink:href="#path-1"></use>
        <g id="Color/primary/light" mask="url(#mask-2)" fill="#3278bc">
            <rect id="Color" x="0" y="0" width="24" height="24"></rect>
        </g>
    </g>
</svg>