<?xml version="1.0" encoding="UTF-8"?>
<svg width="24px" height="24px" viewBox="0 0 24 24" version="1.1" xmlns="http://www.w3.org/2000/svg" xmlns:xlink="http://www.w3.org/1999/xlink">
    <!-- Generator: Sketch 49.3 (51167) - http://www.bohemiancoding.com/sketch -->
    <title>icon/enquire</title>
    <desc>Created with Sketch.</desc>
    <defs>
        <path d="M12,19.9607146 C7.61044789,19.9607146 4.03928541,16.3895521 4.03928541,12 C4.03928541,7.61044789 7.61044789,4.03928541 12,4.03928541 C16.3895521,4.03928541 19.9607146,7.61044789 19.9607146,12 C19.9607146,16.3895521 16.3895521,19.9607146 12,19.9607146 M18.3639827,5.63601727 C20.0638388,7.33591567 21,9.59601219 21,12 C21,14.4039878 20.0638388,16.6640843 18.3639827,18.3639404 C16.6640843,20.0638811 14.4040301,21 12,21 C9.59601219,21 7.33591567,20.0638811 5.63601727,18.3639404 C3.93616121,16.6640843 3,14.4039878 3,12 C3,9.59601219 3.93616121,7.33591567 5.63601727,5.63601727 C7.33591567,3.93616121 9.59601219,3 12,3 C14.4040301,3 16.6640843,3.93616121 18.3639827,5.63601727 Z M12.2494212,15.952533 C11.8398152,15.952533 11.5107138,16.2815367 11.5107138,16.6844502 C11.5107138,17.0883408 11.8398152,17.4173933 12.2494212,17.4173933 C12.6623978,17.4173933 12.9936974,17.0883408 12.9936974,16.6844502 C12.9936974,16.2815367 12.6623978,15.952533 12.2494212,15.952533 Z M12.987982,14.1722492 C12.9499768,12.8081661 15.3038066,12.5527792 15.3038066,10.2698793 C15.3038066,7.98580709 13.2972015,7.48768521 12.3310981,7.50810445 C11.3689515,7.52857253 9.35037823,7.83715701 9.3593666,10.4298626 C9.3593666,11.3977734 10.8491892,11.4238592 10.8491892,10.4298626 C10.8491892,9.46312412 11.3689515,8.81068558 12.3310981,8.81068558 C13.2972015,8.81068558 13.9859355,9.13412041 13.9859355,10.4298626 C13.9859355,11.7336161 11.4426171,11.9151421 11.5107138,14.4945117 C11.5107138,14.845107 11.8318527,15.1401601 12.1677442,15.1401601 L12.3310981,15.1401601 C12.6668919,15.1401601 12.9936974,14.8111564 12.9936974,14.4945117 C12.9936974,14.333356 12.987982,14.4479578 12.987982,14.1722492 Z" id="path-1"></path>
    </defs>
    <g id="icon/enquire" stroke="none" stroke-width="1" fill="none" fill-rule="evenodd">
        <mask id="mask-2" fill="white">
            <use xlink:href="#path-1"></use>
        </mask>
        <use id="Fill-1" fill="#1E1E1E" xlink:href="#path-1"></use>
        <g id="Color/primary/light" mask="url(#mask-2)" fill="#44AF35">
            <rect id="Color" x="0" y="0" width="24" height="24"></rect>
        </g>
    </g>
</svg>