<svg xmlns="http://www.w3.org/2000/svg" xmlns:xlink="http://www.w3.org/1999/xlink" width="84" height="84" viewBox="0 0 84 84">
    <defs>
        <path id="a" d="M41.918 75.937c18.79 0 34.02-15.231 34.02-34.02s-15.23-34.02-34.02-34.02c-18.788 0-34.02 15.231-34.02 34.02s15.232 34.02 34.02 34.02zm0 7.56c-22.964 0-41.58-18.616-41.58-41.58S18.954.337 41.918.337s41.58 18.616 41.58 41.58-18.616 41.58-41.58 41.58z"/>
        <path id="c" d="M27.107 22.185V2.497a2.46 2.46 0 1 0-4.922 0v19.688H2.497a2.46 2.46 0 0 0 0 4.922h19.688v19.687a2.46 2.46 0 0 0 4.922 0V27.107h19.687a2.46 2.46 0 1 0 0-4.922H27.107z"/>
    </defs>
    <g fill="none" fill-rule="evenodd">
        <path fill="#000" fill-rule="nonzero" d="M41.582 76.42c18.789 0 34.02-15.232 34.02-34.02 0-18.79-15.231-34.02-34.02-34.02S7.562 23.61 7.562 42.4c0 18.788 15.231 34.02 34.02 34.02zm0 7.56C18.618 83.98.002 65.362.002 42.4.002 19.434 18.618.82 41.582.82s41.58 18.615 41.58 41.58c0 22.963-18.616 41.58-41.58 41.58z"/>
        <g transform="translate(-.337 .482)">
            <mask id="b" fill="#fff">
                <use xlink:href="#a"/>
            </mask>
            <g fill="#C52100" mask="url(#b)">
                <path d="M-12-13H95.926V96.964H-12z"/>
            </g>
        </g>
        <g>
            <path fill="#000" d="M44.107 39.185V19.497a2.46 2.46 0 1 0-4.922 0v19.688H19.497a2.46 2.46 0 0 0 0 4.922h19.688v19.687a2.46 2.46 0 0 0 4.922 0V44.107h19.687a2.46 2.46 0 1 0 0-4.922H44.107z"/>
            <g transform="translate(17 17)">
                <mask id="d" fill="#fff">
                    <use xlink:href="#c"/>
                </mask>
                <g fill="#C52100" mask="url(#d)">
                    <path d="M-2.344-1.563h53.125v54.689H-2.344z"/>
                </g>
            </g>
        </g>
    </g>
</svg>
