<?xml version="1.0" encoding="utf-8"?>
<!-- Generator: Adobe Illustrator 22.0.1, SVG Export Plug-In . SVG Version: 6.00 Build 0)  -->
<svg version="1.1" id="圖層_1" xmlns="http://www.w3.org/2000/svg" xmlns:xlink="http://www.w3.org/1999/xlink" x="0px" y="0px"
	 viewBox="0 0 232.3 56.7" style="enable-background:new 0 0 232.3 56.7;" xml:space="preserve">
<style type="text/css">
	.st0{fill:#002F7C;}
	.st1{fill:#44AF35;}
	.st2{fill:url(#SVGID_1_);}
	.st3{fill:url(#SVGID_2_);}
	.st4{fill:#FFFFFF;}
	.st5{fill:url(#SVGID_3_);}
</style>
<g>
	<g>
		<path class="st0" d="M92.7,13.5H80.2v2.4h12.5V13.5z M93.2,28.2l-3,0.5l1.1-3.4h-2.5l-1.3,3.8l-2.3,0.4c-0.1-1.3-0.4-2.7-1-4.2
			h-2.6c0.6,1.4,1,3.2,1.2,4.6c-1.4,0.2-2.5,0.4-3.5,0.5v2.9c3.4-0.6,10-2.2,13.9-3V28.2z M82,12.2h10.7V5h-2.7v4.8h-2.3V4h-2.7v5.8
			h-2.3V5h-2.7v5.4C80.2,11.4,81,12.2,82,12.2z M82,24.4h10.7V19c0-1-0.8-1.8-1.8-1.8H80.2v5.4C80.2,23.6,81,24.4,82,24.4z M83,19.3
			h6.9v2.9H83V19.3z M106.5,31.1c-0.6-0.1-0.9-0.4-0.9-1l0-23.3c0-1-0.8-1.8-1.8-1.8h-7.4v14.5c0,5.2-0.4,10.4-3.8,14h3
			c3.4-3.9,3.5-8.3,3.5-14V7.4h3.4l0,23.2c0,1.7,0.5,2.7,2.1,3c0.9,0.2,3.1,0.1,4.7,0l0.5-2.6C108.5,31.1,107.1,31.1,106.5,31.1z"/>
		<g>
			<path class="st0" d="M150.6,19.4h-7.7v-10h5V7h-5V4H140v3h-9.7V4h-2.9v3h-5v2.4h5v10h-7.7v2.4h7.2c-1.1,1.9-4.2,4.2-7.2,5.1v2.8
				c3.7-1.1,6-2.5,7.5-3.9v2h6.4v3.2h-11v2.4h25v-2.4h-11v-3.2h6.4v-2c1.5,1.3,3.8,2.7,7.5,3.9V27c-3-0.9-6.1-3.1-7.2-5.1h7.2V19.4z
				 M130.3,9.4h9.6v1.7h-9.6V9.4z M130.3,13.6h9.6v1.7h-9.6V13.6z M130.3,17.7h9.6v1.7h-9.6V17.7z M136.7,25.4v-2.5h-3.1v2.5h-6
				c1.6-1.5,2.3-2.8,2.6-3.6h9.9c0.3,0.7,1,2.1,2.6,3.6H136.7z"/>
		</g>
		<g>
			<rect x="213.7" y="5.1" class="st0" width="17.2" height="2.7"/>
			<path class="st0" d="M212.4,13.3v2.7h10.8v14.2c0,0.6-0.2,0.9-0.9,1c-0.6,0-2,0.1-3.4,0l0.5,2.6c1.6,0.1,4,0.1,4.8,0
				c1.6-0.3,2.1-1.2,2.1-3V15.9h5.9v-2.7H212.4z"/>
			<path class="st0" d="M201.3,18.9v2.9c1-0.4,2.3-1.4,3.4-2.3v14.1h3.1V16.4c1.5-1.7,3-4.9,3.8-6.6h-3
				C207.3,13.1,204.7,16.2,201.3,18.9z"/>
			<path class="st0" d="M209.7,3.5h-3c-1.2,3-3.6,5.7-5.2,6.4V13C206.9,10.2,209.1,5.3,209.7,3.5z"/>
		</g>
		<g>
			<path class="st0" d="M185.2,25.5l4.5-2.3v-2.6l-5.7,2.8c-0.7-1.5-1.1-3-1.1-4.6h6.8V6c0-1-0.8-1.8-1.8-1.8h-11.8v26.4
				c0,0-1.8,0.5-1.8,0.5V34c0,0,8-2.5,8-2.4v-2.4c-0.1,0-3.7,0.7-3.7,0.8V19h1.8c0.3,6.8,5.5,12.7,11.8,14.8v-2.4
				C189.2,30,186.8,27.9,185.2,25.5z M178.6,6.6h8.6v3.8h-8.6V6.6z M178.6,16.6v-3.8h8.6v3.8H178.6z M169,13.5h3v-2.3h-7.7
				c1.5-1.7,2.9-3.2,4-5c2,2.6,5.4,5.4,5.4,5.4V8.6c-1.9-1.5-4.5-5.2-4.5-5.2l-2.1,0c-1.3,2.6-3.2,5.1-5.8,7.4v3.1
				c0,0,1.8-1.3,2.2-1.8v1.5h3v3.1h-4.9V19h4.9v9.8c-1.9,0.4-3.8,0.8-5.1,1v3c0,0,12.3-3.1,12.3-3v-2.4c-1.3,0.3-3.2,0.7-4.8,1V19
				h4.8v-2.3H169V13.5z M171.7,26.9c0.8-2,1.6-3.9,2.1-5.7h-2.5c-0.3,1.6-0.8,3-1.6,5.1L171.7,26.9z M164.1,21.2h-2.3
				c0.8,2,1.5,4.6,1.7,6.2l2.3-0.7C165.6,25,164.9,22.7,164.1,21.2z"/>
		</g>
	</g>
	<g>
		<polygon class="st0" points="0,28.3 28.3,0 0,0 		"/>
		<polygon class="st0" points="28.3,56.7 0,28.3 0,56.7 		"/>
		<polygon class="st0" points="28.3,56.7 56.7,28.3 56.7,56.7 		"/>
		<polygon class="st1" points="56.7,28.3 28.3,0 56.7,0 		"/>
		<linearGradient id="SVGID_1_" gradientUnits="userSpaceOnUse" x1="14.2246" y1="14.224" x2="28.7057" y2="28.705">
			<stop  offset="0" style="stop-color:#E73E0C"/>
			<stop  offset="0.2" style="stop-color:#E95504"/>
			<stop  offset="0.52" style="stop-color:#F08600"/>
			<stop  offset="1" style="stop-color:#FFE600"/>
		</linearGradient>
		<polygon class="st2" points="28.3,0 0,28.3 28.3,28.3 		"/>
		
			<linearGradient id="SVGID_2_" gradientUnits="userSpaceOnUse" x1="-3143.2681" y1="4388.2173" x2="-3128.7869" y2="4402.6982" gradientTransform="matrix(0 -1 1 0 -4373.9922 -3100.8003)">
			<stop  offset="0" style="stop-color:#E73E0C"/>
			<stop  offset="0.2" style="stop-color:#E95504"/>
			<stop  offset="0.52" style="stop-color:#F08600"/>
			<stop  offset="1" style="stop-color:#FFE600"/>
		</linearGradient>
		<polygon class="st3" points="0,28.3 28.3,56.7 28.3,28.3 		"/>
		<polygon class="st4" points="56.7,28.3 28.3,56.7 28.3,28.3 		"/>
		<linearGradient id="SVGID_3_" gradientUnits="userSpaceOnUse" x1="42.6264" y1="14.0665" x2="28.3472" y2="28.3457">
			<stop  offset="0" style="stop-color:#003383"/>
			<stop  offset="0.2" style="stop-color:#003787"/>
			<stop  offset="0.52" style="stop-color:#005BA9"/>
			<stop  offset="1" style="stop-color:#009FE8"/>
		</linearGradient>
		<polygon class="st5" points="56.7,28.3 28.3,0 28.3,28.3 		"/>
	</g>
	<g>
		<path class="st0" d="M93.3,52.3c-0.4,0.2-0.8,0.2-1.3,0.2c-1.6,0-3.3-1.3-3.3-3.6c0-2.2,1.4-3.5,3.5-3.5c0.7,0,1.5,0.2,2.1,0.5
			l0,0l0.7-1.2l0,0c-0.6-0.4-1.7-0.8-2.8-0.8c-3.4,0-5.5,2.3-5.5,5c0,2.9,2.1,5.1,5.5,5.1c1.1,0,2.2-0.3,3.2-0.6l0,0v-4.1h-2V52.3z
			 M96.9,44v9.8h2V44H96.9z M86.7,44h-2.1l-3.3,4.1V44h-2v9.8h2v-4.8l3.5,4.8h2.5l-4.3-5.4L86.7,44z"/>
		<g>
			<polygon class="st0" points="135.7,48.4 139.3,44 137.3,44 133.9,48.2 133.9,44 131.9,44 131.9,53.8 133.9,53.8 133.9,48.9 
				137.5,53.8 140,53.8 			"/>
			<path class="st0" d="M128.6,51c-1.8-2.5-3.6-4.6-5.5-6.8l0,0h-1.5v9.8h1.6v-6.9c1.8,2.5,3.6,4.7,5.5,6.9l0,0h1.5v-9.8h-1.6V51z"
				/>
			<path class="st0" d="M109.4,48.7c0.7-0.2,1.8-0.9,1.8-2.4c0-1.3-1.2-2.1-2.8-2.1l-3.5,0v9.8h3.2c2.3,0,3.7-1.2,3.7-2.9
				C111.8,49.6,110.6,48.8,109.4,48.7z M106.9,45.5h1c0.8,0,1.4,0.4,1.4,1.2c0,0.9-0.7,1.6-1.8,1.6h-0.6V45.5z M107.9,52.7h-1v-3.2
				h0.9c1.1,0,1.9,0.5,1.9,1.6C109.7,52.1,108.9,52.7,107.9,52.7z"/>
			<path class="st0" d="M115.7,44.2l-4,9.8h1.8l1-2.6h3.4l0.9,2.6h2.3l-3.7-9.8H115.7z M115,50c0.4-1.2,0.9-2.4,1.3-3.8
				c0.4,1.4,0.8,2.6,1.2,3.8H115z"/>
		</g>
	</g>
</g>
</svg>
