<svg width="48" height="48" viewBox="0 0 48 48" fill="none" xmlns="http://www.w3.org/2000/svg">
<rect x="3" y="6.12134" width="3" height="3" transform="rotate(-45 3 6.12134)" fill="#FF623E"/>
<path d="M39 37.9985L39 40.9985L36 40.9985L39 37.9985Z" fill="#0044AD"/>
<path d="M5.96582 14.6869C5.96582 13.5823 6.86125 12.6869 7.96582 12.6869H39.9658C41.0704 12.6869 41.9658 13.5823 41.9658 14.6869V33.1869C41.9658 34.2915 41.0704 35.1869 39.9658 35.1869H7.96582C6.86125 35.1869 5.96582 34.2915 5.96582 33.1869V14.6869Z" fill="#0044AD"/>
<rect x="30.7161" y="16.3408" width="7.31251" height="4.5" fill="white"/>
<rect x="8.21619" y="30.1235" width="14.0625" height="0.281248" fill="white"/>
<rect x="8.21619" y="31.8093" width="5.625" height="0.281254" fill="white"/>
<ellipse cx="11.3081" cy="18.8721" rx="2.53125" ry="2.53125" fill="white"/>
</svg>
