<svg width="161" height="160" viewBox="0 0 161 160" fill="none" xmlns="http://www.w3.org/2000/svg">
<rect x="74.25" y="32" width="46" height="96" rx="2" fill="#E9EAEE"/>
<circle cx="97.25" cy="105" r="10.5" stroke="#0044AD" stroke-width="3"/>
<line x1="105.739" y1="97.7745" x2="90.3108" y2="113.203" stroke="#0044AD" stroke-width="3"/>
<path d="M68.499 112.967L61.2169 112.967C47.4278 112.967 36.2496 101.789 36.2496 88V88" stroke="#C4C4C4" stroke-dasharray="5 5"/>
<path d="M64.3409 109.086L68.9028 112.841L64.3409 116.597L64.3409 109.086Z" fill="#0044AD"/>
<rect x="74.25" y="40" width="46" height="0.505828" fill="#C2C6C9"/>
<rect x="91.25" y="122" width="12" height="0.505828" fill="#C2C6C9"/>
<path d="M22.25 40.6748L24.9243 38.0005L27.5986 40.6748L24.9243 43.3491L22.25 40.6748Z" fill="#0044AD"/>
<rect x="29.25" y="45" width="58" height="36.6644" rx="2" fill="#0044AD"/>
<rect x="58.5293" y="65.1426" width="22.3871" height="0.591216" rx="0.295608" fill="white"/>
<rect x="58.5293" y="68.6875" width="16.4958" height="0.591216" rx="0.295608" fill="white"/>
<rect x="58.5293" y="71.6479" width="16.4958" height="0.591216" rx="0.295608" fill="white"/>
<rect x="58.5293" y="55.0938" width="8.83703" height="0.591218" rx="0.295609" fill="white"/>
<path fill-rule="evenodd" clip-rule="evenodd" d="M44.1902 62.8267C46.8382 62.8267 48.9849 60.6725 48.9849 58.0151C48.9849 55.3578 46.8382 53.2036 44.1902 53.2036C41.5423 53.2036 39.3956 55.3578 39.3956 58.0151C39.3956 60.6725 41.5423 62.8267 44.1902 62.8267ZM54.0999 74.3746C54.0999 74.4025 54.0998 74.4304 54.0996 74.4582V74.3748H34.2822V74.3746C34.2822 68.8828 38.7186 64.4308 44.1911 64.4308C49.6636 64.4308 54.0999 68.8828 54.0999 74.3746Z" fill="white"/>
</svg>
