<svg width="325" height="186" viewBox="0 0 325 186" fill="none" xmlns="http://www.w3.org/2000/svg">
<g clip-path="url(#clip0_1760:115679)">
<path d="M126.426 22.3779H209.252V2.00011H146.426C135.38 2.00011 126.426 10.9544 126.426 22.0001V22.3779Z" fill="#CCD9EF"/>
<path fill-rule="evenodd" clip-rule="evenodd" d="M257.614 2H152.718V2.00003L137.601 2.00003V2.53943C146.184 4.59108 152.589 12.2555 152.718 21.4373V228.128H277.614V22C277.614 10.9543 268.66 2 257.614 2Z" fill="white"/>
<path d="M219.77 161.079H198.734" stroke="#E1ECF4" stroke-width="4"/>
<path d="M230.285 168.31H198.732" stroke="#E1ECF4" stroke-width="4"/>
<circle cx="177.701" cy="165.023" r="12.4896" fill="#E1ECF4"/>
<path fill-rule="evenodd" clip-rule="evenodd" d="M177.872 164.21C178.923 164.21 179.775 163.358 179.775 162.306C179.775 161.255 178.923 160.403 177.872 160.403C176.821 160.403 175.969 161.255 175.969 162.306C175.969 163.358 176.821 164.21 177.872 164.21ZM177.297 165.178C175.181 165.178 173.465 166.893 173.465 169.01C173.465 169.328 173.722 169.585 174.04 169.585H181.704C182.022 169.585 182.279 169.328 182.279 169.01C182.279 166.893 180.563 165.178 178.447 165.178H177.297Z" fill="white"/>
<path d="M169.812 21.7207H238.177" stroke="#E1ECF4" stroke-width="4"/>
<path d="M247.38 20.6351L252.216 25.472L261.648 16.04" stroke="#E1ECF4" stroke-width="3"/>
<path d="M169.812 30.9238H223.058" stroke="#E1ECF4" stroke-width="4"/>
<rect x="91.5869" y="40.126" width="157.764" height="98.6023" rx="12" fill="#0044AD"/>
<rect x="104.735" y="80.2246" width="21.6925" height="19.0631" rx="6" fill="white" fill-opacity="0.4"/>
<path d="M122.429 62.8661C122.341 62.8988 122.248 62.9137 122.155 62.91C122.062 62.9072 121.97 62.8857 121.886 62.8467C121.801 62.8076 121.725 62.7519 121.663 62.6827C121.6 62.6136 121.553 62.5326 121.522 62.4445C121.492 62.3564 121.48 62.2631 121.486 62.1702C121.479 62.0744 121.491 61.9779 121.524 61.8874C121.556 61.7968 121.607 61.7143 121.674 61.6453C121.741 61.5762 121.822 61.5223 121.912 61.4872C122.001 61.452 122.097 61.4364 122.193 61.4414C122.341 61.4427 122.486 61.4783 122.618 61.5455L122.755 61.2935C122.582 61.1897 122.384 61.1357 122.182 61.1373C122.037 61.1224 121.891 61.138 121.752 61.1833C121.614 61.2285 121.486 61.3024 121.378 61.4C121.27 61.4976 121.184 61.6168 121.124 61.75C121.065 61.8831 121.035 62.0272 121.035 62.173C121.035 62.3187 121.065 62.4628 121.124 62.5959C121.184 62.7291 121.27 62.8483 121.378 62.9459C121.486 63.0436 121.614 63.1174 121.752 63.1626C121.891 63.2079 122.037 63.2235 122.182 63.2086C122.41 63.203 122.636 63.1623 122.851 63.088V62.2524H122.429V62.8661ZM123.18 63.1785H123.596V61.1729H123.18V63.1785ZM121.07 61.1729H120.643L119.96 62.0223V61.1729H119.544V63.1785H119.96V62.1839L120.689 63.1785H121.204L120.33 62.0825L121.07 61.1729Z" fill="white"/>
<path d="M131.151 62.0715L131.893 61.1729H131.466L130.783 62.0249V61.1729H130.364V63.1784H130.783V62.1838L131.509 63.1784H132.025L131.151 62.0715Z" fill="white"/>
<path d="M129.677 62.6145C129.305 62.1104 128.929 61.6611 128.554 61.2117H128.247V63.2173H128.584V61.798C128.97 62.3076 129.335 62.757 129.71 63.2008H130.011V61.209H129.677V62.6145Z" fill="white"/>
<path d="M125.745 62.1241C125.851 62.0953 125.946 62.0322 126.013 61.9446C126.08 61.8569 126.117 61.7496 126.117 61.6391C126.117 61.3652 125.876 61.209 125.539 61.209H124.811V63.2145H125.479C125.959 63.2008 126.232 62.9679 126.232 62.6172C126.226 62.4879 126.172 62.3656 126.08 62.2743C125.989 62.183 125.866 62.1294 125.737 62.1241H125.745ZM125.222 61.4693H125.419C125.591 61.4693 125.712 61.5432 125.715 61.7131C125.712 61.7596 125.701 61.8051 125.68 61.8469C125.659 61.8887 125.631 61.9259 125.595 61.9561C125.56 61.9864 125.519 62.0091 125.474 62.0229C125.43 62.0367 125.383 62.0413 125.337 62.0364H125.222V61.4693ZM125.416 62.9515H125.222V62.2994H125.411C125.627 62.2994 125.794 62.3953 125.794 62.6227C125.794 62.8501 125.632 62.9515 125.413 62.9515" fill="white"/>
<path d="M127.035 61.209L126.213 63.2145H126.577L126.783 62.6666H127.473L127.657 63.2145H128.125L127.372 61.209H127.035ZM126.898 62.409C126.988 62.1597 127.079 61.9241 127.158 61.6309C127.249 61.9241 127.331 62.157 127.413 62.409H126.898Z" fill="white"/>
<path d="M122.308 55.3501H119.747V55.8378H122.308V55.3501ZM122.399 58.3639L121.774 58.4708L122.007 57.7749H121.503L121.229 58.5612L120.747 58.6434C120.721 58.3468 120.654 58.0554 120.547 57.7776H120.021C120.14 58.0795 120.22 58.3953 120.259 58.7174L119.544 58.8187V59.4133C120.245 59.2872 121.604 58.9585 122.399 58.7913V58.3639ZM120.111 55.0762H122.303V53.6022H121.755V54.5912H121.295V53.3994H120.747V54.5912H120.281V53.6022H119.733V54.6981C119.733 54.7462 119.742 54.7938 119.76 54.8384C119.778 54.8829 119.805 54.9234 119.839 54.9575C119.873 54.9916 119.913 55.0187 119.957 55.0372C120.002 55.0557 120.049 55.0652 120.097 55.0652L120.111 55.0762ZM120.097 57.5776H122.289V56.4735C122.289 56.3761 122.251 56.2827 122.182 56.2139C122.113 56.145 122.019 56.1063 121.922 56.1063H119.73V57.2187C119.73 57.2668 119.739 57.3144 119.757 57.359C119.775 57.4035 119.802 57.444 119.836 57.4781C119.87 57.5123 119.91 57.5393 119.955 57.5578C119.999 57.5763 120.047 57.5858 120.095 57.5858L120.097 57.5776ZM120.297 56.5502H121.722V57.1392H120.297V56.5502ZM125.13 58.9585C124.999 58.9448 124.955 58.8845 124.955 58.7557V53.9666C124.955 53.8699 124.917 53.7772 124.848 53.7089C124.78 53.6405 124.687 53.6022 124.591 53.6022H123.07V56.5885C123.07 57.6598 122.985 58.7174 122.297 59.4708H122.914C123.615 58.6489 123.64 57.7612 123.64 56.5885V54.0926H124.333V58.8571C124.333 59.2133 124.434 59.405 124.758 59.4708C125.079 59.4976 125.401 59.4976 125.722 59.4708L125.824 58.9448C125.595 58.9579 125.365 58.9579 125.136 58.9448" fill="white"/>
<path d="M134.205 56.574H132.618V54.5137H133.649V54.0123H132.618V53.4014H132.018V54.0123H130.029V53.4014H129.432V54.0123H128.402V54.5137H129.432V56.574H127.846V57.0754H129.317C128.959 57.5805 128.44 57.9494 127.846 58.122V58.6864C128.409 58.5364 128.934 58.2673 129.385 57.8974V58.3083H130.712V58.9686H128.457V59.47H133.594V58.9686H131.339V58.3083H132.665V57.8974C133.116 58.2693 133.641 58.5402 134.205 58.6919V58.122C133.61 57.9494 133.092 57.5805 132.733 57.0754H134.205V56.574ZM130.038 54.5137H132.013V54.8644H130.038V54.5137ZM130.038 55.3685H132.013V55.722H130.038V55.3685ZM130.038 56.2234H132.013V56.574H130.038V56.2234ZM131.342 57.8097V57.2891H130.706V57.8097H129.476C129.701 57.6037 129.882 57.3538 130.007 57.0754H132.043C132.168 57.3538 132.349 57.6037 132.575 57.8097H131.342Z" fill="white"/>
<path d="M146.899 55.3027V55.8507H149.119V58.7631C149.119 58.8919 149.075 58.9521 148.943 58.9658C148.714 58.9776 148.485 58.9776 148.256 58.9658L148.354 59.4919C148.685 59.5202 149.018 59.5202 149.349 59.4919C149.672 59.4398 149.773 59.2371 149.773 58.8809V55.8671H150.982V55.3192L146.899 55.3027Z" fill="white"/>
<path d="M144.629 56.4615V57.0752C144.881 56.9474 145.118 56.7921 145.336 56.6122V59.4972H145.982V55.9519C146.302 55.5317 146.564 55.0711 146.763 54.582H146.149C145.8 55.3179 145.278 55.9588 144.629 56.4506" fill="white"/>
<path d="M146.346 53.2934H145.729C145.525 53.8333 145.153 54.294 144.669 54.6085V55.2414C145.447 54.8148 146.043 54.1194 146.346 53.2852" fill="white"/>
<path d="M141.295 57.826L142.221 57.363V56.8287L141.06 57.4123C140.922 57.117 140.844 56.7978 140.829 56.4725H142.224V53.8149C142.224 53.7176 142.185 53.6242 142.116 53.5553C142.048 53.4865 141.954 53.4478 141.857 53.4478H139.432V58.8644C139.432 58.8644 139.065 58.9575 139.057 58.9575V59.563C139.057 59.563 140.701 59.0589 140.701 59.0616V58.5767C140.701 58.5767 139.936 58.7274 139.942 58.7356V56.4725H140.306C140.369 57.8753 141.438 59.0918 142.728 59.5137V59.0288C142.153 58.7605 141.659 58.3457 141.295 57.826ZM139.925 53.9382H141.692V54.7273H139.925V53.9382ZM139.925 55.1931H141.692V55.9794H139.925V55.1931ZM137.969 55.3547H138.586V54.8835H137.007C137.309 54.565 137.584 54.2222 137.829 53.8588C138.158 54.2649 138.525 54.6383 138.925 54.9739V54.3355C138.584 54.0123 138.276 53.6562 138.005 53.2725H137.596C137.305 53.8501 136.902 54.3642 136.41 54.7848V55.4314C136.57 55.3197 136.721 55.196 136.862 55.0615V55.3602H137.49V55.9986H136.49V56.4725H137.49V58.4808C137.098 58.5603 136.709 58.6342 136.451 58.6836V59.2918C136.451 59.2918 138.977 58.6562 138.983 58.6671V58.1712C138.723 58.237 138.323 58.3055 137.988 58.3794V56.4616H138.983V55.9931H137.988L137.969 55.3547ZM138.517 58.0945C138.69 57.678 138.84 57.2726 138.947 56.9273H138.438C138.357 57.2851 138.248 57.636 138.112 57.9767L138.517 58.0945ZM136.944 56.9273H136.476C136.641 57.3366 136.759 57.763 136.829 58.1986L137.303 58.0589C137.246 57.6648 137.124 57.2826 136.944 56.9273Z" fill="white"/>
<path d="M150.701 53.623H147.164V54.1683H150.701V53.623Z" fill="white"/>
<rect x="104.735" y="53.2734" width="9.97501" height="9.97501" fill="white"/>
<path d="M105.029 58.2604L109.722 53.5674H105.029V58.2604Z" fill="#00377B"/>
<path d="M109.721 62.956L105.028 58.2607V62.956H109.721Z" fill="#00377B"/>
<path d="M109.724 62.956L114.419 58.2607V62.956H109.724Z" fill="#00377B"/>
<path d="M114.419 58.2604L109.724 53.5674H114.419V58.2604Z" fill="#50B848"/>
<path d="M109.722 53.5674L105.029 58.2604H109.722V53.5674Z" fill="url(#paint0_linear_1760:115679)"/>
<path d="M109.721 62.9551L105.028 58.262H109.721V62.9551Z" fill="url(#paint1_linear_1760:115679)"/>
<path d="M114.419 58.2607L109.724 62.956V58.2607H114.419Z" fill="white"/>
<path d="M114.419 58.2604L109.724 53.5674V58.2604H114.419Z" fill="url(#paint2_linear_1760:115679)"/>
<path fill-rule="evenodd" clip-rule="evenodd" d="M236.201 55.9019C236.201 54.4497 235.023 53.2725 233.571 53.2725H194.13C192.678 53.2725 191.501 54.4497 191.501 55.9019C191.501 57.354 192.678 58.5313 194.13 58.5313H233.571C235.023 58.5313 236.201 57.354 236.201 55.9019ZM186.901 55.9022C186.901 54.45 185.724 53.2728 184.271 53.2728H177.041C175.588 53.2728 174.411 54.45 174.411 55.9022C174.411 57.3543 175.588 58.5316 177.041 58.5316H184.271C185.724 58.5316 186.901 57.3543 186.901 55.9022Z" fill="white" fill-opacity="0.4"/>
<circle cx="213.197" cy="106.518" r="9.86023" fill="white" fill-opacity="0.4"/>
<circle cx="226.342" cy="106.518" r="9.86023" fill="white" fill-opacity="0.4"/>
<path d="M64.6367 111.777H136.945V241.275H84.6367C73.591 241.275 64.6367 232.321 64.6367 221.275V111.777Z" fill="white"/>
<circle cx="100.792" cy="137.414" r="13.147" fill="#56C393"/>
<path fill-rule="evenodd" clip-rule="evenodd" d="M101.527 131.155V132.155V132.339H102.107H103.107V134.339H102.107H100.133C99.5959 134.339 99.1602 134.775 99.1602 135.312C99.1602 135.85 99.5959 136.286 100.133 136.286H100.923C102.565 136.286 103.896 137.617 103.896 139.259C103.896 140.694 102.879 141.891 101.527 142.171V142.811V143.811H99.5273V142.811V142.232H98.9494H97.9494V140.232H98.9494H100.923C101.46 140.232 101.896 139.796 101.896 139.259C101.896 138.721 101.46 138.286 100.923 138.286H100.133C98.4913 138.286 97.1602 136.955 97.1602 135.312C97.1602 133.878 98.1759 132.681 99.5273 132.401V132.155V131.155H101.527Z" fill="white"/>
<circle cx="77.3927" cy="163.318" r="4.86925" fill="#56C393"/>
<path d="M75.6575 163.341L76.9791 164.662L79.5631 162.241" stroke="white"/>
<circle cx="77.3927" cy="177.926" r="4.86925" fill="#68C89E"/>
<path d="M75.6575 177.949L76.9791 179.271L79.5631 176.849" stroke="white"/>
<path d="M86.8086 163.318H128.4" stroke="#E1ECF4" stroke-width="2"/>
<path d="M86.8086 177.926H110.181" stroke="#E1ECF4" stroke-width="2"/>
<rect width="7.28172" height="7.28172" transform="matrix(-0.707107 -0.707107 -0.707107 0.707107 68.2188 83.46)" fill="#56C393"/>
<rect width="3.55774" height="3.55774" transform="matrix(-0.707107 -0.707107 -0.707107 0.707107 52.0312 95.3906)" fill="#0044AD"/>
</g>
<defs>
<linearGradient id="paint0_linear_1760:115679" x1="107.385" y1="55.9226" x2="109.783" y2="58.3214" gradientUnits="userSpaceOnUse">
<stop stop-color="#EF4623"/>
<stop offset="0.2" stop-color="#F15A22"/>
<stop offset="0.52" stop-color="#F6861F"/>
<stop offset="1" stop-color="#FFE300"/>
</linearGradient>
<linearGradient id="paint1_linear_1760:115679" x1="107.384" y1="60.5998" x2="109.782" y2="58.201" gradientUnits="userSpaceOnUse">
<stop stop-color="#EF4623"/>
<stop offset="0.2" stop-color="#F15A22"/>
<stop offset="0.52" stop-color="#F6861F"/>
<stop offset="1" stop-color="#FFE300"/>
</linearGradient>
<linearGradient id="paint2_linear_1760:115679" x1="112.09" y1="55.8965" x2="109.724" y2="58.2604" gradientUnits="userSpaceOnUse">
<stop stop-color="#093C87"/>
<stop offset="0.2" stop-color="#02408B"/>
<stop offset="0.52" stop-color="#0063AC"/>
<stop offset="1" stop-color="#00AEEF"/>
</linearGradient>
<clipPath id="clip0_1760:115679">
<rect width="325" height="186" fill="white"/>
</clipPath>
</defs>
</svg>
