<svg width="450" height="320" viewBox="0 0 450 320" fill="none" xmlns="http://www.w3.org/2000/svg">
<g clip-path="url(#clip0_1240:236875)">
<path d="M293.434 276.898V288.994H249.958V232.785L295.572 190.094C302.985 196.356 300.561 209.779 298.423 215.709L313.39 202.19L330.496 153.096C336.197 142.281 349.501 138.629 355.441 138.154L341.899 202.19C329.07 222.112 304.838 259.111 293.434 276.898Z" fill="white"/>
<path d="M328.016 146.593V159.403L313.776 202.104L309.707 205.663L309.029 167.943C309.572 154.848 321.913 148.253 328.016 146.593Z" fill="#CCD9EF"/>
<path d="M310.084 293.223V321.693H234.137V293.223C234.137 290.887 236.03 288.994 238.366 288.994H305.855C308.191 288.994 310.084 290.887 310.084 293.223Z" fill="#56C393"/>
<path d="M162.709 276.898V288.994H206.185V232.785L160.571 190.094C153.159 196.356 155.582 209.779 157.72 215.709L142.753 202.19L125.648 153.096C119.946 142.281 106.642 138.629 100.703 138.154L114.244 202.19C127.073 222.112 151.306 259.111 162.709 276.898Z" fill="white"/>
<path d="M128.127 146.592V159.402L142.368 202.104L146.436 205.662L147.114 167.943C146.572 154.848 134.23 148.253 128.127 146.592Z" fill="#CCD9EF"/>
<path d="M146.06 293.223V321.693H222.007V293.223C222.007 290.887 220.113 288.994 217.778 288.994H150.289C147.953 288.994 146.06 290.887 146.06 293.223Z" fill="#56C393"/>
<ellipse cx="103.066" cy="267.664" rx="9.77502" ry="3.91002" fill="#C4C4C4"/>
<path fill-rule="evenodd" clip-rule="evenodd" d="M101.144 277.36L86.7644 290.17C80.8112 294.948 77 302.284 77 310.511C77 324.908 88.6705 336.578 103.067 336.578C117.463 336.578 129.133 324.908 129.133 310.511C129.133 302.272 125.311 294.925 119.342 290.149L104.989 277.361L112.19 269.131H93.9435L101.144 277.36Z" fill="#56C393"/>
<ellipse cx="103.066" cy="267.664" rx="9.77502" ry="3.91002" fill="white"/>
<path fill-rule="evenodd" clip-rule="evenodd" d="M103.686 297.307V298.222V299.432H105.593H106.504V301.262H105.593H102.07C100.628 301.262 99.4578 302.438 99.4578 303.888C99.4578 305.338 100.628 306.514 102.07 306.514H103.48C105.928 306.514 107.913 308.509 107.913 310.97C107.913 313.362 106.038 315.314 103.686 315.422V315.928V317.344V318.259H101.865V317.344V315.928V315.426H99.9567H99.0464V313.596H99.9567H103.48C104.923 313.596 106.092 312.421 106.092 310.97C106.092 309.52 104.923 308.344 103.48 308.344H102.07C99.6221 308.344 97.6372 306.349 97.6372 303.888C97.6372 301.496 99.512 299.544 101.865 299.437V298.222V297.307H103.686Z" fill="white"/>
<path d="M154.251 55.7021H222.427V144.95H182.445C166.874 144.95 154.251 132.327 154.251 116.756V55.7021Z" fill="white"/>
<ellipse cx="188.338" cy="79.8733" rx="12.3955" ry="12.3955" fill="#0043AD"/>
<path fill-rule="evenodd" clip-rule="evenodd" d="M189.503 73.5059V74.6229H189.579H190.989V77.4423H189.579H187.719C187.47 77.4423 187.268 77.6441 187.268 77.893C187.268 78.1419 187.47 78.3437 187.719 78.3437H188.463C190.269 78.3437 191.733 79.8078 191.733 81.6139C191.733 83.0565 190.799 84.2809 189.503 84.7153V84.9618V86.3715H186.683V84.9618V84.884H186.603H185.193V82.0646H186.603H188.463C188.712 82.0646 188.914 81.8628 188.914 81.6139C188.914 81.3649 188.712 81.1631 188.463 81.1631H187.719C185.913 81.1631 184.449 79.6991 184.449 77.893C184.449 76.4489 185.385 75.2235 186.683 74.7903V73.5059H189.503Z" fill="white"/>
<circle cx="166.279" cy="104.297" r="4.59094" fill="#0043AD"/>
<path d="M164.642 104.319L165.888 105.565L168.324 103.282" stroke="white" stroke-width="1.40969"/>
<ellipse cx="166.279" cy="118.069" rx="4.59094" ry="4.59095" fill="#0043AD"/>
<path d="M164.642 118.092L165.888 119.338L168.324 117.055" stroke="white" stroke-width="1.40969"/>
<path d="M175.156 104.297H214.37" stroke="#E1ECF4" stroke-width="2.81938"/>
<path d="M175.156 118.071H197.193" stroke="#E1ECF4" stroke-width="2.81938"/>
<rect width="11.7793" height="11.7793" transform="matrix(-0.705287 -0.708922 -0.705287 0.708922 273.577 40.3506)" fill="#56C393"/>
<rect width="5.75519" height="5.75519" transform="matrix(-0.705286 -0.708922 -0.705286 0.708922 290.537 86.3757)" fill="#0044AD"/>
<circle cx="228.625" cy="138.466" r="48.0374" fill="#56C393"/>
<path fill-rule="evenodd" clip-rule="evenodd" d="M229.785 117.586V119.701V121.935H233.438H235.552V126.164H233.438H226.265C223.43 126.164 221.132 128.462 221.132 131.296C221.132 134.131 223.43 136.429 226.265 136.429H229.074C234.245 136.429 238.436 140.62 238.436 145.79C238.436 150.722 234.623 154.762 229.785 155.125V155.936V158.835V160.949H225.556V158.835V155.936V155.152H221.902H219.787V150.923H221.902H229.074C231.909 150.923 234.207 148.625 234.207 145.79C234.207 142.956 231.909 140.658 229.074 140.658H226.265C221.095 140.658 216.903 136.467 216.903 131.296C216.903 126.365 220.717 122.324 225.556 121.961V119.701V117.586H229.785Z" fill="white"/>
<path d="M349.533 315.609C349.533 312.947 347.375 310.789 344.714 310.789H330.255C327.593 310.789 325.435 312.947 325.435 315.609C325.435 318.271 327.593 320.429 330.255 320.429H344.714C347.375 320.429 349.533 318.271 349.533 315.609Z" fill="#56C393"/>
<path d="M349.533 305.969C349.533 303.307 347.375 301.15 344.714 301.15H330.255C327.593 301.15 325.435 303.307 325.435 305.969C325.435 308.631 327.593 310.789 330.255 310.789H344.714C347.375 310.789 349.533 308.631 349.533 305.969Z" fill="#0044AD"/>
<path d="M374.594 296.33C374.594 293.669 372.436 291.511 369.775 291.511H355.316C352.654 291.511 350.496 293.669 350.496 296.33C350.496 298.992 352.654 301.15 355.316 301.15H369.775C372.436 301.15 374.594 298.992 374.594 296.33Z" fill="#0044AD"/>
<path d="M374.594 305.969C374.594 303.307 372.436 301.15 369.775 301.15H355.316C352.654 301.15 350.496 303.307 350.496 305.969C350.496 308.631 352.654 310.789 355.316 310.789H369.775C372.436 310.789 374.594 308.631 374.594 305.969Z" fill="#68C89E"/>
<path d="M374.594 315.609C374.594 312.947 372.436 310.789 369.775 310.789H355.316C352.654 310.789 350.496 312.947 350.496 315.609C350.496 318.271 352.654 320.429 355.316 320.429H369.775C372.436 320.429 374.594 318.271 374.594 315.609Z" fill="#0044AD"/>
</g>
<defs>
<clipPath id="clip0_1240:236875">
<rect width="450" height="320" fill="white"/>
</clipPath>
</defs>
</svg>
