<svg width="450" height="320" viewBox="0 0 450 320" fill="none" xmlns="http://www.w3.org/2000/svg">
<g clip-path="url(#clip0_1240:236755)">
<path d="M155.844 272.93C155.844 269.515 153.075 266.746 149.66 266.746H113.575C110.16 266.746 107.391 269.515 107.391 272.93V279.944C107.391 283.359 110.16 286.127 113.575 286.127H149.66C153.075 286.127 155.844 283.359 155.844 279.944V272.93Z" fill="#56C393"/>
<path d="M155.844 292.311C155.844 288.896 153.075 286.128 149.66 286.128H113.575C110.16 286.128 107.391 288.896 107.391 292.311V299.326C107.391 302.741 110.16 305.509 113.575 305.509H149.66C153.075 305.509 155.844 302.741 155.844 299.326V292.311Z" fill="#0044AD"/>
<path d="M155.844 311.691C155.844 308.276 153.075 305.507 149.66 305.507H113.575C110.16 305.507 107.391 308.276 107.391 311.691V318.705C107.391 322.12 110.16 324.888 113.575 324.888H149.66C153.075 324.888 155.844 322.12 155.844 318.705V311.691Z" fill="#56C393"/>
<path d="M105.454 272.93C105.454 269.515 102.685 266.746 99.2701 266.746H63.1845C59.7694 266.746 57.001 269.515 57.001 272.93V279.944C57.001 283.359 59.7694 286.127 63.1845 286.127H99.2701C102.685 286.127 105.454 283.359 105.454 279.944V272.93Z" fill="#0044AD"/>
<path d="M105.454 253.548C105.454 250.133 102.685 247.365 99.2701 247.365H63.1845C59.7694 247.365 57.001 250.133 57.001 253.548V260.563C57.001 263.978 59.7694 266.746 63.1845 266.746H99.2701C102.685 266.746 105.454 263.978 105.454 260.563V253.548Z" fill="#68C89E"/>
<path d="M105.454 292.311C105.454 288.896 102.685 286.128 99.2701 286.128H63.1845C59.7694 286.128 57.001 288.896 57.001 292.311V299.326C57.001 302.741 59.7694 305.509 63.1845 305.509H99.2701C102.685 305.509 105.454 302.741 105.454 299.326V292.311Z" fill="#68C89E"/>
<path d="M105.454 311.691C105.454 308.276 102.685 305.507 99.2701 305.507H63.1845C59.7694 305.507 57.001 308.276 57.001 311.691V318.705C57.001 322.12 59.7694 324.888 63.1845 324.888H99.2701C102.685 324.888 105.454 322.12 105.454 318.705V311.691Z" fill="#0044AD"/>
<ellipse cx="236.568" cy="58.8062" rx="41.6237" ry="16.6495" fill="#C4C4C4"/>
<path fill-rule="evenodd" clip-rule="evenodd" d="M228.38 100.094L167.179 154.619C141.812 174.961 125.571 206.213 125.571 241.258C125.571 302.56 175.266 352.255 236.567 352.255C297.869 352.255 347.564 302.56 347.564 241.258C347.564 206.218 331.327 174.97 305.967 154.628L244.755 100.093L275.416 65.0518H197.718L228.38 100.094Z" fill="white"/>
<ellipse cx="236.568" cy="58.8062" rx="41.6237" ry="16.6495" fill="#CCD9EF"/>
<path fill-rule="evenodd" clip-rule="evenodd" d="M241.509 176.929V183.113V185.93H247.326H253.51V198.297H247.326H232.325C227.455 198.297 223.507 202.245 223.507 207.115C223.507 211.985 227.455 215.933 232.325 215.933H238.325C250.025 215.933 259.51 225.418 259.51 237.118C259.51 247.736 251.699 256.53 241.509 258.065V258.121V264.121V270.305H229.142V264.121V258.303H223.324H217.14V245.936H223.324H238.325C243.195 245.936 247.143 241.988 247.143 237.118C247.143 232.248 243.195 228.3 238.325 228.3H232.325C220.624 228.3 211.14 218.815 211.14 207.115C211.14 196.497 218.952 187.703 229.142 186.168V183.113V176.929H241.509Z" fill="#0044AD"/>
<path d="M287.404 192.362H394V328.029H287.404V192.362Z" fill="#56C393"/>
<circle cx="340.702" cy="230.152" r="19.3811" fill="white"/>
<path fill-rule="evenodd" clip-rule="evenodd" d="M341.863 220.858V222.404V222.603H342.643H344.189V225.695H342.643H339.735C338.982 225.695 338.372 226.305 338.372 227.058C338.372 227.81 338.982 228.421 339.735 228.421H340.898C343.358 228.421 345.353 230.415 345.353 232.875C345.353 235.004 343.86 236.784 341.863 237.225V238.113V239.658H338.772V238.113V237.33H337.989H336.443V234.238H337.989H340.898C341.651 234.238 342.261 233.628 342.261 232.875C342.261 232.123 341.651 231.512 340.898 231.512H339.735C337.274 231.512 335.28 229.518 335.28 227.058C335.28 224.928 336.774 223.147 338.772 222.707V222.404V220.858H341.863Z" fill="#56C393"/>
<circle cx="306.211" cy="268.341" r="7.17817" fill="white"/>
<path d="M303.651 268.375L305.6 270.323L309.409 266.754" stroke="#56C393" stroke-width="1.54587"/>
<circle cx="306.211" cy="289.875" r="7.17817" fill="white"/>
<path d="M303.651 289.91L305.6 291.858L309.409 288.289" stroke="#56C393" stroke-width="1.54587"/>
<path d="M320.088 268.343H381.401" stroke="#E1ECF4" stroke-width="3.09174"/>
<path d="M320.088 289.875H354.543" stroke="#E1ECF4" stroke-width="3.09174"/>
<rect width="5.81432" height="5.81432" transform="matrix(-0.707106 -0.707107 -0.707106 0.707107 309.193 50.1445)" fill="#0044AD"/>
<rect width="9.69053" height="9.69053" transform="matrix(-0.707106 -0.707107 -0.707106 0.707107 296.263 39.3201)" fill="#56C393"/>
<circle cx="138.169" cy="92.5489" r="29.0716" fill="#56C393"/>
<path fill-rule="evenodd" clip-rule="evenodd" d="M139.908 78.6016V80.9204V81.2189H141.08H143.399V85.8565H141.08H136.717C135.588 85.8565 134.672 86.7719 134.672 87.901C134.672 89.0302 135.588 89.9455 136.717 89.9455H138.462C142.153 89.9455 145.144 92.9372 145.144 96.6276C145.144 99.8217 142.903 102.492 139.908 103.153V104.482V106.801H135.27V104.482V103.31H134.099H131.78V98.6721H134.099H138.462C139.591 98.6721 140.507 97.7568 140.507 96.6276C140.507 95.4985 139.591 94.5831 138.462 94.5831H136.717C133.026 94.5831 130.035 91.5914 130.035 87.901C130.035 84.7073 132.275 82.037 135.27 81.3759V80.9204V78.6016H139.908Z" fill="white"/>
</g>
<defs>
<clipPath id="clip0_1240:236755">
<rect width="450" height="320" fill="white"/>
</clipPath>
</defs>
</svg>
