<svg width="450" height="320" viewBox="0 0 450 320" fill="none" xmlns="http://www.w3.org/2000/svg">
<g clip-path="url(#clip0_1240:237204)">
<rect x="111.947" y="62.7835" width="217.409" height="324.189" rx="23.0877" fill="white" stroke="#CCD9EF" stroke-width="11.5438"/>
<rect x="60" y="241.713" width="92.3507" height="57.7192" rx="5.77192" fill="#56C393"/>
<rect x="69.6201" y="279.23" width="25.9736" height="4.80993" rx="1.44298" fill="white"/>
<rect width="14.4298" height="9.61986" rx="1.44298" transform="matrix(1 0 0 -1 69.6201 259.029)" fill="white"/>
<rect x="69.6201" y="286.927" width="7.69589" height="1.92397" rx="0.961986" fill="white"/>
<rect x="92.708" y="286.927" width="7.69589" height="1.92397" rx="0.961986" fill="white"/>
<rect x="79.2397" y="286.927" width="11.5438" height="1.92397" rx="0.961986" fill="white"/>
<path fill-rule="evenodd" clip-rule="evenodd" d="M129.826 260.956C132.484 260.956 134.638 258.802 134.638 256.145C134.638 253.487 132.484 251.333 129.826 251.333C127.169 251.333 125.014 253.487 125.014 256.145C125.014 258.802 127.169 260.956 129.826 260.956ZM128.371 263.278C123.02 263.278 118.682 267.616 118.682 272.967C118.682 273.77 119.332 274.421 120.135 274.421H139.514C140.317 274.421 140.967 273.77 140.967 272.967C140.967 267.616 136.629 263.278 131.278 263.278H128.371Z" fill="white"/>
<path d="M188.425 306.647H206.703" stroke="#E1ECF4" stroke-width="8.65788"/>
<path d="M214.399 306.647H260.574" stroke="#E1ECF4" stroke-width="8.65788"/>
<path d="M198.045 289.331H250.954" stroke="#E1ECF4" stroke-width="11.5438"/>
<rect width="5.77192" height="5.77192" transform="matrix(-0.707107 -0.707107 -0.707107 0.707107 178.792 268.882)" fill="#0044AD"/>
<circle cx="221.132" cy="191.209" r="72.149" stroke="#E1ECF4" stroke-width="2.88596"/>
<path d="M174.477 60.8596H266.827V76.2514C266.827 79.4391 264.243 82.0233 261.055 82.0233H180.248C177.061 82.0233 174.477 79.4391 174.477 76.2514V60.8596Z" fill="#CCD9EF"/>
<circle cx="221.133" cy="191.209" r="53.3902" fill="#0044AD"/>
<path fill-rule="evenodd" clip-rule="evenodd" d="M221.867 187.732C226.36 187.732 230.003 184.09 230.003 179.597C230.003 175.104 226.36 171.462 221.867 171.462C217.374 171.462 213.732 175.104 213.732 179.597C213.732 184.09 217.374 187.732 221.867 187.732ZM219.407 191.872C210.359 191.872 203.024 199.206 203.024 208.254C203.024 209.611 204.125 210.711 205.482 210.711H238.247C239.604 210.711 240.704 209.611 240.704 208.254C240.704 199.206 233.37 191.872 224.322 191.872H219.407Z" fill="white"/>
<circle cx="255.283" cy="230.169" r="14.4298" fill="#56C393"/>
<path d="M248.412 230.024L253.27 234.883L262.745 225.408" stroke="white" stroke-width="2.88596"/>
<circle cx="322.622" cy="60.8596" r="28.8596" fill="#56C393"/>
<path fill-rule="evenodd" clip-rule="evenodd" d="M324.213 47.1509V49.3153V49.7501H325.513H327.677V54.079H325.513H321.182C319.985 54.079 319.014 55.0492 319.014 56.246C319.014 57.4428 319.985 58.4131 321.182 58.4131H322.914C326.502 58.4131 329.41 61.3214 329.41 64.909C329.41 68.0518 327.178 70.6734 324.213 71.2751V72.7053V74.8698H319.884V72.7053V71.405H318.583H316.418V67.076H318.583H322.914C324.111 67.076 325.081 66.1058 325.081 64.909C325.081 63.7122 324.111 62.742 322.914 62.742H321.182C317.594 62.742 314.686 59.8337 314.686 56.246C314.686 53.1028 316.918 50.4809 319.884 49.8797V49.3153V47.1509H324.213Z" fill="white"/>
<rect width="6.7314" height="6.7314" transform="matrix(-0.707106 -0.707107 -0.707106 0.707107 389 115.956)" fill="#0044AD"/>
<rect width="11.219" height="11.219" transform="matrix(-0.707106 -0.707107 -0.707106 0.707107 377.448 97.6521)" fill="#56C393"/>
</g>
<defs>
<clipPath id="clip0_1240:237204">
<rect width="328.321" height="288" fill="white" transform="translate(61 32)"/>
</clipPath>
</defs>
</svg>
