<svg width="450" height="320" viewBox="0 0 450 320" fill="none" xmlns="http://www.w3.org/2000/svg">
<g clip-path="url(#clip0_1240:236925)">
<mask id="mask0_1240:236925" style="mask-type:alpha" maskUnits="userSpaceOnUse" x="-61" y="-48" width="552" height="368">
<rect x="-60.0815" y="-47.3469" width="551.02" height="367.347" fill="#C4C4C4"/>
</mask>
<g mask="url(#mask0_1240:236925)">
<path d="M325.254 173.061L332.435 179.615V319.874H325.254V173.061Z" fill="#CCD9EF"/>
<rect x="252.898" y="173.061" width="72" height="146.939" fill="white"/>
<g opacity="0.6">
<rect x="260.245" y="196.572" width="8.81635" height="10.2857" fill="#E1ECF4"/>
<rect x="276.408" y="196.572" width="8.81631" height="10.2857" fill="#E1ECF4"/>
<rect x="292.572" y="196.572" width="8.81633" height="10.2857" fill="#E1ECF4"/>
<rect x="308.735" y="196.572" width="8.81631" height="10.2857" fill="#E1ECF4"/>
<rect x="260.245" y="236.245" width="8.81635" height="10.2857" fill="#E1ECF4"/>
<rect x="276.408" y="236.245" width="8.81631" height="10.2857" fill="#E1ECF4"/>
<rect x="292.572" y="236.245" width="8.81633" height="10.2857" fill="#E1ECF4"/>
<rect x="308.735" y="236.245" width="8.81631" height="10.2857" fill="#E1ECF4"/>
<rect x="260.245" y="214.204" width="8.81635" height="10.2857" fill="#E1ECF4"/>
<rect x="276.408" y="214.204" width="8.81631" height="10.2857" fill="#E1ECF4"/>
<rect x="292.572" y="214.204" width="8.81633" height="10.2857" fill="#E1ECF4"/>
<rect x="308.735" y="214.204" width="8.81631" height="10.2857" fill="#E1ECF4"/>
<rect x="260.245" y="253.878" width="8.81635" height="10.2857" fill="#E1ECF4"/>
<rect x="276.408" y="253.878" width="8.81631" height="10.2857" fill="#E1ECF4"/>
<rect x="292.572" y="253.878" width="8.81633" height="10.2857" fill="#E1ECF4"/>
<rect x="308.735" y="253.878" width="8.81631" height="10.2857" fill="#E1ECF4"/>
</g>
<path d="M235.622 223.021L242.803 229.575V369.833H235.622V223.021Z" fill="#CCD9EF"/>
<rect x="163.266" y="223.021" width="72" height="146.939" fill="white"/>
<g opacity="0.6">
<rect x="170.613" y="246.531" width="8.81632" height="10.2857" fill="#E1ECF4"/>
<rect x="186.776" y="246.531" width="8.81633" height="10.2857" fill="#E1ECF4"/>
<rect x="202.939" y="246.531" width="8.81631" height="10.2857" fill="#E1ECF4"/>
<rect x="219.103" y="246.531" width="8.81633" height="10.2857" fill="#E1ECF4"/>
<rect x="170.613" y="286.204" width="8.81632" height="10.2857" fill="#E1ECF4"/>
<rect x="186.776" y="286.204" width="8.81633" height="10.2857" fill="#E1ECF4"/>
<rect x="202.939" y="286.204" width="8.81631" height="10.2857" fill="#E1ECF4"/>
<rect x="219.103" y="286.204" width="8.81633" height="10.2857" fill="#E1ECF4"/>
<rect x="170.613" y="264.163" width="8.81632" height="10.2857" fill="#E1ECF4"/>
<rect x="186.776" y="264.163" width="8.81633" height="10.2857" fill="#E1ECF4"/>
<rect x="202.939" y="264.163" width="8.81631" height="10.2857" fill="#E1ECF4"/>
<rect x="219.103" y="264.163" width="8.81633" height="10.2857" fill="#E1ECF4"/>
</g>
<path d="M142.533 137.145L151.513 145.308V320.001H142.533V137.145Z" fill="#CCD9EF"/>
<path d="M136.001 111.021L144.981 119.184V293.877H136.001V111.021Z" fill="#CCD9EF"/>
<path d="M124.567 87.3489L133.547 95.5121V270.205H124.567V87.3489Z" fill="#CCD9EF"/>
<path d="M111.51 55.5117L120.489 63.6749V238.368H111.51V55.5117Z" fill="#CCD9EF"/>
<path d="M99.9419 32H102.041L108.898 58.449H97.1431L99.9419 32Z" fill="#CCD9EF"/>
<rect x="56" y="137.144" width="86.5302" height="182.856" fill="white"/>
<g opacity="0.6">
<rect x="72.1631" y="146.612" width="5.87755" height="174.857" fill="#E1ECF4"/>
<rect x="98.6123" y="146.612" width="5.87755" height="174.857" fill="#E1ECF4"/>
<rect x="85.3877" y="146.612" width="5.87755" height="174.857" fill="#E1ECF4"/>
<rect x="111.836" y="146.612" width="5.87755" height="174.857" fill="#E1ECF4"/>
<rect x="125.061" y="146.612" width="5.87756" height="174.857" fill="#E1ECF4"/>
</g>
<rect x="63.3477" y="111.021" width="72.6527" height="26.9386" fill="white"/>
<rect x="74.7754" y="87.3481" width="49.7957" height="34.2855" fill="white"/>
<rect x="86.8574" y="55.5115" width="25.306" height="47.3467" fill="white"/>
<path d="M98.1223 32H100.571L103.02 58.449H95.6733L98.1223 32Z" fill="white"/>
<rect width="6.85459" height="6.85459" transform="matrix(-0.707106 -0.707107 -0.707106 0.707107 393.959 163.044)" fill="#0044AD"/>
<rect width="11.4243" height="11.4243" transform="matrix(-0.707107 -0.707107 -0.707107 0.707107 382.198 144.405)" fill="#56C393"/>
<path d="M392.564 277.753C392.564 276.096 391.221 274.753 389.564 274.753H358.073C356.416 274.753 355.073 276.096 355.073 277.753V286.75C355.073 288.407 356.416 289.75 358.073 289.75H389.564C391.221 289.75 392.564 288.407 392.564 286.75V277.753Z" fill="#56C393"/>
<path d="M392.564 307.747C392.564 306.09 391.221 304.747 389.564 304.747H358.073C356.416 304.747 355.073 306.09 355.073 307.747V316.743C355.073 318.4 356.416 319.743 358.073 319.743H389.564C391.221 319.743 392.564 318.4 392.564 316.743V307.747Z" fill="#56C393"/>
<path d="M392.564 292.747C392.564 291.09 391.221 289.747 389.564 289.747H358.073C356.416 289.747 355.073 291.09 355.073 292.747V301.744C355.073 303.401 356.416 304.744 358.073 304.744H389.564C391.221 304.744 392.564 303.401 392.564 301.744V292.747Z" fill="#0044AD"/>
<path d="M353.573 277.752C353.573 276.096 352.23 274.752 350.573 274.752H319.081C317.425 274.752 316.081 276.096 316.081 277.752V286.749C316.081 288.406 317.425 289.749 319.081 289.749H350.573C352.23 289.749 353.573 288.406 353.573 286.749V277.752Z" fill="#0044AD"/>
<path d="M353.573 262.755C353.573 261.098 352.23 259.755 350.573 259.755H319.081C317.425 259.755 316.081 261.098 316.081 262.755V271.752C316.081 273.409 317.425 274.752 319.081 274.752H350.573C352.23 274.752 353.573 273.409 353.573 271.752V262.755Z" fill="#68C89E"/>
<path d="M353.573 292.747C353.573 291.09 352.23 289.747 350.573 289.747H319.081C317.425 289.747 316.081 291.09 316.081 292.747V301.744C316.081 303.401 317.425 304.744 319.081 304.744H350.573C352.23 304.744 353.573 303.401 353.573 301.744V292.747Z" fill="#68C89E"/>
<path d="M353.573 307.747C353.573 306.09 352.23 304.747 350.573 304.747H319.081C317.425 304.747 316.081 306.09 316.081 307.747V316.744C316.081 318.401 317.425 319.744 319.081 319.744H350.573C352.23 319.744 353.573 318.401 353.573 316.744V307.747Z" fill="#0044AD"/>
<circle cx="175.02" cy="143.674" r="57.3061" fill="#56C393"/>
<path fill-rule="evenodd" clip-rule="evenodd" d="M175.809 139.942C180.632 139.942 184.542 136.033 184.542 131.21C184.542 126.388 180.632 122.478 175.809 122.478C170.987 122.478 167.077 126.388 167.077 131.21C167.077 136.033 170.987 139.942 175.809 139.942ZM173.17 144.385C163.458 144.385 155.585 152.258 155.585 161.969C155.585 163.426 156.766 164.607 158.223 164.607H193.391C194.848 164.607 196.029 163.426 196.029 161.969C196.029 152.258 188.156 144.385 178.445 144.385H173.17Z" fill="white"/>
<circle cx="211.676" cy="185.492" r="15.4881" fill="#0044AD"/>
<path d="M204.3 185.336L209.515 190.551L219.684 180.381" stroke="white" stroke-width="2"/>
</g>
</g>
<defs>
<clipPath id="clip0_1240:236925">
<rect width="337.959" height="288" fill="white" transform="translate(56 32)"/>
</clipPath>
</defs>
</svg>
