<svg width="325" height="186" viewBox="0 0 325 186" fill="none" xmlns="http://www.w3.org/2000/svg">
<g clip-path="url(#clip0_1760:117141)">
<rect x="83" y="4.33301" width="150.667" height="224.667" rx="16" fill="white" stroke="#CCD9EF" stroke-width="8"/>
<path d="M136 173.333H148.667" stroke="#E1ECF4" stroke-width="6"/>
<path d="M154 173.333H186" stroke="#E1ECF4" stroke-width="6"/>
<path d="M142.666 161.333H179.333" stroke="#E1ECF4" stroke-width="8"/>
<rect width="4" height="4" transform="matrix(-0.707107 -0.707107 -0.707107 0.707107 129.323 147.161)" fill="#0044AD"/>
<circle cx="158.666" cy="93.333" r="50" stroke="#E1ECF4" stroke-width="2"/>
<path d="M126.333 3H190.333V13.6667C190.333 15.8758 188.542 17.6667 186.333 17.6667H130.333C128.124 17.6667 126.333 15.8758 126.333 13.6667V3Z" fill="#CCD9EF"/>
<circle cx="158.667" cy="93.333" r="37" fill="#0044AD"/>
<path fill-rule="evenodd" clip-rule="evenodd" d="M159.176 90.9243C162.289 90.9243 164.813 88.4001 164.813 85.2864C164.813 82.1726 162.289 79.6484 159.176 79.6484C156.062 79.6484 153.538 82.1726 153.538 85.2864C153.538 88.4001 156.062 90.9243 159.176 90.9243ZM157.47 93.7927C151.2 93.7927 146.117 98.8758 146.117 105.146C146.117 106.087 146.88 106.849 147.82 106.849H170.527C171.467 106.849 172.23 106.087 172.23 105.146C172.23 98.8758 167.147 93.7927 160.876 93.7927H157.47Z" fill="white"/>
<circle cx="182.333" cy="120.333" r="10" fill="#56C393"/>
<path d="M177.571 120.232L180.938 123.599L187.504 117.033" stroke="white" stroke-width="2"/>
<rect width="3.7665" height="3.7665" transform="matrix(-0.707106 -0.707107 -0.707106 0.707107 278.341 66.6807)" fill="#0044AD"/>
<rect width="6.2775" height="6.2775" transform="matrix(-0.707106 -0.707107 -0.707106 0.707107 271.878 56.4385)" fill="#56C393"/>
<path d="M241 162.666C241 161.009 239.657 159.666 238 159.666H220.961C219.304 159.666 217.961 161.009 217.961 162.666V165.882C217.961 167.539 219.304 168.882 220.961 168.882H238C239.657 168.882 241 167.539 241 165.882V162.666Z" fill="#56C393"/>
<path d="M241 171.882C241 170.225 239.657 168.882 238 168.882H220.961C219.304 168.882 217.961 170.225 217.961 171.882V175.097C217.961 176.754 219.304 178.097 220.961 178.097H238C239.657 178.097 241 176.754 241 175.097V171.882Z" fill="#0044AD"/>
<path d="M241 181.097C241 179.44 239.657 178.097 238 178.097H220.961C219.304 178.097 217.961 179.44 217.961 181.097V184.312C217.961 185.969 219.304 187.312 220.961 187.312H238C239.657 187.312 241 185.969 241 184.312V181.097Z" fill="#56C393"/>
<path d="M216.04 162.666C216.04 161.009 214.697 159.666 213.04 159.666H196.001C194.344 159.666 193.001 161.009 193.001 162.666V165.882C193.001 167.539 194.344 168.882 196.001 168.882H213.04C214.697 168.882 216.04 167.539 216.04 165.882V162.666Z" fill="#0044AD"/>
<path d="M216.04 153.45C216.04 151.793 214.697 150.45 213.04 150.45H196.001C194.344 150.45 193.001 151.793 193.001 153.45V156.666C193.001 158.323 194.344 159.666 196.001 159.666H213.04C214.697 159.666 216.04 158.323 216.04 156.666V153.45Z" fill="#68C89E"/>
<path d="M216.04 171.882C216.04 170.225 214.697 168.882 213.04 168.882H196.001C194.344 168.882 193.001 170.225 193.001 171.882V175.097C193.001 176.754 194.344 178.097 196.001 178.097H213.04C214.697 178.097 216.04 176.754 216.04 175.097V171.882Z" fill="#68C89E"/>
<path d="M216.04 181.097C216.04 179.44 214.697 178.097 213.04 178.097H196.001C194.344 178.097 193.001 179.44 193.001 181.097V184.312C193.001 185.969 194.344 187.312 196.001 187.312H213.04C214.697 187.312 216.04 185.969 216.04 184.312V181.097Z" fill="#0044AD"/>
<ellipse cx="269.326" cy="107.299" rx="13.2472" ry="5.29886" fill="#C4C4C4"/>
<path fill-rule="evenodd" clip-rule="evenodd" d="M266.72 120.439L247.241 137.793C239.168 144.267 234 154.213 234 165.366C234 184.875 249.816 200.691 269.326 200.691C288.836 200.691 304.652 184.875 304.652 165.366C304.652 154.213 299.483 144.267 291.411 137.793L271.931 120.438L281.689 109.286H256.961L266.72 120.439Z" fill="#F5F8FA"/>
<ellipse cx="269.388" cy="107.299" rx="13.2472" ry="5.29886" fill="#CCD9EF"/>
<path fill-rule="evenodd" clip-rule="evenodd" d="M271.216 144.893V146.861V147.757H273.067H275.035V151.693H273.067H268.293C266.743 151.693 265.487 152.95 265.487 154.5C265.487 156.049 266.743 157.306 268.293 157.306H270.203C273.927 157.306 276.945 160.325 276.945 164.048C276.945 167.428 274.459 170.226 271.216 170.715V170.733V172.642V174.61H267.28V172.642V170.791H265.428H263.461V166.855H265.428H270.203C271.753 166.855 273.009 165.598 273.009 164.048C273.009 162.498 271.753 161.242 270.203 161.242H268.293C264.569 161.242 261.551 158.223 261.551 154.5C261.551 151.12 264.037 148.321 267.28 147.833V146.861V144.893H271.216Z" fill="#0044AD"/>
<rect x="21" y="117" width="77.0267" height="48.1417" rx="5" fill="#0044AD"/>
<rect x="27.4189" y="136.577" width="10.5912" height="9.30739" rx="2" fill="white" fill-opacity="0.4"/>
<path d="M36.057 128.103C36.0143 128.119 35.9688 128.126 35.9232 128.124C35.8778 128.123 35.8331 128.112 35.7918 128.093C35.7505 128.074 35.7135 128.047 35.683 128.013C35.6525 127.979 35.6291 127.94 35.6143 127.897C35.5995 127.854 35.5936 127.808 35.5969 127.763C35.593 127.716 35.5991 127.669 35.615 127.625C35.6308 127.581 35.6559 127.54 35.6886 127.507C35.7213 127.473 35.7608 127.447 35.8045 127.429C35.8482 127.412 35.8951 127.405 35.942 127.407C36.0141 127.408 36.0851 127.425 36.1493 127.458L36.2162 127.335C36.1318 127.284 36.0351 127.258 35.9366 127.259C35.8659 127.251 35.7943 127.259 35.7267 127.281C35.6591 127.303 35.5968 127.339 35.544 127.387C35.4912 127.434 35.449 127.493 35.4201 127.558C35.3912 127.623 35.3762 127.693 35.3762 127.764C35.3762 127.835 35.3912 127.906 35.4201 127.971C35.449 128.036 35.4912 128.094 35.544 128.142C35.5968 128.189 35.6591 128.225 35.7267 128.247C35.7943 128.269 35.8659 128.277 35.9366 128.27C36.0478 128.267 36.1579 128.247 36.263 128.211V127.803H36.057V128.103ZM36.4235 128.255H36.6269V127.276H36.4235V128.255ZM35.3935 127.276H35.1848L34.8518 127.691V127.276H34.6484V128.255H34.8518V127.77L35.2076 128.255H35.4591L35.0324 127.72L35.3935 127.276Z" fill="white"/>
<path d="M40.3146 127.714L40.6771 127.275H40.4684L40.1353 127.691V127.275H39.9307V128.255H40.1353V127.769L40.4898 128.255H40.7413L40.3146 127.714Z" fill="white"/>
<path d="M39.5967 127.98C39.4148 127.734 39.2315 127.515 39.0483 127.295H38.8984V128.274H39.063V127.582C39.2516 127.83 39.4295 128.05 39.6128 128.266H39.7599V127.294H39.5967V127.98Z" fill="white"/>
<path d="M37.6769 127.741C37.7289 127.727 37.7749 127.696 37.8078 127.653C37.8407 127.61 37.8586 127.558 37.8588 127.504C37.8588 127.37 37.7411 127.294 37.5765 127.294H37.2207V128.273H37.5471C37.7812 128.266 37.915 128.153 37.915 127.982C37.912 127.918 37.8855 127.859 37.8407 127.814C37.7959 127.77 37.736 127.743 37.6728 127.741H37.6769ZM37.4214 127.421H37.5177C37.6019 127.421 37.6608 127.457 37.6621 127.54C37.661 127.563 37.6552 127.585 37.6452 127.605C37.6352 127.626 37.6211 127.644 37.6038 127.659C37.5865 127.674 37.5664 127.685 37.5447 127.691C37.523 127.698 37.5001 127.7 37.4775 127.698H37.4214V127.421ZM37.5163 128.145H37.4214V127.826H37.5137C37.6193 127.826 37.7009 127.873 37.7009 127.984C37.7009 128.095 37.622 128.145 37.515 128.145" fill="white"/>
<path d="M38.3066 127.294L37.9053 128.273H38.0832L38.1835 128.006H38.5206L38.6102 128.273H38.839L38.4711 127.294H38.3066ZM38.2397 127.88C38.2838 127.758 38.328 127.643 38.3668 127.5C38.4109 127.643 38.451 127.757 38.4912 127.88H38.2397Z" fill="white"/>
<path d="M35.9991 124.434H34.7484V124.672H35.9991V124.434ZM36.0433 125.905L35.7383 125.957L35.852 125.618H35.6059L35.4721 126.002L35.2367 126.042C35.2241 125.897 35.1913 125.755 35.139 125.619H34.8822C34.9403 125.766 34.9794 125.921 34.9985 126.078L34.6494 126.127V126.418C34.9919 126.356 35.6553 126.196 36.0433 126.114V125.905ZM34.9263 124.3H35.9965V123.58H35.7289V124.063H35.5042V123.481H35.2367V124.063H35.0092V123.58H34.7417V124.116C34.7415 124.139 34.746 124.162 34.7549 124.184C34.7637 124.206 34.7768 124.226 34.7933 124.242C34.8099 124.259 34.8296 124.272 34.8512 124.281C34.8729 124.29 34.8961 124.295 34.9196 124.295L34.9263 124.3ZM34.9196 125.521H35.9898V124.982C35.9898 124.935 35.9709 124.889 35.9373 124.856C35.9037 124.822 35.8581 124.803 35.8105 124.803H34.7404V125.346C34.7402 125.37 34.7447 125.393 34.7535 125.415C34.7624 125.436 34.7755 125.456 34.792 125.473C34.8085 125.489 34.8282 125.503 34.8499 125.512C34.8716 125.521 34.8948 125.525 34.9183 125.525L34.9196 125.521ZM35.0173 125.02H35.7129V125.307H35.0173V125.02ZM37.3769 126.196C37.3127 126.189 37.2913 126.159 37.2913 126.097V123.758C37.2913 123.711 37.2726 123.666 37.2392 123.633C37.2059 123.599 37.1606 123.58 37.1134 123.58H36.371V125.039C36.371 125.562 36.3295 126.078 35.9938 126.446H36.2948C36.6372 126.044 36.6492 125.611 36.6492 125.039V123.82H36.9877V126.146C36.9877 126.32 37.0372 126.414 37.195 126.446C37.3517 126.459 37.5092 126.459 37.6659 126.446L37.7154 126.189C37.6035 126.195 37.4914 126.195 37.3796 126.189" fill="white"/>
<path d="M41.8079 125.03H41.0334V124.025H41.5363V123.78H41.0334V123.481H40.7404V123.78H39.7693V123.481H39.4776V123.78H38.9747V124.025H39.4776V125.03H38.7031V125.275H39.4215C39.2466 125.522 38.9934 125.702 38.7031 125.786V126.062C38.9783 125.989 39.2347 125.857 39.4549 125.677V125.877H40.1023V126.2H39.0014V126.444H41.5096V126.2H40.4087V125.877H41.0561V125.677C41.2761 125.858 41.5324 125.99 41.8079 126.065V125.786C41.5176 125.702 41.2644 125.522 41.0895 125.275H41.8079V125.03ZM39.7733 124.025H40.7377V124.196H39.7733V124.025ZM39.7733 124.442H40.7377V124.614H39.7733V124.442ZM39.7733 124.859H40.7377V125.03H39.7733V124.859ZM40.41 125.634V125.38H40.0997V125.634H39.499C39.6091 125.533 39.6974 125.411 39.7586 125.275H40.7524C40.8136 125.411 40.9019 125.533 41.012 125.634H40.41Z" fill="white"/>
<path d="M48.0049 124.41V124.678H49.0884V126.1C49.0884 126.163 49.067 126.192 49.0028 126.199C48.8909 126.204 48.7789 126.204 48.667 126.199L48.7152 126.455C48.8768 126.469 49.0392 126.469 49.2008 126.455C49.3586 126.43 49.4081 126.331 49.4081 126.157V124.686H49.998V124.418L48.0049 124.41Z" fill="white"/>
<path d="M46.8965 124.976V125.276C47.0195 125.213 47.1352 125.138 47.2416 125.05V126.458H47.5573V124.727C47.7133 124.522 47.8415 124.297 47.9385 124.059H47.6389C47.4683 124.418 47.2136 124.731 46.8965 124.971" fill="white"/>
<path d="M47.7356 123.43H47.4347C47.3348 123.693 47.1534 123.918 46.917 124.072V124.381C47.2969 124.173 47.588 123.833 47.7356 123.426" fill="white"/>
<path d="M45.2698 125.642L45.722 125.416V125.155L45.1548 125.44C45.0878 125.296 45.0496 125.14 45.0424 124.981H45.7233V123.684C45.7233 123.636 45.7044 123.591 45.6708 123.557C45.6372 123.523 45.5916 123.505 45.5441 123.505H44.3602V126.149C44.3602 126.149 44.181 126.195 44.177 126.195V126.49C44.177 126.49 44.9796 126.244 44.9796 126.245V126.009C44.9796 126.009 44.6064 126.082 44.609 126.086V124.981H44.7869C44.8177 125.666 45.3394 126.26 45.9695 126.466V126.229C45.6888 126.098 45.4475 125.896 45.2698 125.642ZM44.601 123.744H45.4638V124.129H44.601V123.744ZM44.601 124.357H45.4638V124.741H44.601V124.357ZM43.6459 124.436H43.9469V124.206H43.1764C43.3236 124.05 43.4578 123.883 43.5777 123.705C43.7381 123.903 43.9173 124.086 44.1128 124.25V123.938C43.9462 123.78 43.7957 123.606 43.6633 123.419H43.464C43.3217 123.701 43.1248 123.952 42.8848 124.157V124.473C42.9628 124.418 43.0365 124.358 43.1055 124.292V124.438H43.4118V124.75H42.9236V124.981H43.4118V125.962C43.2205 126.001 43.0306 126.037 42.9048 126.061V126.358C42.9048 126.358 44.1382 126.047 44.1408 126.053V125.811C44.0138 125.843 43.8185 125.876 43.6553 125.912V124.976H44.1408V124.747H43.6553L43.6459 124.436ZM43.9134 125.773C43.9977 125.57 44.0713 125.372 44.1235 125.203H43.8746C43.8351 125.378 43.7818 125.549 43.7155 125.716L43.9134 125.773ZM43.1456 125.203H42.9169C42.9974 125.403 43.0553 125.611 43.0894 125.824L43.3208 125.756C43.2927 125.563 43.2335 125.377 43.1456 125.203Z" fill="white"/>
<path d="M49.8617 123.59H48.1348V123.856H49.8617V123.59Z" fill="white"/>
<rect x="27.4189" y="123.42" width="4.87021" height="4.87021" fill="white"/>
<path d="M27.5625 125.855L29.8538 123.563H27.5625V125.855Z" fill="#00377B"/>
<path d="M29.8529 128.147L27.5615 125.854V128.147H29.8529Z" fill="#00377B"/>
<path d="M29.8525 128.147L32.1449 125.854V128.147H29.8525Z" fill="#00377B"/>
<path d="M32.1449 125.854L29.8525 123.562H32.1449V125.854Z" fill="#50B848"/>
<path d="M29.8538 123.563L27.5625 125.855H29.8538V123.563Z" fill="url(#paint0_linear_1760:117141)"/>
<path d="M29.8529 128.146L27.5615 125.854H29.8529V128.146Z" fill="url(#paint1_linear_1760:117141)"/>
<path d="M32.1449 125.854L29.8525 128.147V125.854H32.1449Z" fill="white"/>
<path d="M32.1449 125.854L29.8525 123.562V125.854H32.1449Z" fill="url(#paint2_linear_1760:117141)"/>
<path fill-rule="evenodd" clip-rule="evenodd" d="M91.6077 124.703C91.6077 123.994 91.0329 123.419 90.3239 123.419H71.0673C70.3583 123.419 69.7835 123.994 69.7835 124.703C69.7835 125.412 70.3583 125.987 71.0673 125.987H90.3239C91.0329 125.987 91.6077 125.412 91.6077 124.703ZM67.5374 124.703C67.5374 123.994 66.9626 123.419 66.2536 123.419H62.7232C62.0142 123.419 61.4395 123.994 61.4395 124.703C61.4395 125.412 62.0142 125.987 62.7232 125.987H66.2536C66.9626 125.987 67.5374 125.412 67.5374 124.703Z" fill="white" fill-opacity="0.4"/>
<circle cx="80.3747" cy="149.416" r="4.81417" fill="white" fill-opacity="0.4"/>
<circle cx="86.7927" cy="149.416" r="4.81417" fill="white" fill-opacity="0.4"/>
</g>
<defs>
<linearGradient id="paint0_linear_1760:117141" x1="28.7124" y1="124.713" x2="29.8836" y2="125.885" gradientUnits="userSpaceOnUse">
<stop stop-color="#EF4623"/>
<stop offset="0.2" stop-color="#F15A22"/>
<stop offset="0.52" stop-color="#F6861F"/>
<stop offset="1" stop-color="#FFE300"/>
</linearGradient>
<linearGradient id="paint1_linear_1760:117141" x1="28.7114" y1="126.996" x2="29.8826" y2="125.824" gradientUnits="userSpaceOnUse">
<stop stop-color="#EF4623"/>
<stop offset="0.2" stop-color="#F15A22"/>
<stop offset="0.52" stop-color="#F6861F"/>
<stop offset="1" stop-color="#FFE300"/>
</linearGradient>
<linearGradient id="paint2_linear_1760:117141" x1="31.0078" y1="124.7" x2="29.8525" y2="125.854" gradientUnits="userSpaceOnUse">
<stop stop-color="#093C87"/>
<stop offset="0.2" stop-color="#02408B"/>
<stop offset="0.52" stop-color="#0063AC"/>
<stop offset="1" stop-color="#00AEEF"/>
</linearGradient>
<clipPath id="clip0_1760:117141">
<rect width="284" height="183" fill="white" transform="translate(21 3)"/>
</clipPath>
</defs>
</svg>
