<svg width="210" height="210" viewBox="0 0 210 210" fill="none" xmlns="http://www.w3.org/2000/svg">
<rect width="210" height="210" fill="white"/>
<path d="M93.125 154.149L100.881 154.479L126.441 133.448C128.178 132.039 131.618 129.535 135.393 129.928" stroke="white"/>
<rect x="30.1671" y="82.0004" width="150" height="42" fill="#E9EAEE"/>
<path fill-rule="evenodd" clip-rule="evenodd" d="M77.1393 79.5591C74.7479 80.9398 73.9285 83.9977 75.3092 86.3892L117.393 159.28C118.773 161.671 121.831 162.491 124.223 161.11L166.081 136.943C168.472 135.562 169.291 132.504 167.911 130.113L125.827 57.2225C124.447 54.8311 121.389 54.0117 118.997 55.3924L77.1393 79.5591ZM107.027 91.1439C111.399 91.1439 114.943 87.5994 114.943 83.2272C114.943 78.8549 111.399 75.3105 107.027 75.3105C102.654 75.3105 99.11 78.8549 99.11 83.2272C99.11 87.5994 102.654 91.1439 107.027 91.1439Z" fill="#0044AD"/>
<circle cx="89.1668" cy="74" r="20.5" stroke="#C4C4C4"/>
<path fill-rule="evenodd" clip-rule="evenodd" d="M73.3191 111.245C81.764 112.24 90.2355 107.735 93.9019 99.566C98.4249 89.4888 93.9223 77.653 83.8451 73.13C73.7679 68.607 61.9321 73.1096 57.4091 83.1868C53.7426 91.3557 56.0071 100.68 62.3642 106.328L51.8992 129.644L45.8127 126.912L43.0585 133.049L49.145 135.781L46.9596 140.65L40.8732 137.918L37.7765 144.817L43.8629 147.549L41.7693 152.213L52.7241 157.13L73.3191 111.245ZM72.8207 97.6928C76.3089 99.2584 80.4059 97.6999 81.9716 94.2116C83.5372 90.7233 81.9787 86.6263 78.4904 85.0607C75.0021 83.495 70.9051 85.0536 69.3395 88.5419C67.7738 92.0301 69.3324 96.1272 72.8207 97.6928Z" fill="#68C89E"/>
<rect x="74.1668" y="33.3789" width="6.19275" height="6.19275" transform="rotate(-45 74.1668 33.3789)" fill="#FF623E"/>
<rect x="51.4537" y="52.7871" width="10.6066" height="10.6066" transform="rotate(-45 51.4537 52.7871)" fill="#0044AD"/>
<path d="M113.695 124.781L106.902 113.015L116.981 100.723L132.666 98.14L139.459 109.906C142.52 115.207 142.914 121.638 140.523 127.273L137.044 135.472L128.204 134.386C122.128 133.639 116.756 130.082 113.695 124.781Z" stroke="white"/>
<path fill-rule="evenodd" clip-rule="evenodd" d="M68.1668 73.9999C68.1668 73.6032 68.1778 73.2092 68.1995 72.818C68.5384 72.6819 68.8811 72.555 69.2269 72.4375C69.1871 72.9531 69.1668 73.4741 69.1668 73.9999C69.1668 78.139 70.4242 81.9844 72.5778 85.1751C72.2789 85.3232 71.9902 85.493 71.7145 85.6835C69.4739 82.3433 68.1668 78.3242 68.1668 73.9999Z" fill="#C4C4C4"/>
<path fill-rule="evenodd" clip-rule="evenodd" d="M110.08 75.9213C109.765 75.7894 109.439 75.6773 109.105 75.5865C109.146 75.0632 109.167 74.5343 109.167 74.0004C109.167 69.9274 107.949 66.1387 105.858 62.9785L106.726 62.4775C108.901 65.7856 110.167 69.7452 110.167 74.0004C110.167 74.648 110.137 75.2887 110.08 75.9213Z" fill="#0044AD"/>
<rect x="30.1671" y="140" width="150" height="42" fill="#E9EAEE"/>
<path fill-rule="evenodd" clip-rule="evenodd" d="M88.6671 163H84.1671V172H126.167V163H121.667V167.5H88.6671V163Z" fill="white"/>
</svg>
