<svg width="250" height="250" viewBox="0 0 250 250" fill="none" xmlns="http://www.w3.org/2000/svg">
<rect x="48.5" y="48.5" width="73.6083" height="153" rx="2.55" fill="#E4EBFA"/>
<path fill-rule="evenodd" clip-rule="evenodd" d="M77.6779 95.4062C76.2696 95.4062 75.1279 96.5479 75.1279 97.9562V145.498C75.1279 145.518 75.1282 145.539 75.1286 145.559V159.535L86.6178 148.048H162.377C163.785 148.048 164.927 146.907 164.927 145.498V97.9562C164.927 96.5479 163.785 95.4062 162.377 95.4062H77.6779Z" fill="#0044AD"/>
<path fill-rule="evenodd" clip-rule="evenodd" d="M155.545 111.674H88.529V113.588H155.545V111.674ZM130.653 123.16H88.5283V125.074H130.653V123.16Z" fill="white"/>
<rect x="48.5" y="61.1348" width="73.6083" height="1.91439" fill="#0044AD"/>
<rect x="75.6211" y="189.924" width="19.3706" height="1.91439" fill="#0044AD"/>
<path fill-rule="evenodd" clip-rule="evenodd" d="M201.5 132.725H174.694V134.639H201.5V132.725ZM190.011 138.478H174.693V140.393H190.011V138.478Z" fill="#0044AD"/>
</svg>
