<svg width="250" height="250" viewBox="0 0 250 250" fill="none" xmlns="http://www.w3.org/2000/svg">
<rect x="82.1953" y="35.3535" width="122.383" height="182.75" rx="13" fill="white" stroke="#CCD9EF" stroke-width="6"/>
<rect x="35.4199" y="136.24" width="67.1643" height="41.9777" rx="4" fill="#56C393"/>
<rect x="42.4277" y="163.529" width="18.89" height="2.16941" rx="1" fill="white"/>
<rect width="10.4944" height="6.99628" rx="1" transform="matrix(1 0 0 -1 42.4277 148.826)" fill="white"/>
<rect x="42.4277" y="169.121" width="5.59703" height="1.39926" rx="0.699629" fill="white"/>
<rect x="59.2305" y="169.121" width="5.59703" height="1.39926" rx="0.699629" fill="white"/>
<rect x="49.4375" y="169.121" width="8.39554" height="1.39926" rx="0.699629" fill="white"/>
<path fill-rule="evenodd" clip-rule="evenodd" d="M86.1651 150.235C88.0978 150.235 89.6646 148.668 89.6646 146.736C89.6646 144.803 88.0978 143.236 86.1651 143.236C84.2325 143.236 82.6657 144.803 82.6657 146.736C82.6657 148.668 84.2325 150.235 86.1651 150.235ZM85.1113 151.917C81.2195 151.917 78.0645 155.072 78.0645 158.963C78.0645 159.547 78.5377 160.021 79.1215 160.021H93.2153C93.799 160.021 94.2723 159.547 94.2723 158.963C94.2723 155.072 91.1173 151.917 87.2254 151.917H85.1113Z" fill="white"/>
<path d="M125.143 172.955H135.476" stroke="#E1ECF4" stroke-width="6"/>
<path d="M139.848 172.955H165.952" stroke="#E1ECF4" stroke-width="6"/>
<path d="M130.559 163.172H160.47" stroke="#E1ECF4" stroke-width="8"/>
<rect width="3.26308" height="3.26308" transform="matrix(-0.707107 -0.707107 -0.707107 0.707107 119.715 151.596)" fill="#0044AD"/>
<circle cx="143.604" cy="107.684" r="40.6043" stroke="#E1ECF4" stroke-width="2"/>
<path d="M117.264 34H169.473V41.9646C169.473 44.1738 167.682 45.9646 165.473 45.9646H121.264C119.055 45.9646 117.264 44.1738 117.264 41.9646V34Z" fill="#CCD9EF"/>
<circle cx="143.623" cy="107.697" r="30.1835" fill="#0044AD"/>
<path fill-rule="evenodd" clip-rule="evenodd" d="M143.979 105.72C146.519 105.72 148.578 103.661 148.578 101.121C148.578 98.5806 146.519 96.5215 143.979 96.5215C141.439 96.5215 139.38 98.5806 139.38 101.121C139.38 103.661 141.439 105.72 143.979 105.72ZM142.607 108.061C137.492 108.061 133.346 112.207 133.346 117.322C133.346 118.089 133.968 118.711 134.735 118.711H153.258C154.025 118.711 154.647 118.089 154.647 117.322C154.647 112.207 150.501 108.061 145.386 108.061H142.607Z" fill="white"/>
<circle cx="162.91" cy="129.708" r="8.1577" fill="#56C393"/>
<path d="M159.036 129.63L161.783 132.377L167.139 127.02" stroke="white" stroke-width="2"/>
</svg>
