<svg width="450" height="320" viewBox="0 0 450 320" fill="none" xmlns="http://www.w3.org/2000/svg">
<g clip-path="url(#clip0_1240:237078)">
<rect x="111.873" y="71.2554" width="218.298" height="260.426" fill="white"/>
<path d="M180.022 224.447C177.813 224.447 176.022 226.237 176.022 228.447L176.022 316.191C176.022 318.4 177.813 320.191 180.022 320.191L187.341 320.191C189.55 320.191 191.341 318.4 191.341 316.191L191.341 228.447C191.341 226.237 189.55 224.447 187.341 224.447L180.022 224.447Z" fill="#E1ECF4"/>
<path d="M148.425 261.789C146.216 261.789 144.425 263.58 144.425 265.789L144.425 316.193C144.425 318.403 146.216 320.193 148.425 320.193L156.702 320.193C158.911 320.193 160.702 318.403 160.702 316.193L160.702 265.789C160.702 263.58 158.911 261.789 156.702 261.789L148.425 261.789Z" fill="#E1ECF4"/>
<path d="M242.255 218.7C240.046 218.7 238.255 220.491 238.255 222.7L238.255 316.19C238.255 318.399 240.046 320.19 242.255 320.19L251.489 320.19C253.698 320.19 255.489 318.399 255.489 316.19L255.489 222.7C255.489 220.491 253.698 218.7 251.489 218.7L242.255 218.7Z" fill="#E1ECF4"/>
<path d="M274.809 201.47C272.599 201.47 270.809 203.261 270.809 205.47L270.809 316.193C270.809 318.403 272.599 320.193 274.809 320.193L282.128 320.193C284.337 320.193 286.128 318.403 286.128 316.193L286.128 205.47C286.128 203.261 284.337 201.47 282.128 201.47L274.809 201.47Z" fill="#E1ECF4"/>
<path d="M210.66 201.47C208.451 201.47 206.66 203.261 206.66 205.47L206.66 316.193C206.66 318.402 208.451 320.193 210.66 320.193L218.937 320.193C221.146 320.193 222.937 318.402 222.937 316.193L222.937 205.47C222.937 203.261 221.146 201.47 218.937 201.47L210.66 201.47Z" fill="#E1ECF4"/>
<path fill-rule="evenodd" clip-rule="evenodd" d="M306.361 145.563V104.771L265.569 104.771L306.361 145.563ZM240.438 181.76L291.191 134.802L281.683 124.526L235.47 167.283L209.841 145.658L205.203 141.745L200.671 145.781L144.226 196.06L153.538 206.514L205.451 160.272L231.17 181.972L235.898 185.961L240.438 181.76Z" fill="#68C89E"/>
<rect x="122.405" y="71.2554" width="260.426" height="11.4894" transform="rotate(90 122.405 71.2554)" fill="#CCD9EF"/>
<path d="M161.661 265.79C161.661 263.581 159.87 261.79 157.661 261.79H117.788C115.579 261.79 113.788 263.581 113.788 265.79V276.939C113.788 279.148 115.579 280.939 117.788 280.939H157.661C159.87 280.939 161.661 279.148 161.661 276.939V265.79Z" fill="#56C393"/>
<path d="M161.661 304.089C161.661 301.88 159.87 300.089 157.661 300.089H117.788C115.579 300.089 113.788 301.88 113.788 304.089V315.238C113.788 317.447 115.579 319.238 117.788 319.238H157.661C159.87 319.238 161.661 317.447 161.661 315.238V304.089Z" fill="#56C393"/>
<path d="M161.661 284.937C161.661 282.727 159.87 280.937 157.661 280.937H117.788C115.579 280.937 113.788 282.727 113.788 284.937V296.085C113.788 298.295 115.579 300.085 117.788 300.085H157.661C159.87 300.085 161.661 298.295 161.661 296.085V284.937Z" fill="#0044AD"/>
<path d="M111.873 265.79C111.873 263.581 110.082 261.79 107.873 261.79H68.0002C65.791 261.79 64.0002 263.581 64.0002 265.79V276.939C64.0002 279.148 65.791 280.939 68.0002 280.939H107.873C110.082 280.939 111.873 279.148 111.873 276.939V265.79Z" fill="#0044AD"/>
<path d="M111.873 246.64C111.873 244.431 110.082 242.64 107.873 242.64H68.0002C65.791 242.64 64.0002 244.431 64.0002 246.64V257.789C64.0002 259.998 65.791 261.789 68.0002 261.789H107.873C110.082 261.789 111.873 259.998 111.873 257.789V246.64Z" fill="#68C89E"/>
<path d="M111.873 284.937C111.873 282.727 110.082 280.937 107.873 280.937H68.0002C65.791 280.937 64.0002 282.727 64.0002 284.937V296.085C64.0002 298.295 65.791 300.085 68.0002 300.085H107.873C110.082 300.085 111.873 298.295 111.873 296.085V284.937Z" fill="#68C89E"/>
<path d="M111.873 304.089C111.873 301.88 110.082 300.089 107.873 300.089H68.0002C65.791 300.089 64.0002 301.88 64.0002 304.089V315.238C64.0002 317.447 65.791 319.238 68.0002 319.238H107.873C110.082 319.238 111.873 317.447 111.873 315.238V304.089Z" fill="#0044AD"/>
<path d="M280.382 197.639H385.702V331.682H280.382V197.639Z" fill="#56C393"/>
<circle cx="333.041" cy="234.978" r="19.149" fill="white"/>
<path fill-rule="evenodd" clip-rule="evenodd" d="M333.659 226.318V227.318V228.043H334.959H335.959V230.043H334.959H332.085C331.05 230.043 330.211 230.882 330.211 231.917C330.211 232.952 331.05 233.791 332.085 233.791H333.235C335.374 233.791 337.109 235.526 337.109 237.665C337.109 239.661 335.599 241.305 333.659 241.516V241.687V242.837V243.837H331.659V242.837V241.687V241.539H330.361H329.361V239.539H330.361H333.235C334.27 239.539 335.109 238.7 335.109 237.665C335.109 236.63 334.27 235.791 333.235 235.791H332.085C329.945 235.791 328.211 234.057 328.211 231.917C328.211 229.922 329.72 228.278 331.659 228.066V227.318V226.318H333.659Z" fill="#56C393"/>
<ellipse cx="298.963" cy="272.71" rx="7.0922" ry="7.09221" fill="white"/>
<path d="M296.435 272.744L298.36 274.669L302.124 271.143" stroke="#56C393"/>
<ellipse cx="298.963" cy="293.99" rx="7.0922" ry="7.09221" fill="white"/>
<path d="M296.435 294.019L298.36 295.944L302.124 292.417" stroke="#56C393"/>
<path d="M312.674 272.712H373.253" stroke="#E1ECF4" stroke-width="2"/>
<path d="M312.674 293.986H346.717" stroke="#E1ECF4" stroke-width="2"/>
<ellipse cx="115.702" cy="76.0445" rx="28.7234" ry="28.7234" fill="#56C393"/>
<path fill-rule="evenodd" clip-rule="evenodd" d="M116.631 63.0569V64.5569V65.6416H118.58H120.08V68.6416H118.58H114.269C112.716 68.6416 111.458 69.9001 111.458 71.4527C111.458 73.0052 112.716 74.2637 114.269 74.2637H115.993C119.202 74.2637 121.804 76.8654 121.804 80.0748C121.804 83.0684 119.54 85.5333 116.631 85.8512V86.1113V87.8357V89.3357H113.631V87.8357V86.1113V85.8858H111.682H110.182V82.8858H111.682H115.993C117.545 82.8858 118.804 81.6273 118.804 80.0748C118.804 78.5223 117.545 77.2637 115.993 77.2637H114.269C111.059 77.2637 108.458 74.662 108.458 71.4527C108.458 68.4587 110.722 65.9935 113.631 65.6761V64.5569V63.0569H116.631Z" fill="white"/>
<rect width="5.7447" height="5.7447" transform="matrix(-0.707108 -0.707106 -0.707108 0.707106 362.23 49.4688)" fill="#0044AD"/>
<rect width="9.57448" height="9.57448" transform="matrix(-0.707109 -0.707104 -0.707109 0.707104 349.456 38.7703)" fill="#56C393"/>
</g>
<defs>
<clipPath id="clip0_1240:237078">
<rect width="321.702" height="288" fill="white" transform="translate(64 32)"/>
</clipPath>
</defs>
</svg>
