<svg width="131" height="130" viewBox="0 0 131 130" fill="none" xmlns="http://www.w3.org/2000/svg">
<g clip-path="url(#clip0_1781:119891)">
<rect x="0.5" width="130" height="130" fill="white"/>
<path d="M96.4516 64.093C96.4516 81.1875 82.5938 95.0454 65.4993 95.0454C48.4047 95.0454 34.5469 81.1875 34.5469 64.093C34.5469 46.9985 48.4047 33.1406 65.4993 33.1406C82.5938 33.1406 96.4516 46.9985 96.4516 64.093Z" fill="#0044AD"/>
<path fill-rule="evenodd" clip-rule="evenodd" d="M82.0403 54.97L60.5914 76.4189L50.9612 66.7888L54.4631 63.2869L60.5914 69.4152L78.5384 51.4681L82.0403 54.97Z" fill="white"/>
<path d="M83.3047 34.8662L85.226 32.9449L87.1472 34.8662L85.226 36.7875L83.3047 34.8662Z" fill="white"/>
<path d="M102.023 35.1142L105.852 31.2855L109.681 35.1142L105.852 38.943L102.023 35.1142Z" fill="#68C89E"/>
<path d="M21.2891 27.1162L26.2556 22.1497L31.2221 27.1162L26.2556 32.0827L21.2891 27.1162Z" fill="#E9EAEE"/>
<path d="M100.543 102.412L105.782 97.1729L111.021 102.412L105.782 107.651L100.543 102.412Z" fill="#E9EAEE"/>
<path d="M90.8789 31.5967L92.4281 30.0475L93.9773 31.5967L92.4281 33.1459L90.8789 31.5967Z" fill="#0044AD"/>
<path d="M25.4727 94.9092H31.1526V100.589L25.4727 94.9092Z" fill="#FF623E"/>
<path d="M20.3086 102.139H23.9231V105.753L20.3086 102.139Z" fill="#0044AD"/>
<path fill-rule="evenodd" clip-rule="evenodd" d="M46.8673 100.542C52.4695 103.363 58.799 104.952 65.4996 104.952C88.4063 104.952 106.976 86.3829 106.976 63.4762C106.976 56.7756 105.387 50.446 102.565 44.8439L102.104 45.3053C104.826 50.7785 106.357 56.9486 106.357 63.4762C106.357 86.041 88.0644 104.333 65.4996 104.333C58.972 104.333 52.8019 102.803 47.3288 100.08L46.8673 100.542ZM83.7352 26.9043C78.246 24.162 72.053 22.619 65.4996 22.619C42.9349 22.619 24.6425 40.9114 24.6425 63.4762C24.6425 70.0296 26.1854 76.2226 28.9278 81.7118L28.4666 82.173C25.6246 76.5549 24.0234 70.2025 24.0234 63.4762C24.0234 40.5695 42.593 22 65.4996 22C72.226 22 78.5784 23.6012 84.1964 26.4431L83.7352 26.9043Z" fill="#C4C4C4"/>
</g>
<defs>
<clipPath id="clip0_1781:119891">
<rect width="130" height="130" fill="white" transform="translate(0.5)"/>
</clipPath>
</defs>
</svg>
