<svg width="210" height="210" viewBox="0 0 210 210" fill="none" xmlns="http://www.w3.org/2000/svg">
<g clip-path="url(#clip0_1754:114900)">
<rect width="210" height="210" fill="white"/>
<rect width="210" height="210" fill="white"/>
<path d="M108.916 27.0615L167.163 37.468C171.078 38.1675 173.625 41.9849 172.767 45.8687L164.3 84.1989C163.559 87.5522 160.16 89.6008 156.849 88.6897L98.0535 72.5107C95.9708 71.9376 94.7194 69.8145 95.2267 67.7147L104.324 30.0598C104.821 28.0033 106.833 26.6894 108.916 27.0615Z" fill="#CCD9EF"/>
<ellipse cx="142.06" cy="99.3237" rx="20.7713" ry="2.36037" fill="#E9EAEE"/>
<path d="M101.161 31.085L162.87 42.3664C165.655 42.8757 167.462 45.5942 166.854 48.3597L156.807 94.0072C156.177 96.8674 153.235 98.5766 150.439 97.7069L89.8567 78.8663C87.8522 78.2429 86.6706 76.1761 87.1504 74.1325L96.5473 34.1056C97.0345 32.0302 99.0637 30.7016 101.161 31.085Z" fill="#0044AD"/>
<ellipse cx="146.432" cy="61.8224" rx="4.95877" ry="5.88526" transform="rotate(15.263 146.432 61.8224)" fill="white"/>
<path fill-rule="evenodd" clip-rule="evenodd" d="M149.875 81.2567C149.875 81.2566 149.875 81.2566 149.875 81.2566C151.358 75.8174 149.013 70.4408 144.636 69.2475C140.26 68.0542 135.51 71.4961 134.027 76.9352C134.019 76.9649 134.011 76.9946 134.003 77.0243L134.027 76.9354L149.875 81.2567Z" fill="white"/>
<path d="M124.461 55.6892L101.776 50.8374L101.436 52.2695L124.322 57.1122L124.461 55.6892Z" fill="white"/>
<path d="M123.467 60.5916L100.782 55.7397L100.442 57.1719L123.328 62.0146L123.467 60.5916Z" fill="white"/>
<path d="M108.382 62.7224L99.7878 60.6421L99.4472 62.0742L108.244 64.1455L108.382 62.7224Z" fill="white"/>
<path d="M98.3233 26.8757L94.3871 26.0188L95.244 22.0826L98.3233 26.8757Z" fill="#FF623E"/>
<path d="M166.639 72.8873L160.887 99.3235H179.062" stroke="#FF623E" stroke-dasharray="5 5"/>
<path d="M163.248 89.4098V89.4098C168.723 89.4098 173.162 93.8483 173.162 99.3234V99.3234" stroke="#FF623E"/>
<path d="M185.274 83.9453H186.688V85.4687H185.274V88H183.375V85.4687H178.461L178.407 84.3125L183.313 76.625H185.274V83.9453ZM180.399 83.9453H183.375V79.1953L183.235 79.4453L180.399 83.9453ZM188.454 82.3594L189.071 76.625H195.18V78.2656H190.649L190.336 80.9844C190.862 80.6823 191.456 80.5312 192.118 80.5312C193.201 80.5312 194.042 80.8776 194.641 81.5703C195.245 82.263 195.547 83.1953 195.547 84.3672C195.547 85.5234 195.214 86.4453 194.547 87.1328C193.881 87.8151 192.967 88.1562 191.805 88.1562C190.764 88.1562 189.899 87.862 189.211 87.2734C188.529 86.6797 188.159 85.8984 188.102 84.9297H189.938C190.011 85.4817 190.209 85.9062 190.532 86.2031C190.855 86.4948 191.277 86.6406 191.797 86.6406C192.381 86.6406 192.834 86.4323 193.157 86.0156C193.485 85.5989 193.649 85.0312 193.649 84.3125C193.649 83.6198 193.469 83.0729 193.11 82.6719C192.75 82.2656 192.256 82.0625 191.625 82.0625C191.282 82.0625 190.99 82.1094 190.75 82.2031C190.511 82.2916 190.25 82.4687 189.969 82.7344L188.454 82.3594ZM198.86 75.6719C199.344 75.6719 199.753 75.8333 200.086 76.1562C200.42 76.4739 200.586 76.8541 200.586 77.2969C200.586 77.7396 200.422 78.1172 200.094 78.4297C199.771 78.7422 199.36 78.8984 198.86 78.8984C198.355 78.8984 197.938 78.7422 197.61 78.4297C197.287 78.1172 197.125 77.7396 197.125 77.2969C197.125 76.8541 197.29 76.4739 197.618 76.1562C197.951 75.8333 198.365 75.6719 198.86 75.6719ZM197.985 77.2969C197.985 77.5416 198.071 77.75 198.243 77.9219C198.415 78.0885 198.62 78.1719 198.86 78.1719C199.105 78.1719 199.31 78.0885 199.477 77.9219C199.649 77.7552 199.735 77.5469 199.735 77.2969C199.735 77.0573 199.652 76.8515 199.485 76.6797C199.323 76.5026 199.115 76.414 198.86 76.414C198.605 76.414 198.394 76.5026 198.227 76.6797C198.066 76.8515 197.985 77.0573 197.985 77.2969Z" fill="#FF623E"/>
<rect width="7.21492" height="7.21492" transform="matrix(-0.707107 -0.707107 -0.707107 0.707107 21.2051 51.1017)" fill="#56C393"/>
<rect width="3.5251" height="3.5251" transform="matrix(-0.707107 -0.707107 -0.707107 0.707107 9.98193 62.4928)" fill="#0044AD"/>
<rect x="56" y="84.7232" width="2.90951" height="2.90951" transform="rotate(-35.7004 56 84.7232)" fill="#FF623E"/>
<path d="M83.0002 120.223L85.8493 128.415L104.453 152.556L107.846 153.927L99.891 129.654C96.6317 121.4 87.2725 119.927 83.0002 120.223Z" fill="#C4C4C4"/>
<rect x="25" y="62.5845" width="65.899" height="122.753" rx="4" fill="white"/>
<rect x="23" y="60.5845" width="69.899" height="126.753" rx="6" stroke="#CCD9EF" stroke-width="4"/>
<path d="M43.0898 60H72.809V65.045C72.809 67.2541 71.0181 69.045 68.809 69.045H47.0898C44.8807 69.045 43.0898 67.2541 43.0898 65.045V60Z" fill="#CCD9EF"/>
<path fill-rule="evenodd" clip-rule="evenodd" d="M94.7019 155.166L73.7255 146.544L44.432 145.365C42.8671 150.868 46.0763 156.595 51.5874 158.133L72.6178 164.004L75.8067 178.477C75.8933 178.87 76.0582 179.242 76.2915 179.57L84.7744 191.5V209.22L117 209.22L122.954 141.46L108.308 106.83L94.9998 97L94.9996 117.097L98.1629 128.715L99.958 145.07L94.9992 154.627L94.9992 155.288L94.7165 155.172L94.7019 155.2V155.166Z" fill="#E9EAEE"/>
<rect x="33" y="94" width="49" height="31" rx="3" fill="#E1ECF4"/>
<path d="M44 132H70.5513" stroke="#E1ECF4" stroke-width="2"/>
<path d="M50 139H64.9206" stroke="#E1ECF4" stroke-width="2"/>
<path d="M75.9993 198V212.5H127.422V198C127.422 196.343 126.079 195 124.422 195H78.9993C77.3424 195 75.9993 196.343 75.9993 198Z" fill="#56C393"/>
</g>
<defs>
<clipPath id="clip0_1754:114900">
<rect width="210" height="210" fill="white"/>
</clipPath>
</defs>
</svg>
