<svg width="210" height="210" viewBox="0 0 210 210" fill="none" xmlns="http://www.w3.org/2000/svg">
<rect width="210" height="210" fill="white"/>
<path d="M141.28 157.935V164.043H119.325V135.658L142.359 114.1C146.102 117.262 144.879 124.041 143.799 127.035L151.357 120.208L159.995 95.4168C162.874 89.9554 169.593 88.111 172.592 87.8715L165.754 120.208C159.275 130.269 147.038 148.952 141.28 157.935Z" fill="#E9EAEE"/>
<path d="M158.742 92.1327V98.6017L151.551 120.165L149.497 121.962L149.154 102.914C149.428 96.3016 155.66 92.9713 158.742 92.1327Z" fill="#C4C4C4"/>
<path d="M149.687 167.043V180.556H111.335V167.043C111.335 165.387 112.679 164.043 114.335 164.043H146.687C148.344 164.043 149.687 165.387 149.687 167.043Z" fill="#0044AD"/>
<path d="M75.2677 157.935V164.043H97.2222V135.658L74.1879 114.1C70.4449 117.262 71.6686 124.041 72.7483 127.035L65.1902 120.208L56.5523 95.4168C53.6731 89.9554 46.9547 88.111 43.9555 87.8715L50.7938 120.208C57.2722 130.269 69.5091 148.952 75.2677 157.935Z" fill="#E9EAEE"/>
<path d="M57.8041 92.1327V98.6017L64.9951 120.165L67.0497 121.962L67.3921 102.914C67.1181 96.3016 60.8859 92.9713 57.8041 92.1327Z" fill="#C4C4C4"/>
<path d="M66.8594 167.043V180.556H105.211V167.043C105.211 165.387 103.868 164.043 102.211 164.043H69.8594C68.2026 164.043 66.8594 165.387 66.8594 167.043Z" fill="#0044AD"/>
<rect x="61.7456" y="34.5" width="75.2674" height="47.4125" rx="2" fill="#0044AD"/>
<rect x="99.7407" y="60.5482" width="29.0521" height="0.76453" rx="0.382265" fill="white"/>
<rect x="99.7407" y="65.1354" width="21.4068" height="0.764526" rx="0.382263" fill="white"/>
<rect x="99.7407" y="68.9573" width="21.4068" height="0.764526" rx="0.382263" fill="white"/>
<rect x="99.7407" y="47.5505" width="11.4679" height="0.76453" rx="0.382265" fill="white"/>
<path fill-rule="evenodd" clip-rule="evenodd" d="M81.139 57.553C84.5753 57.553 87.361 54.7673 87.361 51.331C87.361 47.8947 84.5753 45.109 81.139 45.109C77.7027 45.109 74.917 47.8947 74.917 51.331C74.917 54.7673 77.7027 57.553 81.139 57.553ZM81.1391 85.3438L81.0683 85.3436H81.2099L81.1391 85.3438ZM68.2811 72.6354C68.2811 72.5522 68.3486 72.4847 68.4318 72.4847H91.9979C93.1025 72.4847 94.0143 71.5837 93.8445 70.4922C92.8869 64.3368 87.5631 59.6261 81.1391 59.6261C74.0374 59.6261 68.2803 65.3832 68.2803 72.4849C68.2803 72.5351 68.2806 72.5853 68.2811 72.6354Z" fill="white"/>
<ellipse cx="137.389" cy="73.1949" rx="19.5352" ry="19.5352" fill="#68C89E"/>
<path d="M141.345 76.4795C141.345 77.3952 141.072 78.1354 140.528 78.7001C139.984 79.2648 139.274 79.6234 138.399 79.776V80.6612C138.399 80.8698 138.295 80.9741 138.086 80.9741H136.736C136.527 80.9741 136.423 80.8698 136.423 80.6612V79.7531C135.838 79.6463 135.27 79.4606 134.721 79.1961C134.177 78.9264 133.693 78.5958 133.271 78.2041C133.139 78.0616 133.134 77.9141 133.256 77.7615L134.164 76.6092C134.296 76.4413 134.444 76.4388 134.607 76.6016C135.003 76.9984 135.464 77.3189 135.988 77.5631C136.512 77.8072 137.013 77.9293 137.491 77.9293C137.959 77.9293 138.338 77.8149 138.628 77.5859C138.923 77.3519 139.071 77.0314 139.071 76.6245C139.071 76.3904 139.025 76.1844 138.933 76.0063C138.847 75.8232 138.676 75.6477 138.422 75.4798C138.168 75.3119 137.962 75.1898 137.804 75.1135C137.651 75.0321 137.359 74.8973 136.926 74.7091C136.825 74.6633 136.746 74.6277 136.69 74.6023C136.415 74.4853 136.194 74.3861 136.026 74.3047C135.858 74.2233 135.649 74.1139 135.4 73.9765C135.156 73.8392 134.955 73.712 134.797 73.595C134.645 73.4729 134.479 73.3203 134.301 73.1371C134.123 72.954 133.983 72.7683 133.882 72.5801C133.785 72.3867 133.704 72.1655 133.637 71.9162C133.571 71.6618 133.538 71.3896 133.538 71.0997C133.538 70.2196 133.805 69.4972 134.339 68.9325C134.874 68.3678 135.568 68.0193 136.423 67.8871V67.0171C136.423 66.8085 136.527 66.7043 136.736 66.7043H138.086C138.295 66.7043 138.399 66.8085 138.399 67.0171V67.9786C139.264 68.1821 140.06 68.5815 140.788 69.1767C140.95 69.3089 140.966 69.4539 140.833 69.6116L140.017 70.7486C139.89 70.9216 139.742 70.9292 139.574 70.7715C139.183 70.4409 138.77 70.1916 138.338 70.0237C137.911 69.8507 137.499 69.7643 137.102 69.7643C136.715 69.7643 136.397 69.8609 136.148 70.0542C135.899 70.2475 135.774 70.5197 135.774 70.8707C135.774 71.0895 135.822 71.2854 135.919 71.4583C136.021 71.6262 136.179 71.7814 136.392 71.9238C136.606 72.0663 136.822 72.1909 137.041 72.2977C137.26 72.4046 137.55 72.5343 137.911 72.6869C138.007 72.7276 138.081 72.7581 138.132 72.7785C138.397 72.8955 138.618 72.9972 138.796 73.0837C138.979 73.1702 139.193 73.2847 139.437 73.4271C139.681 73.5645 139.885 73.6993 140.047 73.8315C140.21 73.9638 140.381 74.1266 140.559 74.3199C140.737 74.5081 140.877 74.7065 140.978 74.9151C141.085 75.1186 141.172 75.3552 141.238 75.6248C141.309 75.8893 141.345 76.1742 141.345 76.4795Z" fill="white"/>
<path d="M171.226 49.553L160.278 49.553L160.278 39.9735L171.226 49.553Z" fill="#FF623E"/>
<rect x="28.2173" y="147.4" width="5.57174" height="5.57174" transform="rotate(-45 28.2173 147.4)" fill="#FF623E"/>
</svg>
