<svg width="210" height="210" viewBox="0 0 210 210" fill="none" xmlns="http://www.w3.org/2000/svg">
<rect width="210" height="210" fill="white"/>
<rect width="210" height="210" fill="white"/>
<path fill-rule="evenodd" clip-rule="evenodd" d="M137.929 34H47V176.62H153.965V50.0357L137.929 34Z" fill="#E9EAEE"/>
<path fill-rule="evenodd" clip-rule="evenodd" d="M150.4 113.385C159.569 122.554 160.481 136.853 153.135 147.042L158.372 152.28L160.751 149.901L181.918 171.068L171.214 181.772L150.047 160.605L152.426 158.227L147.188 152.989C136.999 160.335 122.699 159.423 113.53 150.254C103.349 140.073 103.349 123.566 113.53 113.385C123.712 103.203 140.219 103.203 150.4 113.385ZM145.643 145.497C153.196 137.943 153.196 125.696 145.643 118.142C138.089 110.588 125.842 110.588 118.288 118.142C110.734 125.696 110.734 137.943 118.288 145.497C125.842 153.051 138.089 153.051 145.643 145.497Z" fill="#68C89E"/>
<path d="M137.145 33.3985V50.2183H153.964" stroke="white" stroke-width="2"/>
<path d="M58.7739 34V50.8198C58.7739 53.6066 61.0331 55.8657 63.8199 55.8657V55.8657C66.6067 55.8657 68.8658 53.6066 68.8658 50.8198V40.7859" stroke="#0044AD" stroke-width="2"/>
<path fill-rule="evenodd" clip-rule="evenodd" d="M62 117H57V122H62V117ZM102 117H68.25V122H102V117Z" fill="white"/>
<path fill-rule="evenodd" clip-rule="evenodd" d="M62 131.42H57V136.42H62V131.42ZM96.3133 131.42H68.25V137.033H96.3133V131.42Z" fill="white"/>
<path fill-rule="evenodd" clip-rule="evenodd" d="M62 146.387H57V151.387H62V146.387ZM101.926 146.387H68.25V152H101.926V146.387Z" fill="white"/>
<rect x="34.1719" y="29.8284" width="5.99996" height="5.99996" transform="rotate(-45 34.1719 29.8284)" fill="#FF623E"/>
<ellipse cx="101.255" cy="78.7663" rx="21.7663" ry="21.7664" fill="#0044AD"/>
<path d="M105.662 82.4254C105.662 83.4457 105.359 84.2705 104.753 84.8997C104.146 85.5288 103.355 85.9285 102.38 86.0985V87.0848C102.38 87.3172 102.264 87.4334 102.032 87.4334H100.527C100.294 87.4334 100.178 87.3172 100.178 87.0848V86.073C99.5264 85.954 98.8944 85.7471 98.2822 85.4523C97.6757 85.1519 97.1372 84.7835 96.6667 84.347C96.5193 84.1883 96.5137 84.0239 96.6497 83.8539L97.6615 82.57C97.8089 82.3829 97.9733 82.3801 98.1546 82.5615C98.5968 83.0036 99.1098 83.3607 99.6936 83.6328C100.277 83.9049 100.836 84.0409 101.369 84.0409C101.89 84.0409 102.312 83.9134 102.635 83.6583C102.964 83.3976 103.129 83.0404 103.129 82.587C103.129 82.3262 103.078 82.0967 102.976 81.8983C102.879 81.6942 102.689 81.4987 102.406 81.3116C102.122 81.1246 101.893 80.9885 101.717 80.9035C101.547 80.8128 101.221 80.6626 100.739 80.4529C100.626 80.4018 100.538 80.3622 100.476 80.3338C100.17 80.2035 99.9232 80.0929 99.7361 80.0022C99.5491 79.9115 99.3166 79.7897 99.0389 79.6366C98.7668 79.4836 98.5429 79.3419 98.3672 79.2115C98.1972 79.0755 98.0129 78.9054 97.8145 78.7014C97.6162 78.4973 97.4603 78.2904 97.3469 78.0807C97.2392 77.8653 97.1485 77.6187 97.0748 77.341C97.0011 77.0575 96.9643 76.7543 96.9643 76.4312C96.9643 75.4506 97.2619 74.6457 97.8571 74.0165C98.4522 73.3873 99.226 72.999 100.178 72.8516V71.8824C100.178 71.65 100.294 71.5338 100.527 71.5338H102.032C102.264 71.5338 102.38 71.65 102.38 71.8824V72.9537C103.344 73.1804 104.231 73.6254 105.042 74.2886C105.223 74.4359 105.24 74.5975 105.093 74.7732L104.183 76.0401C104.041 76.2328 103.877 76.2413 103.69 76.0656C103.253 75.6971 102.794 75.4194 102.312 75.2323C101.836 75.0396 101.377 74.9433 100.935 74.9433C100.504 74.9433 100.15 75.051 99.8721 75.2663C99.5944 75.4817 99.4555 75.785 99.4555 76.1761C99.4555 76.4199 99.5094 76.6381 99.6171 76.8308C99.7304 77.0179 99.9062 77.1907 100.144 77.3495C100.382 77.5082 100.623 77.647 100.867 77.7661C101.111 77.8851 101.434 78.0297 101.836 78.1997C101.944 78.2451 102.026 78.2791 102.083 78.3017C102.378 78.4321 102.624 78.5455 102.823 78.6418C103.027 78.7382 103.265 78.8657 103.537 79.0244C103.809 79.1775 104.036 79.3277 104.217 79.4751C104.398 79.6225 104.588 79.8038 104.787 80.0192C104.985 80.229 105.141 80.45 105.254 80.6824C105.373 80.9092 105.47 81.1727 105.543 81.4732C105.623 81.7679 105.662 82.0853 105.662 82.4254Z" fill="white"/>
</svg>
