<svg width="210" height="210" viewBox="0 0 210 210" fill="none" xmlns="http://www.w3.org/2000/svg">
<rect width="210" height="210" fill="white"/>
<rect width="210" height="210" fill="white"/>
<ellipse cx="144.62" cy="51.5393" rx="14.3208" ry="14.3208" transform="rotate(-15 144.62 51.5393)" fill="#68C89E"/>
<path d="M148.044 53.1143C148.218 53.7628 148.166 54.3385 147.888 54.8417C147.609 55.3448 147.175 55.7334 146.584 56.0075L146.752 56.6343C146.792 56.782 146.738 56.8756 146.59 56.9152L145.634 57.1715C145.486 57.211 145.392 57.157 145.353 57.0093L145.18 56.3663C144.746 56.4016 144.309 56.3778 143.87 56.2947C143.433 56.2071 143.028 56.0646 142.655 55.8673C142.534 55.7916 142.503 55.6881 142.56 55.5568L142.984 54.5686C143.046 54.4246 143.15 54.3949 143.296 54.4792C143.653 54.6849 144.04 54.8245 144.457 54.898C144.874 54.9715 145.252 54.9629 145.591 54.8722C145.922 54.7834 146.169 54.6304 146.331 54.4133C146.495 54.1916 146.539 53.9366 146.462 53.6485C146.417 53.4828 146.346 53.3455 146.247 53.2368C146.151 53.1236 145.997 53.0316 145.785 52.961C145.573 52.8904 145.404 52.843 145.278 52.8189C145.155 52.7902 144.922 52.7503 144.58 52.699C144.499 52.6859 144.437 52.6757 144.392 52.6683C144.176 52.6375 144 52.6093 143.866 52.5835C143.731 52.5577 143.563 52.5198 143.36 52.4699C143.161 52.4189 142.995 52.367 142.861 52.3141C142.73 52.2566 142.584 52.1799 142.423 52.084C142.262 51.9881 142.128 51.8832 142.02 51.7692C141.915 51.6506 141.815 51.5094 141.721 51.3454C141.626 51.1778 141.551 50.9914 141.496 50.7861C141.329 50.1629 141.381 49.6007 141.652 49.0995C141.923 48.5982 142.349 48.2197 142.929 47.9639L142.764 47.3479C142.724 47.2002 142.778 47.1066 142.926 47.067L143.883 46.8108C144.03 46.7712 144.124 46.8252 144.163 46.9729L144.346 47.6538C144.997 47.6338 145.636 47.7655 146.264 48.0489C146.405 48.1117 146.443 48.2115 146.379 48.3482L146.017 49.3083C145.96 49.4549 145.857 49.4883 145.708 49.4085C145.368 49.2486 145.029 49.1503 144.691 49.1135C144.355 49.0721 144.047 49.089 143.766 49.1643C143.492 49.2377 143.285 49.3664 143.146 49.5506C143.006 49.7348 142.969 49.9512 143.036 50.1997C143.077 50.3546 143.149 50.4841 143.25 50.5883C143.354 50.6879 143.495 50.7678 143.673 50.8281C143.852 50.8885 144.028 50.9357 144.204 50.9698C144.379 51.004 144.609 51.0408 144.893 51.0804C144.97 51.0908 145.028 51.0985 145.067 51.1032C145.277 51.1359 145.453 51.1659 145.595 51.1934C145.742 51.2199 145.915 51.2604 146.114 51.3149C146.313 51.3659 146.483 51.4227 146.624 51.4855C146.764 51.5482 146.915 51.6312 147.078 51.7343C147.24 51.8338 147.377 51.9477 147.488 52.0761C147.603 52.1999 147.709 52.351 147.807 52.5294C147.907 52.7032 147.987 52.8982 148.044 53.1143Z" fill="white"/>
<rect x="74.6133" y="74.4" width="73.014" height="46.729" rx="2" fill="#0044AD"/>
<rect x="74.6133" y="82.4315" width="73.014" height="10.222" fill="white"/>
<rect x="59.2803" y="105.065" width="102.22" height="75.9345" rx="2" fill="#E9EAEE"/>
<rect x="51.2485" y="127.699" width="46.729" height="30.6659" rx="2" fill="#E9EAEE"/>
<ellipse cx="81.1847" cy="142.667" rx="9.49182" ry="9.12675" fill="white"/>
<ellipse cx="81.1847" cy="142.667" rx="9.49182" ry="9.12675" fill="white"/>
<rect x="59.2803" y="126.97" width="36.507" height="0.730132" fill="#C4C4C4"/>
<rect x="59.2803" y="158.366" width="36.507" height="0.73015" fill="#C4C4C4"/>
<path d="M41.1143 93.5489H50.8608V103.295L41.1143 93.5489Z" fill="#0044AD"/>
<path d="M167.1 74.2809L167.1 68.3522L173.028 68.3522L167.1 74.2809Z" fill="#FF623E"/>
</svg>
