<svg width="210" height="210" viewBox="0 0 210 210" fill="none" xmlns="http://www.w3.org/2000/svg">
<rect width="210" height="210" fill="white"/>
<path d="M64.8252 59.7591C64.8252 58.6545 65.7206 57.7591 66.8252 57.7591H158.271C160.48 57.7591 162.271 59.5499 162.271 61.7591V66.3572H66.8252C65.7206 66.3572 64.8252 65.4618 64.8252 64.3572V59.7591Z" fill="#0044AD"/>
<path fill-rule="evenodd" clip-rule="evenodd" d="M66.8252 57.7591C65.7206 57.7591 64.8252 58.6545 64.8252 59.7591V83.5535H149.608V63.2558C149.608 60.2202 152.069 57.7593 155.105 57.7593C155.105 57.7593 155.105 57.7593 155.106 57.7593V57.7591H66.8252Z" fill="#E9EAEE"/>
<rect x="64.8252" y="76.3895" width="84.5482" height="104.611" rx="2" fill="#E9EAEE"/>
<path fill-rule="evenodd" clip-rule="evenodd" d="M82.0221 115.081H120.714V119.38H82.0221V115.081ZM82.022 126.544H106.984V130.843H82.022V126.544ZM120.714 136.576H82.022V140.875H120.714V136.576Z" fill="white"/>
<ellipse cx="154.622" cy="140.391" rx="16.7118" ry="16.7118" fill="#68C89E"/>
<path d="M158.006 143.202C158.006 143.985 157.773 144.618 157.307 145.101C156.842 145.585 156.234 145.891 155.486 146.022V146.779C155.486 146.958 155.397 147.047 155.218 147.047H154.063C153.884 147.047 153.795 146.958 153.795 146.779V146.002C153.295 145.911 152.809 145.752 152.339 145.526C151.874 145.295 151.46 145.012 151.099 144.677C150.986 144.555 150.981 144.429 151.086 144.299L151.863 143.313C151.976 143.169 152.102 143.167 152.241 143.306C152.581 143.646 152.975 143.92 153.423 144.129C153.871 144.338 154.3 144.442 154.709 144.442C155.109 144.442 155.434 144.344 155.682 144.148C155.934 143.948 156.06 143.674 156.06 143.326C156.06 143.126 156.021 142.949 155.943 142.797C155.869 142.64 155.723 142.49 155.505 142.347C155.288 142.203 155.112 142.099 154.977 142.033C154.846 141.964 154.596 141.848 154.226 141.687C154.139 141.648 154.071 141.618 154.024 141.596C153.789 141.496 153.599 141.411 153.456 141.341C153.312 141.272 153.134 141.178 152.92 141.061C152.711 140.943 152.54 140.834 152.405 140.734C152.274 140.63 152.133 140.499 151.98 140.343C151.828 140.186 151.708 140.027 151.621 139.866C151.539 139.701 151.469 139.511 151.412 139.298C151.356 139.08 151.327 138.848 151.327 138.6C151.327 137.847 151.556 137.229 152.013 136.746C152.47 136.262 153.064 135.964 153.795 135.851V135.107C153.795 134.929 153.884 134.839 154.063 134.839H155.218C155.397 134.839 155.486 134.929 155.486 135.107V135.93C156.226 136.104 156.907 136.445 157.529 136.954C157.668 137.068 157.681 137.192 157.568 137.327L156.87 138.299C156.761 138.447 156.635 138.454 156.491 138.319C156.156 138.036 155.804 137.823 155.434 137.679C155.068 137.531 154.716 137.457 154.376 137.457C154.045 137.457 153.773 137.54 153.56 137.705C153.347 137.871 153.24 138.103 153.24 138.404C153.24 138.591 153.282 138.758 153.364 138.906C153.451 139.05 153.586 139.183 153.769 139.305C153.952 139.426 154.137 139.533 154.324 139.624C154.511 139.716 154.759 139.827 155.068 139.957C155.151 139.992 155.214 140.018 155.257 140.036C155.484 140.136 155.673 140.223 155.825 140.297C155.982 140.371 156.165 140.469 156.374 140.591C156.583 140.708 156.757 140.823 156.896 140.937C157.035 141.05 157.181 141.189 157.333 141.354C157.486 141.515 157.605 141.685 157.692 141.864C157.784 142.038 157.858 142.24 157.914 142.471C157.975 142.697 158.006 142.941 158.006 143.202Z" fill="white"/>
<path fill-rule="evenodd" clip-rule="evenodd" d="M140.776 168.102H57.6606V178.999C57.6606 180.104 58.5561 180.999 59.6606 180.999H144.508C144.739 180.999 144.961 180.96 145.167 180.888C142.661 180.376 140.776 178.16 140.776 175.503V168.102Z" fill="#0044AD"/>
<rect width="5.38112" height="5.38112" transform="matrix(0.707108 -0.707106 0.707108 0.707106 173.736 120.319)" fill="#FF623E"/>
<path d="M29 149.473H34.7321V156.638L29 149.473Z" fill="#FF623E"/>
<circle cx="71.1004" cy="69.7675" r="34.9358" fill="#0044AD"/>
<path fill-rule="evenodd" clip-rule="evenodd" d="M70.7337 65.771C75.0417 65.771 78.534 62.2787 78.534 57.9707C78.534 53.6627 75.0417 50.1703 70.7337 50.1703C66.4257 50.1703 62.9333 53.6627 62.9333 57.9707C62.9333 62.2787 66.4257 65.771 70.7337 65.771ZM86.8562 84.4911C86.8562 84.4915 86.8559 84.4918 86.8555 84.4918H54.9397C54.762 84.4918 54.6179 84.6359 54.6179 84.8136C54.6158 84.7064 54.6147 84.5989 54.6147 84.4911C54.6147 75.5879 61.8322 68.3704 70.7355 68.3704C79.6387 68.3704 86.8562 75.5879 86.8562 84.4911Z" fill="white"/>
<ellipse cx="97.8579" cy="90.7931" rx="13.2241" ry="13.2241" transform="rotate(-135 97.8579 90.7931)" stroke="#FF623E" stroke-width="3"/>
<line x1="89.3207" y1="99.0782" x2="106.152" y2="82.2467" stroke="#FF623E" stroke-width="3"/>
</svg>
